0
SECTION
2
HEADER
9
$INSUNITS
70
4
9
$ACADVER
1
AC1014
9
$HANDSEED
5
FFFF
0
ENDSEC
0
SECTION
2
TABLES
0
TABLE
2
VPORT
5
8
100
AcDbSymbolTable
0
ENDTAB
0
TABLE
2
LTYPE
5
5
100
AcDbSymbolTable
0
LTYPE
5
14
100
AcDbSymbolTableRecord
100
AcDbLinetypeTableRecord
2
BYBLOCK
70
0
0
LTYPE
5
15
100
AcDbSymbolTableRecord
100
AcDbLinetypeTableRecord
2
BYLAYER
70
0
0
ENDTAB
0
TABLE
2
LAYER
5
2
100
AcDbSymbolTable
70
2
0
LAYER
5
50
100
AcDbSymbolTableRecord
100
AcDbLayerTableRecord
2
0
70
0
6
CONTINUOUS
0
ENDTAB
0
TABLE
2
STYLE
5
3
100
AcDbSymbolTable
70
1
0
STYLE
5
11
100
AcDbSymbolTableRecord
100
AcDbTextStyleTableRecord
2
STANDARD
70
0
0
ENDTAB
0
TABLE
2
VIEW
5
6
100
AcDbSymbolTable
70
0
0
ENDTAB
0
TABLE
2
UCS
5
7
100
AcDbSymbolTable
70
0
0
ENDTAB
0
TABLE
2
APPID
5
9
100
AcDbSymbolTable
70
2
0
APPID
5
12
100
AcDbSymbolTableRecord
100
AcDbRegAppTableRecord
2
ACAD
70
0
0
ENDTAB
0
TABLE
2
DIMSTYLE
5
A
100
AcDbSymbolTable
70
1
0
ENDTAB
0
TABLE
2
BLOCK_RECORD
5
1
100
AcDbSymbolTable
70
1
0
BLOCK_RECORD
5
1F
100
AcDbSymbolTableRecord
100
AcDbBlockTableRecord
2
*MODEL_SPACE
0
BLOCK_RECORD
5
1B
100
AcDbSymbolTableRecord
100
AcDbBlockTableRecord
2
*PAPER_SPACE
0
ENDTAB
0
ENDSEC
0
SECTION
2
BLOCKS
0
BLOCK
5
20
100
AcDbEntity
100
AcDbBlockBegin
2
*MODEL_SPACE
0
ENDBLK
5
21
100
AcDbEntity
100
AcDbBlockEnd
0
BLOCK
5
1C
100
AcDbEntity
100
AcDbBlockBegin
2
*PAPER_SPACE
0
ENDBLK
5
1D
100
AcDbEntity
100
AcDbBlockEnd
0
ENDSEC
0
SECTION
2
ENTITIES
0
ARC
5
100
100
AcDbEntity
8
0
100
AcDbCircle
10
107
20
-66
30
0
40
30.000000000000018
210
0
220
0
230
1
100
AcDbArc
50
-90
51
0
0
LINE
5
101
100
AcDbEntity
8
0
100
AcDbLine
10
107
20
-96.000000000000014
30
0
11
-107
21
-96.000000000000014
31
0
0
ARC
5
102
100
AcDbEntity
8
0
100
AcDbCircle
10
-107
20
-66
30
0
40
30.000000000000018
210
0
220
0
230
1
100
AcDbArc
50
180
51
270
0
LINE
5
103
100
AcDbEntity
8
0
100
AcDbLine
10
-137
20
-66
30
0
11
-137
21
120.00000000000001
31
0
0
ARC
5
104
100
AcDbEntity
8
0
100
AcDbCircle
10
-127.00000000000001
20
120
30
0
40
10
210
0
220
-0
230
1
100
AcDbArc
50
90
51
180
0
LINE
5
105
100
AcDbEntity
8
0
100
AcDbLine
10
-127.00000000000001
20
130
30
0
11
127.00000000000001
21
130
31
0
0
ARC
5
106
100
AcDbEntity
8
0
100
AcDbCircle
10
127.00000000000001
20
120
30
0
40
10
210
0
220
-0
230
1
100
AcDbArc
50
0
51
90
0
LINE
5
107
100
AcDbEntity
8
0
100
AcDbLine
10
137
20
120
30
0
11
137
21
-66.000000000000014
31
0
0
ARC
5
108
100
AcDbEntity
8
0
100
AcDbCircle
10
107
20
-66
30
0
40
22.000000000000011
210
0
220
0
230
1
100
AcDbArc
50
-90
51
0
0
LINE
5
109
100
AcDbEntity
8
0
100
AcDbLine
10
107
20
-88
30
0
11
-107
21
-88
31
0
0
ARC
5
110
100
AcDbEntity
8
0
100
AcDbCircle
10
-107
20
-66
30
0
40
22.000000000000011
210
0
220
0
230
1
100
AcDbArc
50
180
51
270
0
LINE
5
111
100
AcDbEntity
8
0
100
AcDbLine
10
-129
20
-66
30
0
11
-129
21
120.00000000000001
31
0
0
ARC
5
112
100
AcDbEntity
8
0
100
AcDbCircle
10
-127.00000000000001
20
120
30
0
40
1.9999999999999929
210
0
220
-0
230
1
100
AcDbArc
50
90
51
180
0
LINE
5
113
100
AcDbEntity
8
0
100
AcDbLine
10
-127.00000000000001
20
122
30
0
11
127.00000000000001
21
122
31
0
0
ARC
5
114
100
AcDbEntity
8
0
100
AcDbCircle
10
127.00000000000001
20
120
30
0
40
1.9999999999999929
210
0
220
-0
230
1
100
AcDbArc
50
0
51
90
0
LINE
5
115
100
AcDbEntity
8
0
100
AcDbLine
10
129
20
120
30
0
11
129
21
-66.000000000000014
31
0
0
CIRCLE
5
116
100
AcDbEntity
8
0
100
AcDbCircle
10
-132.99999803304675
20
88.000001654028893
30
0
40
1.749999999999996
210
0
220
-0
230
1
0
CIRCLE
5
117
100
AcDbEntity
8
0
100
AcDbCircle
10
-132.99999803304675
20
68.000001654028893
30
0
40
1.749999999999996
210
0
220
-0
230
1
0
CIRCLE
5
118
100
AcDbEntity
8
0
100
AcDbCircle
10
-130.00000193715096
20
125.00000186264515
30
0
40
1.7500000000000091
210
0
220
-0
230
1
0
CIRCLE
5
119
100
AcDbEntity
8
0
100
AcDbCircle
10
-108.5
20
126.00000189244747
30
0
40
1.7500000000000071
210
0
220
-0
230
1
0
CIRCLE
5
120
100
AcDbEntity
8
0
100
AcDbCircle
10
-32
20
126.00000189244747
30
0
40
1.7500000000000071
210
0
220
-0
230
1
0
CIRCLE
5
121
100
AcDbEntity
8
0
100
AcDbCircle
10
31.999999999999993
20
126.00000189244747
30
0
40
1.7500000000000071
210
0
220
-0
230
1
0
CIRCLE
5
122
100
AcDbEntity
8
0
100
AcDbCircle
10
108.5
20
126.00000189244747
30
0
40
1.7500000000000071
210
0
220
-0
230
1
0
CIRCLE
5
123
100
AcDbEntity
8
0
100
AcDbCircle
10
130.00000193715096
20
125.00000186264515
30
0
40
1.7500000000000022
210
0
220
-0
230
1
0
CIRCLE
5
124
100
AcDbEntity
8
0
100
AcDbCircle
10
133.00000196695328
20
88.000001654028893
30
0
40
1.749999999999996
210
0
220
-0
230
1
0
CIRCLE
5
125
100
AcDbEntity
8
0
100
AcDbCircle
10
133.00000196695328
20
68.000001654028893
30
0
40
1.749999999999996
210
0
220
-0
230
1
0
CIRCLE
5
126
100
AcDbEntity
8
0
100
AcDbCircle
10
133.00000196695328
20
12.500001654028896
30
0
40
1.749999999999996
210
0
220
-0
230
1
0
CIRCLE
5
127
100
AcDbEntity
8
0
100
AcDbCircle
10
128.00000193715096
20
-80.999998137354851
30
0
40
1.7500000000000022
210
0
220
-0
230
1
0
CIRCLE
5
128
100
AcDbEntity
8
0
100
AcDbCircle
10
108.5
20
-91.999998107552528
30
0
40
1.7500000000000071
210
0
220
-0
230
1
0
CIRCLE
5
129
100
AcDbEntity
8
0
100
AcDbCircle
10
31.999999999999993
20
-91.999998107552528
30
0
40
1.7500000000000071
210
0
220
-0
230
1
0
CIRCLE
5
130
100
AcDbEntity
8
0
100
AcDbCircle
10
-32
20
-91.999998107552528
30
0
40
1.7500000000000071
210
0
220
-0
230
1
0
CIRCLE
5
131
100
AcDbEntity
8
0
100
AcDbCircle
10
-108.5
20
-91.999998107552528
30
0
40
1.7500000000000071
210
0
220
-0
230
1
0
CIRCLE
5
132
100
AcDbEntity
8
0
100
AcDbCircle
10
-127.99999806284907
20
-80.999998137354851
30
0
40
1.7500000000000022
210
0
220
-0
230
1
0
CIRCLE
5
133
100
AcDbEntity
8
0
100
AcDbCircle
10
-132.99999803304675
20
-34.000000000000014
30
0
40
1.749999999999996
210
0
220
-0
230
1
0
CIRCLE
5
134
100
AcDbEntity
8
0
100
AcDbCircle
10
-132.99999803304675
20
12.500001654028896
30
0
40
1.749999999999996
210
0
220
-0
230
1
0
ENDSEC
0
SECTION
2
OBJECTS
0
DICTIONARY
5
C
100
AcDbDictionary
3
ACAD_GROUP
350
D
3
ACAD_MLINESTYLE
350
17
0
DICTIONARY
5
D
100
AcDbDictionary
0
DICTIONARY
5
1A
330
C
100
AcDbDictionary
0
DICTIONARY
5
17
100
AcDbDictionary
0
ENDSEC
0
EOF
