0
SECTION
2
HEADER
9
$INSUNITS
70
4
9
$ACADVER
1
AC1014
9
$HANDSEED
5
FFFF
0
ENDSEC
0
SECTION
2
TABLES
0
TABLE
2
VPORT
5
8
100
AcDbSymbolTable
0
ENDTAB
0
TABLE
2
LTYPE
5
5
100
AcDbSymbolTable
0
LTYPE
5
14
100
AcDbSymbolTableRecord
100
AcDbLinetypeTableRecord
2
BYBLOCK
70
0
0
LTYPE
5
15
100
AcDbSymbolTableRecord
100
AcDbLinetypeTableRecord
2
BYLAYER
70
0
0
ENDTAB
0
TABLE
2
LAYER
5
2
100
AcDbSymbolTable
70
2
0
LAYER
5
50
100
AcDbSymbolTableRecord
100
AcDbLayerTableRecord
2
0
70
0
6
CONTINUOUS
0
ENDTAB
0
TABLE
2
STYLE
5
3
100
AcDbSymbolTable
70
1
0
STYLE
5
11
100
AcDbSymbolTableRecord
100
AcDbTextStyleTableRecord
2
STANDARD
70
0
0
ENDTAB
0
TABLE
2
VIEW
5
6
100
AcDbSymbolTable
70
0
0
ENDTAB
0
TABLE
2
UCS
5
7
100
AcDbSymbolTable
70
0
0
ENDTAB
0
TABLE
2
APPID
5
9
100
AcDbSymbolTable
70
2
0
APPID
5
12
100
AcDbSymbolTableRecord
100
AcDbRegAppTableRecord
2
ACAD
70
0
0
ENDTAB
0
TABLE
2
DIMSTYLE
5
A
100
AcDbSymbolTable
70
1
0
ENDTAB
0
TABLE
2
BLOCK_RECORD
5
1
100
AcDbSymbolTable
70
1
0
BLOCK_RECORD
5
1F
100
AcDbSymbolTableRecord
100
AcDbBlockTableRecord
2
*MODEL_SPACE
0
BLOCK_RECORD
5
1B
100
AcDbSymbolTableRecord
100
AcDbBlockTableRecord
2
*PAPER_SPACE
0
ENDTAB
0
ENDSEC
0
SECTION
2
BLOCKS
0
BLOCK
5
20
100
AcDbEntity
100
AcDbBlockBegin
2
*MODEL_SPACE
0
ENDBLK
5
21
100
AcDbEntity
100
AcDbBlockEnd
0
BLOCK
5
1C
100
AcDbEntity
100
AcDbBlockBegin
2
*PAPER_SPACE
0
ENDBLK
5
1D
100
AcDbEntity
100
AcDbBlockEnd
0
ENDSEC
0
SECTION
2
ENTITIES
0
CIRCLE
5
100
100
AcDbEntity
8
0
100
AcDbCircle
10
107.49999824166298
20
60.000001713633537
30
0
40
1.4999999999999971
210
0
220
0
230
1
0
LWPOLYLINE
5
101
100
AcDbEntity
8
0
100
AcDbPolyline
90
15
70
1
43
0.0
10
24.123343025803123
20
-0.21893775033112739
10
29.850951865072762
20
-41.298270885584934
10
34.65264968650451
20
-75.736821065378606
42
0.41374173615021437
10
35.779565323466677
20
-76.589369468824543
10
92.472503085556653
20
-68.777884772805223
42
0.41421356237307921
10
93.326647415580183
20
-67.650747929521032
10
90.995676460822949
20
-50.73340168795005
42
-0.41225874892575026
10
91.843207633286156
20
-49.607198557760654
10
108.5100435984958
20
-47.197211120959459
10
127.51365258766789
20
-45.935193357691375
42
0.41576964296095176
10
128.44482542122358
20
-44.86583053887329
10
124.35563340986596
20
12.130690646883
42
0.41255451588205494
10
123.29229075394275
20
13.056955801921696
10
102.58704165123162
20
11.689373865348188
10
24.976188491071397
20
0.90964593606805333
42
0.4143668306996478
0
CIRCLE
5
102
100
AcDbEntity
8
0
100
AcDbCircle
10
104.99999824166298
20
55.000001713633537
30
0
40
1.4999999999999971
210
0
220
0
230
1
0
CIRCLE
5
103
100
AcDbEntity
8
0
100
AcDbCircle
10
112.49999824166298
20
70.000001713633537
30
0
40
1.4999999999999971
210
0
220
0
230
1
0
CIRCLE
5
104
100
AcDbEntity
8
0
100
AcDbCircle
10
117.4999981969595
20
47.500001728534698
30
0
40
1.2500000000000044
210
0
220
-0
230
1
0
CIRCLE
5
105
100
AcDbEntity
8
0
100
AcDbCircle
10
109.99999824166298
20
65.000001713633537
30
0
40
1.4999999999999971
210
0
220
0
230
1
0
CIRCLE
5
106
100
AcDbEntity
8
0
100
AcDbCircle
10
114.99999824166298
20
65.000001713633537
30
0
40
1.4999999999999971
210
0
220
0
230
1
0
CIRCLE
5
107
100
AcDbEntity
8
0
100
AcDbCircle
10
133.00000196695328
20
12.500001654028896
30
0
40
1.25
210
0
220
-0
230
1
0
CIRCLE
5
108
100
AcDbEntity
8
0
100
AcDbCircle
10
92.499998241662979
20
60.000001713633537
30
0
40
1.4999999999999971
210
0
220
0
230
1
0
CIRCLE
5
109
100
AcDbEntity
8
0
100
AcDbCircle
10
117.49999824166298
20
60.000001713633537
30
0
40
1.4999999999999971
210
0
220
0
230
1
0
CIRCLE
5
110
100
AcDbEntity
8
0
100
AcDbCircle
10
99.999998241662979
20
65.000001713633537
30
0
40
1.4999999999999971
210
0
220
0
230
1
0
CIRCLE
5
111
100
AcDbEntity
8
0
100
AcDbCircle
10
112.49999824166298
20
60.000001713633537
30
0
40
1.4999999999999971
210
0
220
0
230
1
0
CIRCLE
5
112
100
AcDbEntity
8
0
100
AcDbCircle
10
102.49999824166298
20
60.000001713633537
30
0
40
1.4999999999999971
210
0
220
0
230
1
0
CIRCLE
5
113
100
AcDbEntity
8
0
100
AcDbCircle
10
133.00000196695328
20
68.000001654028893
30
0
40
1.25
210
0
220
-0
230
1
0
CIRCLE
5
114
100
AcDbEntity
8
0
100
AcDbCircle
10
114.99999824166298
20
55.000001713633537
30
0
40
1.4999999999999971
210
0
220
0
230
1
0
CIRCLE
5
115
100
AcDbEntity
8
0
100
AcDbCircle
10
117.49999824166298
20
70.000001713633537
30
0
40
1.4999999999999971
210
0
220
0
230
1
0
CIRCLE
5
116
100
AcDbEntity
8
0
100
AcDbCircle
10
97.499998241662979
20
60.000001713633537
30
0
40
1.4999999999999971
210
0
220
0
230
1
0
LWPOLYLINE
5
117
100
AcDbEntity
8
0
100
AcDbPolyline
90
4
70
1
43
0.0
10
78.000001162290573
20
116.0000017285347
10
-78.000001162290573
20
116.0000017285347
10
-78.000001162290573
20
30.000000447034836
10
78.000001162290573
20
30.000000447034836
0
CIRCLE
5
118
100
AcDbEntity
8
0
100
AcDbCircle
10
92.499998196959496
20
47.500001728534698
30
0
40
1.25
210
0
220
-0
230
1
0
CIRCLE
5
119
100
AcDbEntity
8
0
100
AcDbCircle
10
31.999999999999993
20
126.00000189244747
30
0
40
1.2500000000000058
210
0
220
-0
230
1
0
CIRCLE
5
120
100
AcDbEntity
8
0
100
AcDbCircle
10
94.999998241662979
20
55.000001713633537
30
0
40
1.4999999999999971
210
0
220
0
230
1
0
CIRCLE
5
121
100
AcDbEntity
8
0
100
AcDbCircle
10
104.99999824166298
20
65.000001713633537
30
0
40
1.4999999999999971
210
0
220
0
230
1
0
CIRCLE
5
122
100
AcDbEntity
8
0
100
AcDbCircle
10
107.49999824166298
20
70.000001713633537
30
0
40
1.4999999999999971
210
0
220
0
230
1
0
CIRCLE
5
123
100
AcDbEntity
8
0
100
AcDbCircle
10
97.499998241662979
20
70.000001713633537
30
0
40
1.4999999999999971
210
0
220
0
230
1
0
CIRCLE
5
124
100
AcDbEntity
8
0
100
AcDbCircle
10
92.499998241662979
20
70.000001713633537
30
0
40
1.4999999999999971
210
0
220
0
230
1
0
CIRCLE
5
125
100
AcDbEntity
8
0
100
AcDbCircle
10
99.999998241662979
20
55.000001713633537
30
0
40
1.4999999999999971
210
0
220
0
230
1
0
CIRCLE
5
126
100
AcDbEntity
8
0
100
AcDbCircle
10
109.99999824166298
20
55.000001713633537
30
0
40
1.4999999999999971
210
0
220
0
230
1
0
CIRCLE
5
127
100
AcDbEntity
8
0
100
AcDbCircle
10
94.999998241662979
20
65.000001713633537
30
0
40
1.4999999999999971
210
0
220
0
230
1
0
CIRCLE
5
128
100
AcDbEntity
8
0
100
AcDbCircle
10
102.49999824166298
20
70.000001713633537
30
0
40
1.4999999999999971
210
0
220
0
230
1
0
CIRCLE
5
129
100
AcDbEntity
8
0
100
AcDbCircle
10
92.499998196959496
20
112.5000017285347
30
0
40
1.25
210
0
220
-0
230
1
0
CIRCLE
5
130
100
AcDbEntity
8
0
100
AcDbCircle
10
108.5
20
126.00000189244747
30
0
40
1.2500000000000067
210
0
220
-0
230
1
0
CIRCLE
5
131
100
AcDbEntity
8
0
100
AcDbCircle
10
107.49999824166298
20
100.00000171363354
30
0
40
1.4999999999999971
210
0
220
0
230
1
0
CIRCLE
5
132
100
AcDbEntity
8
0
100
AcDbCircle
10
112.49999824166298
20
80.000001713633537
30
0
40
1.4999999999999971
210
0
220
0
230
1
0
LWPOLYLINE
5
133
100
AcDbEntity
8
0
100
AcDbPolyline
90
8
70
1
43
0.0
10
135.99999998509884
20
-66.000000000000014
10
135.99999998509884
20
120
42
0.41421356237309509
10
127.00000000000001
20
128.99999998509884
10
-127.00000000000001
20
128.99999998509884
42
0.41421356237309509
10
-135.99999998509884
20
120.00000000000001
10
-135.99999998509884
20
-66
42
0.41421356237309509
10
-107
20
-94.999999985098853
10
107
20
-94.999999985098853
42
0.41421356237309509
0
CIRCLE
5
134
100
AcDbEntity
8
0
100
AcDbCircle
10
97.499998241662979
20
80.000001713633537
30
0
40
1.4999999999999971
210
0
220
0
230
1
0
CIRCLE
5
135
100
AcDbEntity
8
0
100
AcDbCircle
10
94.999998241662979
20
75.000001713633537
30
0
40
1.4999999999999971
210
0
220
0
230
1
0
CIRCLE
5
136
100
AcDbEntity
8
0
100
AcDbCircle
10
99.999998241662979
20
95.000001713633537
30
0
40
1.4999999999999971
210
0
220
0
230
1
0
CIRCLE
5
137
100
AcDbEntity
8
0
100
AcDbCircle
10
104.99999824166298
20
75.000001713633537
30
0
40
1.4999999999999971
210
0
220
0
230
1
0
CIRCLE
5
138
100
AcDbEntity
8
0
100
AcDbCircle
10
107.49999824166298
20
80.000001713633537
30
0
40
1.4999999999999971
210
0
220
0
230
1
0
CIRCLE
5
139
100
AcDbEntity
8
0
100
AcDbCircle
10
104.99999824166298
20
95.000001713633537
30
0
40
1.4999999999999971
210
0
220
0
230
1
0
CIRCLE
5
140
100
AcDbEntity
8
0
100
AcDbCircle
10
94.999998241662979
20
95.000001713633537
30
0
40
1.4999999999999971
210
0
220
0
230
1
0
CIRCLE
5
141
100
AcDbEntity
8
0
100
AcDbCircle
10
117.49999824166298
20
80.000001713633537
30
0
40
1.4999999999999971
210
0
220
0
230
1
0
CIRCLE
5
142
100
AcDbEntity
8
0
100
AcDbCircle
10
112.49999824166298
20
90.000001713633537
30
0
40
1.4999999999999971
210
0
220
0
230
1
0
CIRCLE
5
143
100
AcDbEntity
8
0
100
AcDbCircle
10
92.499998241662979
20
90.000001713633537
30
0
40
1.4999999999999971
210
0
220
0
230
1
0
CIRCLE
5
144
100
AcDbEntity
8
0
100
AcDbCircle
10
31.999999999999993
20
-91.999998107552528
30
0
40
1.2499999999999978
210
0
220
-0
230
1
0
CIRCLE
5
145
100
AcDbEntity
8
0
100
AcDbCircle
10
-115.00000175833702
20
55.000001713633537
30
0
40
1.4999999999999971
210
0
220
0
230
1
0
LWPOLYLINE
5
146
100
AcDbEntity
8
0
100
AcDbPolyline
90
14
70
1
43
0.0
10
-90.40395793806718
20
-50.730575519298924
10
-92.764837131536964
20
-67.517995169324536
42
0.41421356237307405
10
-91.913845169065155
20
-68.647513951730744
10
-35.516457368058489
20
-76.578894842970925
42
0.41341459383097251
10
-34.387322268452579
20
-75.730604388915864
10
-23.558084848075271
20
-0.22212197765905536
42
0.41546904626505626
10
-24.410234100448911
20
0.91031380363491232
10
-101.92796982901847
20
11.688956462989823
10
-123.02140574679959
20
13.243615636007496
42
0.41489661842355857
10
-124.09237341362996
20
12.317499377540573
10
-128.17191590872235
20
-44.851253308329447
42
0.41568772883309002
10
-127.24061236906364
20
-45.920240990095508
10
-107.98051137764568
20
-47.197288078911456
10
-91.251956956285994
20
-49.601482260476892
42
-0.41332841032887152
0
CIRCLE
5
147
100
AcDbEntity
8
0
100
AcDbCircle
10
-100.00000175833702
20
75.000001713633537
30
0
40
1.4999999999999971
210
0
220
0
230
1
0
CIRCLE
5
148
100
AcDbEntity
8
0
100
AcDbCircle
10
92.499998241662979
20
80.000001713633537
30
0
40
1.4999999999999971
210
0
220
0
230
1
0
CIRCLE
5
149
100
AcDbEntity
8
0
100
AcDbCircle
10
107.49999824166298
20
90.000001713633537
30
0
40
1.4999999999999971
210
0
220
0
230
1
0
CIRCLE
5
150
100
AcDbEntity
8
0
100
AcDbCircle
10
117.49999824166298
20
90.000001713633537
30
0
40
1.4999999999999971
210
0
220
0
230
1
0
CIRCLE
5
151
100
AcDbEntity
8
0
100
AcDbCircle
10
133.00000196695328
20
88.000001654028893
30
0
40
1.2500000000000018
210
0
220
-0
230
1
0
LWPOLYLINE
5
152
100
AcDbEntity
8
0
100
AcDbPolyline
90
8
70
1
43
0.0
10
-95.5
20
19.500000000000039
42
-0.41421356237309509
10
-96.000000000000028
20
19.000000000000011
10
-113.99999999999999
20
19.000000000000011
42
-0.41421356237309509
10
-114.50000000000001
20
19.500000000000036
10
-114.50000000000001
20
36.500000000000007
42
-0.41421356237306384
10
-114
20
37
10
-96.000000000000028
20
37
42
-0.41421356237309509
10
-95.5
20
36.499999999999972
0
CIRCLE
5
153
100
AcDbEntity
8
0
100
AcDbCircle
10
-132.99999803304675
20
12.500001654028896
30
0
40
1.2500000000000044
210
0
220
-0
230
1
0
CIRCLE
5
154
100
AcDbEntity
8
0
100
AcDbCircle
10
112.49999824166298
20
100.00000171363354
30
0
40
1.4999999999999971
210
0
220
0
230
1
0
CIRCLE
5
155
100
AcDbEntity
8
0
100
AcDbCircle
10
-32
20
-91.999998107552528
30
0
40
1.25
210
0
220
-0
230
1
0
CIRCLE
5
156
100
AcDbEntity
8
0
100
AcDbCircle
10
102.49999824166298
20
80.000001713633537
30
0
40
1.4999999999999971
210
0
220
0
230
1
0
CIRCLE
5
157
100
AcDbEntity
8
0
100
AcDbCircle
10
-92.500001758337021
20
100.00000171363354
30
0
40
1.4999999999999971
210
0
220
0
230
1
0
CIRCLE
5
158
100
AcDbEntity
8
0
100
AcDbCircle
10
-102.50000175833702
20
60.000001713633537
30
0
40
1.4999999999999971
210
0
220
0
230
1
0
CIRCLE
5
159
100
AcDbEntity
8
0
100
AcDbCircle
10
-92.500001758337021
20
60.000001713633537
30
0
40
1.4999999999999971
210
0
220
0
230
1
0
CIRCLE
5
160
100
AcDbEntity
8
0
100
AcDbCircle
10
-102.50000175833702
20
90.000001713633537
30
0
40
1.4999999999999971
210
0
220
0
230
1
0
CIRCLE
5
161
100
AcDbEntity
8
0
100
AcDbCircle
10
-102.50000175833702
20
70.000001713633537
30
0
40
1.4999999999999971
210
0
220
0
230
1
0
CIRCLE
5
162
100
AcDbEntity
8
0
100
AcDbCircle
10
-102.50000175833702
20
80.000001713633537
30
0
40
1.4999999999999971
210
0
220
0
230
1
0
CIRCLE
5
163
100
AcDbEntity
8
0
100
AcDbCircle
10
-102.50000175833702
20
100.00000171363354
30
0
40
1.4999999999999971
210
0
220
0
230
1
0
CIRCLE
5
164
100
AcDbEntity
8
0
100
AcDbCircle
10
-97.500001758337021
20
70.000001713633537
30
0
40
1.4999999999999971
210
0
220
0
230
1
0
CIRCLE
5
165
100
AcDbEntity
8
0
100
AcDbCircle
10
-112.50000175833702
20
60.000001713633537
30
0
40
1.4999999999999971
210
0
220
0
230
1
0
CIRCLE
5
166
100
AcDbEntity
8
0
100
AcDbCircle
10
-112.50000175833702
20
80.000001713633537
30
0
40
1.4999999999999971
210
0
220
0
230
1
0
CIRCLE
5
167
100
AcDbEntity
8
0
100
AcDbCircle
10
-105.00000175833702
20
85.000001713633537
30
0
40
1.4999999999999971
210
0
220
0
230
1
0
CIRCLE
5
168
100
AcDbEntity
8
0
100
AcDbCircle
10
-132.99999803304675
20
68.000001654028893
30
0
40
1.2500000000000064
210
0
220
-0
230
1
0
CIRCLE
5
169
100
AcDbEntity
8
0
100
AcDbCircle
10
-100.00000175833702
20
65.000001713633537
30
0
40
1.4999999999999971
210
0
220
0
230
1
0
CIRCLE
5
170
100
AcDbEntity
8
0
100
AcDbCircle
10
-115.00000175833702
20
95.000001713633537
30
0
40
1.4999999999999971
210
0
220
0
230
1
0
CIRCLE
5
171
100
AcDbEntity
8
0
100
AcDbCircle
10
-105.00000175833702
20
105.00000171363354
30
0
40
1.4999999999999971
210
0
220
0
230
1
0
CIRCLE
5
172
100
AcDbEntity
8
0
100
AcDbCircle
10
-130.00000193715096
20
125.00000186264515
30
0
40
1.25
210
0
220
-0
230
1
0
CIRCLE
5
173
100
AcDbEntity
8
0
100
AcDbCircle
10
-110.00000175833702
20
95.000001713633537
30
0
40
1.4999999999999971
210
0
220
0
230
1
0
CIRCLE
5
174
100
AcDbEntity
8
0
100
AcDbCircle
10
-105.00000175833702
20
75.000001713633537
30
0
40
1.4999999999999971
210
0
220
0
230
1
0
CIRCLE
5
175
100
AcDbEntity
8
0
100
AcDbCircle
10
-115.00000175833702
20
65.000001713633537
30
0
40
1.4999999999999971
210
0
220
0
230
1
0
CIRCLE
5
176
100
AcDbEntity
8
0
100
AcDbCircle
10
-100.00000175833702
20
95.000001713633537
30
0
40
1.4999999999999971
210
0
220
0
230
1
0
CIRCLE
5
177
100
AcDbEntity
8
0
100
AcDbCircle
10
-115.00000175833702
20
85.000001713633537
30
0
40
1.4999999999999971
210
0
220
0
230
1
0
CIRCLE
5
178
100
AcDbEntity
8
0
100
AcDbCircle
10
-115.00000175833702
20
105.00000171363354
30
0
40
1.4999999999999971
210
0
220
0
230
1
0
CIRCLE
5
179
100
AcDbEntity
8
0
100
AcDbCircle
10
-32
20
126.00000189244747
30
0
40
1.2500000000000024
210
0
220
-0
230
1
0
CIRCLE
5
180
100
AcDbEntity
8
0
100
AcDbCircle
10
0
20
-65
30
0
40
14.500000000000004
210
0
220
0
230
1
0
CIRCLE
5
181
100
AcDbEntity
8
0
100
AcDbCircle
10
99.999998241662979
20
75.000001713633537
30
0
40
1.4999999999999971
210
0
220
0
230
1
0
CIRCLE
5
182
100
AcDbEntity
8
0
100
AcDbCircle
10
114.99999824166298
20
75.000001713633537
30
0
40
1.4999999999999971
210
0
220
0
230
1
0
CIRCLE
5
183
100
AcDbEntity
8
0
100
AcDbCircle
10
102.49999824166298
20
90.000001713633537
30
0
40
1.4999999999999971
210
0
220
0
230
1
0
CIRCLE
5
184
100
AcDbEntity
8
0
100
AcDbCircle
10
114.99999824166298
20
95.000001713633537
30
0
40
1.4999999999999971
210
0
220
0
230
1
0
CIRCLE
5
185
100
AcDbEntity
8
0
100
AcDbCircle
10
109.99999824166298
20
85.000001713633537
30
0
40
1.4999999999999971
210
0
220
0
230
1
0
CIRCLE
5
186
100
AcDbEntity
8
0
100
AcDbCircle
10
128.00000193715096
20
-80.999998137354851
30
0
40
1.25
210
0
220
-0
230
1
0
LINE
5
187
100
AcDbEntity
8
0
100
AcDbLine
10
89.816564956285688
20
-69.143835469123658
30
0
11
93.463143672210521
21
-68.641388516174885
31
0
0
CIRCLE
5
188
100
AcDbEntity
8
0
100
AcDbCircle
10
104.99999824166298
20
85.000001713633537
30
0
40
1.4999999999999971
210
0
220
0
230
1
0
CIRCLE
5
189
100
AcDbEntity
8
0
100
AcDbCircle
10
114.99999824166298
20
105.00000171363354
30
0
40
1.4999999999999971
210
0
220
0
230
1
0
CIRCLE
5
190
100
AcDbEntity
8
0
100
AcDbCircle
10
102.49999824166298
20
100.00000171363354
30
0
40
1.4999999999999971
210
0
220
0
230
1
0
CIRCLE
5
191
100
AcDbEntity
8
0
100
AcDbCircle
10
-95.000001758337021
20
65.000001713633537
30
0
40
1.4999999999999971
210
0
220
0
230
1
0
CIRCLE
5
192
100
AcDbEntity
8
0
100
AcDbCircle
10
-127.99999806284907
20
-80.999998137354851
30
0
40
1.25
210
0
220
-0
230
1
0
CIRCLE
5
193
100
AcDbEntity
8
0
100
AcDbCircle
10
109.99999824166298
20
75.000001713633537
30
0
40
1.4999999999999971
210
0
220
0
230
1
0
CIRCLE
5
194
100
AcDbEntity
8
0
100
AcDbCircle
10
-105.00000175833702
20
65.000001713633537
30
0
40
1.4999999999999971
210
0
220
0
230
1
0
CIRCLE
5
195
100
AcDbEntity
8
0
100
AcDbCircle
10
-132.99999803304675
20
-34.000000000000014
30
0
40
1.25
210
0
220
-0
230
1
0
CIRCLE
5
196
100
AcDbEntity
8
0
100
AcDbCircle
10
97.499998241662979
20
90.000001713633537
30
0
40
1.4999999999999971
210
0
220
0
230
1
0
CIRCLE
5
197
100
AcDbEntity
8
0
100
AcDbCircle
10
109.99999824166298
20
95.000001713633537
30
0
40
1.4999999999999971
210
0
220
0
230
1
0
CIRCLE
5
198
100
AcDbEntity
8
0
100
AcDbCircle
10
99.999998241662979
20
105.00000171363354
30
0
40
1.4999999999999971
210
0
220
0
230
1
0
CIRCLE
5
199
100
AcDbEntity
8
0
100
AcDbCircle
10
109.99999824166298
20
105.00000171363354
30
0
40
1.4999999999999971
210
0
220
0
230
1
0
CIRCLE
5
200
100
AcDbEntity
8
0
100
AcDbCircle
10
130.00000193715096
20
125.00000186264515
30
0
40
1.25
210
0
220
-0
230
1
0
CIRCLE
5
201
100
AcDbEntity
8
0
100
AcDbCircle
10
92.499998241662979
20
100.00000171363354
30
0
40
1.4999999999999971
210
0
220
0
230
1
0
CIRCLE
5
202
100
AcDbEntity
8
0
100
AcDbCircle
10
104.99999824166298
20
105.00000171363354
30
0
40
1.4999999999999971
210
0
220
0
230
1
0
CIRCLE
5
203
100
AcDbEntity
8
0
100
AcDbCircle
10
-117.50000175833702
20
90.000001713633537
30
0
40
1.4999999999999971
210
0
220
0
230
1
0
CIRCLE
5
204
100
AcDbEntity
8
0
100
AcDbCircle
10
-117.50000175833702
20
100.00000171363354
30
0
40
1.4999999999999971
210
0
220
0
230
1
0
CIRCLE
5
205
100
AcDbEntity
8
0
100
AcDbCircle
10
-92.500001758337021
20
80.000001713633537
30
0
40
1.4999999999999971
210
0
220
0
230
1
0
CIRCLE
5
206
100
AcDbEntity
8
0
100
AcDbCircle
10
-100.00000175833702
20
55.000001713633537
30
0
40
1.4999999999999971
210
0
220
0
230
1
0
CIRCLE
5
207
100
AcDbEntity
8
0
100
AcDbCircle
10
-100.00000175833702
20
105.00000171363354
30
0
40
1.4999999999999971
210
0
220
0
230
1
0
CIRCLE
5
208
100
AcDbEntity
8
0
100
AcDbCircle
10
-117.50000175833702
20
70.000001713633537
30
0
40
1.4999999999999971
210
0
220
0
230
1
0
CIRCLE
5
209
100
AcDbEntity
8
0
100
AcDbCircle
10
-110.00000175833702
20
65.000001713633537
30
0
40
1.4999999999999971
210
0
220
0
230
1
0
CIRCLE
5
210
100
AcDbEntity
8
0
100
AcDbCircle
10
-92.500001803040504
20
112.5000017285347
30
0
40
1.2500000000000044
210
0
220
-0
230
1
0
CIRCLE
5
211
100
AcDbEntity
8
0
100
AcDbCircle
10
-100.00000175833702
20
85.000001713633537
30
0
40
1.4999999999999971
210
0
220
0
230
1
0
CIRCLE
5
212
100
AcDbEntity
8
0
100
AcDbCircle
10
-97.500001758337021
20
60.000001713633537
30
0
40
1.4999999999999971
210
0
220
0
230
1
0
CIRCLE
5
213
100
AcDbEntity
8
0
100
AcDbCircle
10
-112.50000175833702
20
70.000001713633537
30
0
40
1.4999999999999971
210
0
220
0
230
1
0
CIRCLE
5
214
100
AcDbEntity
8
0
100
AcDbCircle
10
-107.50000175833702
20
90.000001713633537
30
0
40
1.4999999999999971
210
0
220
0
230
1
0
CIRCLE
5
215
100
AcDbEntity
8
0
100
AcDbCircle
10
-132.99999803304675
20
88.000001654028893
30
0
40
1.2499999999999984
210
0
220
-0
230
1
0
CIRCLE
5
216
100
AcDbEntity
8
0
100
AcDbCircle
10
-95.000001758337021
20
85.000001713633537
30
0
40
1.4999999999999971
210
0
220
0
230
1
0
CIRCLE
5
217
100
AcDbEntity
8
0
100
AcDbCircle
10
-107.50000175833702
20
100.00000171363354
30
0
40
1.4999999999999971
210
0
220
0
230
1
0
CIRCLE
5
218
100
AcDbEntity
8
0
100
AcDbCircle
10
-97.500001758337021
20
100.00000171363354
30
0
40
1.4999999999999971
210
0
220
0
230
1
0
CIRCLE
5
219
100
AcDbEntity
8
0
100
AcDbCircle
10
-95.000001758337021
20
95.000001713633537
30
0
40
1.4999999999999971
210
0
220
0
230
1
0
CIRCLE
5
220
100
AcDbEntity
8
0
100
AcDbCircle
10
-117.50000175833702
20
80.000001713633537
30
0
40
1.4999999999999971
210
0
220
0
230
1
0
CIRCLE
5
221
100
AcDbEntity
8
0
100
AcDbCircle
10
-105.00000175833702
20
55.000001713633537
30
0
40
1.4999999999999971
210
0
220
0
230
1
0
CIRCLE
5
222
100
AcDbEntity
8
0
100
AcDbCircle
10
-107.50000175833702
20
80.000001713633537
30
0
40
1.4999999999999971
210
0
220
0
230
1
0
CIRCLE
5
223
100
AcDbEntity
8
0
100
AcDbCircle
10
-97.500001758337021
20
90.000001713633537
30
0
40
1.4999999999999971
210
0
220
0
230
1
0
CIRCLE
5
224
100
AcDbEntity
8
0
100
AcDbCircle
10
-92.500001758337021
20
90.000001713633537
30
0
40
1.4999999999999971
210
0
220
0
230
1
0
CIRCLE
5
225
100
AcDbEntity
8
0
100
AcDbCircle
10
-110.00000175833702
20
55.000001713633537
30
0
40
1.4999999999999971
210
0
220
0
230
1
0
CIRCLE
5
226
100
AcDbEntity
8
0
100
AcDbCircle
10
-95.000001758337021
20
105.00000171363354
30
0
40
1.4999999999999971
210
0
220
0
230
1
0
CIRCLE
5
227
100
AcDbEntity
8
0
100
AcDbCircle
10
-110.00000175833702
20
105.00000171363354
30
0
40
1.4999999999999971
210
0
220
0
230
1
0
CIRCLE
5
228
100
AcDbEntity
8
0
100
AcDbCircle
10
-115.00000175833702
20
75.000001713633537
30
0
40
1.4999999999999971
210
0
220
0
230
1
0
CIRCLE
5
229
100
AcDbEntity
8
0
100
AcDbCircle
10
-95.000001758337021
20
55.000001713633537
30
0
40
1.4999999999999971
210
0
220
0
230
1
0
CIRCLE
5
230
100
AcDbEntity
8
0
100
AcDbCircle
10
-105.00000175833702
20
95.000001713633537
30
0
40
1.4999999999999971
210
0
220
0
230
1
0
CIRCLE
5
231
100
AcDbEntity
8
0
100
AcDbCircle
10
-107.50000175833702
20
60.000001713633537
30
0
40
1.4999999999999971
210
0
220
0
230
1
0
CIRCLE
5
232
100
AcDbEntity
8
0
100
AcDbCircle
10
-95.000001758337021
20
75.000001713633537
30
0
40
1.4999999999999971
210
0
220
0
230
1
0
CIRCLE
5
233
100
AcDbEntity
8
0
100
AcDbCircle
10
-107.50000175833702
20
70.000001713633537
30
0
40
1.4999999999999971
210
0
220
0
230
1
0
CIRCLE
5
234
100
AcDbEntity
8
0
100
AcDbCircle
10
-117.5000018030405
20
47.500001728534698
30
0
40
1.25
210
0
220
-0
230
1
0
CIRCLE
5
235
100
AcDbEntity
8
0
100
AcDbCircle
10
-110.00000175833702
20
75.000001713633537
30
0
40
1.4999999999999971
210
0
220
0
230
1
0
CIRCLE
5
236
100
AcDbEntity
8
0
100
AcDbCircle
10
-110.00000175833702
20
85.000001713633537
30
0
40
1.4999999999999971
210
0
220
0
230
1
0
CIRCLE
5
237
100
AcDbEntity
8
0
100
AcDbCircle
10
-117.5000018030405
20
112.5000017285347
30
0
40
1.25
210
0
220
-0
230
1
0
CIRCLE
5
238
100
AcDbEntity
8
0
100
AcDbCircle
10
-117.50000175833702
20
60.000001713633537
30
0
40
1.4999999999999971
210
0
220
0
230
1
0
CIRCLE
5
239
100
AcDbEntity
8
0
100
AcDbCircle
10
-112.50000175833702
20
90.000001713633537
30
0
40
1.4999999999999971
210
0
220
0
230
1
0
CIRCLE
5
240
100
AcDbEntity
8
0
100
AcDbCircle
10
-112.50000175833702
20
100.00000171363354
30
0
40
1.4999999999999971
210
0
220
0
230
1
0
CIRCLE
5
241
100
AcDbEntity
8
0
100
AcDbCircle
10
108.5
20
-91.999998107552528
30
0
40
1.25
210
0
220
-0
230
1
0
CIRCLE
5
242
100
AcDbEntity
8
0
100
AcDbCircle
10
94.999998241662979
20
105.00000171363354
30
0
40
1.4999999999999971
210
0
220
0
230
1
0
CIRCLE
5
243
100
AcDbEntity
8
0
100
AcDbCircle
10
97.499998241662979
20
100.00000171363354
30
0
40
1.4999999999999971
210
0
220
0
230
1
0
CIRCLE
5
244
100
AcDbEntity
8
0
100
AcDbCircle
10
117.49999824166298
20
100.00000171363354
30
0
40
1.4999999999999971
210
0
220
0
230
1
0
CIRCLE
5
245
100
AcDbEntity
8
0
100
AcDbCircle
10
94.999998241662979
20
85.000001713633537
30
0
40
1.4999999999999971
210
0
220
0
230
1
0
CIRCLE
5
246
100
AcDbEntity
8
0
100
AcDbCircle
10
99.999998241662979
20
85.000001713633537
30
0
40
1.4999999999999971
210
0
220
0
230
1
0
CIRCLE
5
247
100
AcDbEntity
8
0
100
AcDbCircle
10
117.4999981969595
20
112.5000017285347
30
0
40
1.2500000000000044
210
0
220
-0
230
1
0
CIRCLE
5
248
100
AcDbEntity
8
0
100
AcDbCircle
10
114.99999824166298
20
85.000001713633537
30
0
40
1.4999999999999971
210
0
220
0
230
1
0
CIRCLE
5
249
100
AcDbEntity
8
0
100
AcDbCircle
10
-92.500001803040504
20
47.500001728534698
30
0
40
1.2500000000000044
210
0
220
-0
230
1
0
CIRCLE
5
250
100
AcDbEntity
8
0
100
AcDbCircle
10
-97.500001758337021
20
80.000001713633537
30
0
40
1.4999999999999971
210
0
220
0
230
1
0
CIRCLE
5
251
100
AcDbEntity
8
0
100
AcDbCircle
10
-108.5
20
-91.999998107552528
30
0
40
1.25
210
0
220
-0
230
1
0
CIRCLE
5
252
100
AcDbEntity
8
0
100
AcDbCircle
10
-92.500001758337021
20
70.000001713633537
30
0
40
1.4999999999999971
210
0
220
0
230
1
0
CIRCLE
5
253
100
AcDbEntity
8
0
100
AcDbCircle
10
-108.5
20
126.00000189244747
30
0
40
1.2499999999999973
210
0
220
-0
230
1
0
ENDSEC
0
SECTION
2
OBJECTS
0
DICTIONARY
5
C
100
AcDbDictionary
3
ACAD_GROUP
350
D
3
ACAD_MLINESTYLE
350
17
0
DICTIONARY
5
D
100
AcDbDictionary
0
DICTIONARY
5
1A
330
C
100
AcDbDictionary
0
DICTIONARY
5
17
100
AcDbDictionary
0
ENDSEC
0
EOF
