0
SECTION
2
HEADER
9
$INSUNITS
70
4
9
$ACADVER
1
AC1014
9
$HANDSEED
5
FFFF
0
ENDSEC
0
SECTION
2
TABLES
0
TABLE
2
VPORT
5
8
100
AcDbSymbolTable
0
ENDTAB
0
TABLE
2
LTYPE
5
5
100
AcDbSymbolTable
0
LTYPE
5
14
100
AcDbSymbolTableRecord
100
AcDbLinetypeTableRecord
2
BYBLOCK
70
0
0
LTYPE
5
15
100
AcDbSymbolTableRecord
100
AcDbLinetypeTableRecord
2
BYLAYER
70
0
0
ENDTAB
0
TABLE
2
LAYER
5
2
100
AcDbSymbolTable
70
2
0
LAYER
5
50
100
AcDbSymbolTableRecord
100
AcDbLayerTableRecord
2
0
70
0
6
CONTINUOUS
0
ENDTAB
0
TABLE
2
STYLE
5
3
100
AcDbSymbolTable
70
1
0
STYLE
5
11
100
AcDbSymbolTableRecord
100
AcDbTextStyleTableRecord
2
STANDARD
70
0
0
ENDTAB
0
TABLE
2
VIEW
5
6
100
AcDbSymbolTable
70
0
0
ENDTAB
0
TABLE
2
UCS
5
7
100
AcDbSymbolTable
70
0
0
ENDTAB
0
TABLE
2
APPID
5
9
100
AcDbSymbolTable
70
2
0
APPID
5
12
100
AcDbSymbolTableRecord
100
AcDbRegAppTableRecord
2
ACAD
70
0
0
ENDTAB
0
TABLE
2
DIMSTYLE
5
A
100
AcDbSymbolTable
70
1
0
ENDTAB
0
TABLE
2
BLOCK_RECORD
5
1
100
AcDbSymbolTable
70
1
0
BLOCK_RECORD
5
1F
100
AcDbSymbolTableRecord
100
AcDbBlockTableRecord
2
*MODEL_SPACE
0
BLOCK_RECORD
5
1B
100
AcDbSymbolTableRecord
100
AcDbBlockTableRecord
2
*PAPER_SPACE
0
ENDTAB
0
ENDSEC
0
SECTION
2
BLOCKS
0
BLOCK
5
20
100
AcDbEntity
100
AcDbBlockBegin
2
*MODEL_SPACE
0
ENDBLK
5
21
100
AcDbEntity
100
AcDbBlockEnd
0
BLOCK
5
1C
100
AcDbEntity
100
AcDbBlockBegin
2
*PAPER_SPACE
0
ENDBLK
5
1D
100
AcDbEntity
100
AcDbBlockEnd
0
ENDSEC
0
SECTION
2
ENTITIES
0
LWPOLYLINE
5
100
100
AcDbEntity
8
0
100
AcDbPolyline
90
8
70
1
43
0.0
10
-107
20
-95.000000000000014
42
-0.41421356237309509
10
-136
20
-66
10
-136
20
120
42
-0.41421356237309509
10
-127.00000000000001
20
129
10
127.00000000000001
20
129
42
-0.41421356237309509
10
136
20
120
10
136
20
-66
42
-0.41421356237309509
10
107
20
-95.000000000000014
0
CIRCLE
5
101
100
AcDbEntity
8
0
100
AcDbCircle
10
-130.00000193715096
20
125.00000186264515
30
0
40
1.25
210
0
220
-0
230
1
0
CIRCLE
5
102
100
AcDbEntity
8
0
100
AcDbCircle
10
-108.5
20
126.00000189244747
30
0
40
1.2499999999999973
210
0
220
-0
230
1
0
CIRCLE
5
103
100
AcDbEntity
8
0
100
AcDbCircle
10
-132.99999803304675
20
88.000001654028893
30
0
40
1.2499999999999984
210
0
220
-0
230
1
0
CIRCLE
5
104
100
AcDbEntity
8
0
100
AcDbCircle
10
-132.99999803304675
20
68.000001654028893
30
0
40
1.2500000000000064
210
0
220
-0
230
1
0
CIRCLE
5
105
100
AcDbEntity
8
0
100
AcDbCircle
10
-132.99999803304675
20
12.500001654028896
30
0
40
1.2500000000000044
210
0
220
-0
230
1
0
CIRCLE
5
106
100
AcDbEntity
8
0
100
AcDbCircle
10
-132.99999803304675
20
-34.000000000000014
30
0
40
1.25
210
0
220
-0
230
1
0
CIRCLE
5
107
100
AcDbEntity
8
0
100
AcDbCircle
10
-127.99999806284907
20
-80.999998137354851
30
0
40
1.25
210
0
220
-0
230
1
0
CIRCLE
5
108
100
AcDbEntity
8
0
100
AcDbCircle
10
-108.5
20
-91.999998107552528
30
0
40
1.25
210
0
220
-0
230
1
0
CIRCLE
5
109
100
AcDbEntity
8
0
100
AcDbCircle
10
-32
20
-91.999998107552528
30
0
40
1.25
210
0
220
-0
230
1
0
CIRCLE
5
110
100
AcDbEntity
8
0
100
AcDbCircle
10
31.999999999999993
20
-91.999998107552528
30
0
40
1.2499999999999978
210
0
220
-0
230
1
0
CIRCLE
5
111
100
AcDbEntity
8
0
100
AcDbCircle
10
108.5
20
-91.999998107552528
30
0
40
1.25
210
0
220
-0
230
1
0
CIRCLE
5
112
100
AcDbEntity
8
0
100
AcDbCircle
10
128.00000193715096
20
-80.999998137354851
30
0
40
1.25
210
0
220
-0
230
1
0
CIRCLE
5
113
100
AcDbEntity
8
0
100
AcDbCircle
10
133.00000196695328
20
12.500001654028896
30
0
40
1.25
210
0
220
-0
230
1
0
CIRCLE
5
114
100
AcDbEntity
8
0
100
AcDbCircle
10
133.00000196695328
20
68.000001654028893
30
0
40
1.25
210
0
220
-0
230
1
0
CIRCLE
5
115
100
AcDbEntity
8
0
100
AcDbCircle
10
133.00000196695328
20
88.000001654028893
30
0
40
1.2500000000000018
210
0
220
-0
230
1
0
CIRCLE
5
116
100
AcDbEntity
8
0
100
AcDbCircle
10
130.00000193715096
20
125.00000186264515
30
0
40
1.25
210
0
220
-0
230
1
0
CIRCLE
5
117
100
AcDbEntity
8
0
100
AcDbCircle
10
108.5
20
126.00000189244747
30
0
40
1.2500000000000067
210
0
220
-0
230
1
0
CIRCLE
5
118
100
AcDbEntity
8
0
100
AcDbCircle
10
31.999999999999993
20
126.00000189244747
30
0
40
1.2500000000000058
210
0
220
-0
230
1
0
CIRCLE
5
119
100
AcDbEntity
8
0
100
AcDbCircle
10
-32
20
126.00000189244747
30
0
40
1.2500000000000024
210
0
220
-0
230
1
0
CIRCLE
5
120
100
AcDbEntity
8
0
100
AcDbCircle
10
-15.500000230967999
20
17.500000260770321
30
0
40
1.5000000000000009
210
0
220
0
230
1
0
CIRCLE
5
121
100
AcDbEntity
8
0
100
AcDbCircle
10
-97.999997809529305
20
46.199998967349529
30
0
40
1.4999999999999993
210
0
220
0
230
1
0
CIRCLE
5
122
100
AcDbEntity
8
0
100
AcDbCircle
10
-97.500001452863216
20
113.80000169873239
30
0
40
1.5000000000000027
210
0
220
0
230
1
0
CIRCLE
5
123
100
AcDbEntity
8
0
100
AcDbCircle
10
124.19999719932676
20
108.99999737367034
30
0
40
1.5000000000000071
210
0
220
0
230
1
0
CIRCLE
5
124
100
AcDbEntity
8
0
100
AcDbCircle
10
124.09999722614884
20
45.099998991936445
30
0
40
1.4999999999999989
210
0
220
0
230
1
0
CIRCLE
5
125
100
AcDbEntity
8
0
100
AcDbCircle
10
6.0999998636543751
20
10.199999772012234
30
0
40
1.5000000000000004
210
0
220
0
230
1
0
CIRCLE
5
126
100
AcDbEntity
8
0
100
AcDbCircle
10
-105.40999764412641
20
-0.94999998211860659
30
0
40
1.5000000000000002
210
0
220
0
230
1
0
CIRCLE
5
127
100
AcDbEntity
8
0
100
AcDbCircle
10
127.59999714568258
20
-0.84999998323619375
30
0
40
1.5000000000000038
210
0
220
0
230
1
0
CIRCLE
5
128
100
AcDbEntity
8
0
100
AcDbCircle
10
-126.50000152736901
20
27.00000037252903
30
0
40
1.5000000000000053
210
0
220
0
230
1
0
CIRCLE
5
129
100
AcDbEntity
8
0
100
AcDbCircle
10
-44.00000062584877
20
-82.000001192092896
30
0
40
1.4999999999999971
210
0
220
0
230
1
0
CIRCLE
5
130
100
AcDbEntity
8
0
100
AcDbCircle
10
12.999999374151233
20
-82.000001192092896
30
0
40
1.4999999999999971
210
0
220
0
230
1
0
CIRCLE
5
131
100
AcDbEntity
8
0
100
AcDbCircle
10
66.999999374151244
20
-82.000001192092896
30
0
40
1.4999999999999971
210
0
220
0
230
1
0
CIRCLE
5
132
100
AcDbEntity
8
0
100
AcDbCircle
10
-15.500000230967999
20
115.50000026077032
30
0
40
1.5000000000000009
210
0
220
0
230
1
0
CIRCLE
5
133
100
AcDbEntity
8
0
100
AcDbCircle
10
64.999998241662979
20
90.000001713633537
30
0
40
1.4999999999999971
210
0
220
0
230
1
0
CIRCLE
5
134
100
AcDbEntity
8
0
100
AcDbCircle
10
64.999998241662979
20
70.000001713633537
30
0
40
1.4999999999999971
210
0
220
0
230
1
0
CIRCLE
5
135
100
AcDbEntity
8
0
100
AcDbCircle
10
57.499998241662986
20
75.000001713633537
30
0
40
1.4999999999999971
210
0
220
0
230
1
0
CIRCLE
5
136
100
AcDbEntity
8
0
100
AcDbCircle
10
52.499998241662986
20
65.000001713633537
30
0
40
1.4999999999999971
210
0
220
0
230
1
0
CIRCLE
5
137
100
AcDbEntity
8
0
100
AcDbCircle
10
57.499998241662986
20
55.000001713633537
30
0
40
1.4999999999999971
210
0
220
0
230
1
0
CIRCLE
5
138
100
AcDbEntity
8
0
100
AcDbCircle
10
67.499998241662979
20
65.000001713633537
30
0
40
1.4999999999999971
210
0
220
0
230
1
0
CIRCLE
5
139
100
AcDbEntity
8
0
100
AcDbCircle
10
59.999998241662986
20
60.000001713633537
30
0
40
1.4999999999999971
210
0
220
0
230
1
0
CIRCLE
5
140
100
AcDbEntity
8
0
100
AcDbCircle
10
62.499998241662986
20
55.000001713633537
30
0
40
1.4999999999999971
210
0
220
0
230
1
0
CIRCLE
5
141
100
AcDbEntity
8
0
100
AcDbCircle
10
54.999998241662986
20
60.000001713633537
30
0
40
1.4999999999999971
210
0
220
0
230
1
0
CIRCLE
5
142
100
AcDbEntity
8
0
100
AcDbCircle
10
67.499998241662979
20
75.000001713633537
30
0
40
1.4999999999999971
210
0
220
0
230
1
0
CIRCLE
5
143
100
AcDbEntity
8
0
100
AcDbCircle
10
64.999998241662979
20
50.000001713633537
30
0
40
1.4999999999999971
210
0
220
0
230
1
0
CIRCLE
5
144
100
AcDbEntity
8
0
100
AcDbCircle
10
59.999998241662986
20
80.000001713633537
30
0
40
1.4999999999999971
210
0
220
0
230
1
0
CIRCLE
5
145
100
AcDbEntity
8
0
100
AcDbCircle
10
62.499998241662986
20
65.000001713633537
30
0
40
1.4999999999999971
210
0
220
0
230
1
0
CIRCLE
5
146
100
AcDbEntity
8
0
100
AcDbCircle
10
49.999998241662986
20
80.000001713633537
30
0
40
1.4999999999999971
210
0
220
0
230
1
0
CIRCLE
5
147
100
AcDbEntity
8
0
100
AcDbCircle
10
49.999998241662986
20
90.000001713633537
30
0
40
1.4999999999999971
210
0
220
0
230
1
0
CIRCLE
5
148
100
AcDbEntity
8
0
100
AcDbCircle
10
67.499998241662979
20
85.000001713633537
30
0
40
1.4999999999999971
210
0
220
0
230
1
0
CIRCLE
5
149
100
AcDbEntity
8
0
100
AcDbCircle
10
44.999998241662986
20
80.000001713633537
30
0
40
1.4999999999999971
210
0
220
0
230
1
0
CIRCLE
5
150
100
AcDbEntity
8
0
100
AcDbCircle
10
44.999998241662986
20
70.000001713633537
30
0
40
1.4999999999999971
210
0
220
0
230
1
0
CIRCLE
5
151
100
AcDbEntity
8
0
100
AcDbCircle
10
54.999998241662986
20
80.000001713633537
30
0
40
1.4999999999999971
210
0
220
0
230
1
0
CIRCLE
5
152
100
AcDbEntity
8
0
100
AcDbCircle
10
54.999998241662986
20
70.000001713633537
30
0
40
1.4999999999999971
210
0
220
0
230
1
0
CIRCLE
5
153
100
AcDbEntity
8
0
100
AcDbCircle
10
59.999998241662986
20
70.000001713633537
30
0
40
1.4999999999999971
210
0
220
0
230
1
0
CIRCLE
5
154
100
AcDbEntity
8
0
100
AcDbCircle
10
64.999998241662979
20
100.00000171363354
30
0
40
1.4999999999999971
210
0
220
0
230
1
0
CIRCLE
5
155
100
AcDbEntity
8
0
100
AcDbCircle
10
52.499998241662986
20
75.000001713633537
30
0
40
1.4999999999999971
210
0
220
0
230
1
0
CIRCLE
5
156
100
AcDbEntity
8
0
100
AcDbCircle
10
52.499998241662986
20
85.000001713633537
30
0
40
1.4999999999999971
210
0
220
0
230
1
0
CIRCLE
5
157
100
AcDbEntity
8
0
100
AcDbCircle
10
57.499998241662986
20
65.000001713633537
30
0
40
1.4999999999999971
210
0
220
0
230
1
0
CIRCLE
5
158
100
AcDbEntity
8
0
100
AcDbCircle
10
47.499998241662986
20
65.000001713633537
30
0
40
1.4999999999999971
210
0
220
0
230
1
0
CIRCLE
5
159
100
AcDbEntity
8
0
100
AcDbCircle
10
67.499998241662979
20
95.000001713633537
30
0
40
1.4999999999999971
210
0
220
0
230
1
0
CIRCLE
5
160
100
AcDbEntity
8
0
100
AcDbCircle
10
64.999998241662979
20
80.000001713633537
30
0
40
1.4999999999999971
210
0
220
0
230
1
0
CIRCLE
5
161
100
AcDbEntity
8
0
100
AcDbCircle
10
57.499998241662986
20
95.000001713633537
30
0
40
1.4999999999999971
210
0
220
0
230
1
0
CIRCLE
5
162
100
AcDbEntity
8
0
100
AcDbCircle
10
49.999998241662986
20
60.000001713633537
30
0
40
1.4999999999999971
210
0
220
0
230
1
0
CIRCLE
5
163
100
AcDbEntity
8
0
100
AcDbCircle
10
47.499998241662986
20
75.000001713633537
30
0
40
1.4999999999999971
210
0
220
0
230
1
0
CIRCLE
5
164
100
AcDbEntity
8
0
100
AcDbCircle
10
54.999998241662986
20
90.000001713633537
30
0
40
1.4999999999999971
210
0
220
0
230
1
0
CIRCLE
5
165
100
AcDbEntity
8
0
100
AcDbCircle
10
49.999998241662986
20
70.000001713633537
30
0
40
1.4999999999999971
210
0
220
0
230
1
0
CIRCLE
5
166
100
AcDbEntity
8
0
100
AcDbCircle
10
62.499998241662986
20
85.000001713633537
30
0
40
1.4999999999999971
210
0
220
0
230
1
0
CIRCLE
5
167
100
AcDbEntity
8
0
100
AcDbCircle
10
57.499998241662986
20
85.000001713633537
30
0
40
1.4999999999999971
210
0
220
0
230
1
0
CIRCLE
5
168
100
AcDbEntity
8
0
100
AcDbCircle
10
47.499998241662986
20
85.000001713633537
30
0
40
1.4999999999999971
210
0
220
0
230
1
0
CIRCLE
5
169
100
AcDbEntity
8
0
100
AcDbCircle
10
59.999998241662986
20
90.000001713633537
30
0
40
1.4999999999999971
210
0
220
0
230
1
0
CIRCLE
5
170
100
AcDbEntity
8
0
100
AcDbCircle
10
64.999998241662979
20
60.000001713633537
30
0
40
1.4999999999999971
210
0
220
0
230
1
0
CIRCLE
5
171
100
AcDbEntity
8
0
100
AcDbCircle
10
62.499998241662986
20
95.000001713633537
30
0
40
1.4999999999999971
210
0
220
0
230
1
0
CIRCLE
5
172
100
AcDbEntity
8
0
100
AcDbCircle
10
67.499998241662979
20
55.000001713633537
30
0
40
1.4999999999999971
210
0
220
0
230
1
0
CIRCLE
5
173
100
AcDbEntity
8
0
100
AcDbCircle
10
62.499998241662986
20
75.000001713633537
30
0
40
1.4999999999999971
210
0
220
0
230
1
0
CIRCLE
5
174
100
AcDbEntity
8
0
100
AcDbCircle
10
87.499998241662979
20
75.000001713633537
30
0
40
1.4999999999999971
210
0
220
0
230
1
0
CIRCLE
5
175
100
AcDbEntity
8
0
100
AcDbCircle
10
74.999998241662979
20
70.000001713633537
30
0
40
1.4999999999999971
210
0
220
0
230
1
0
CIRCLE
5
176
100
AcDbEntity
8
0
100
AcDbCircle
10
74.999998241662979
20
60.000001713633537
30
0
40
1.4999999999999971
210
0
220
0
230
1
0
CIRCLE
5
177
100
AcDbEntity
8
0
100
AcDbCircle
10
77.499998241662979
20
85.000001713633537
30
0
40
1.4999999999999971
210
0
220
0
230
1
0
CIRCLE
5
178
100
AcDbEntity
8
0
100
AcDbCircle
10
82.499998241662979
20
65.000001713633537
30
0
40
1.4999999999999971
210
0
220
0
230
1
0
CIRCLE
5
179
100
AcDbEntity
8
0
100
AcDbCircle
10
89.999998241662979
20
80.000001713633537
30
0
40
1.4999999999999971
210
0
220
0
230
1
0
CIRCLE
5
180
100
AcDbEntity
8
0
100
AcDbCircle
10
82.499998241662979
20
55.000001713633537
30
0
40
1.4999999999999971
210
0
220
0
230
1
0
CIRCLE
5
181
100
AcDbEntity
8
0
100
AcDbCircle
10
77.499998241662979
20
65.000001713633537
30
0
40
1.4999999999999971
210
0
220
0
230
1
0
CIRCLE
5
182
100
AcDbEntity
8
0
100
AcDbCircle
10
72.499998241662979
20
75.000001713633537
30
0
40
1.4999999999999971
210
0
220
0
230
1
0
CIRCLE
5
183
100
AcDbEntity
8
0
100
AcDbCircle
10
87.499998241662979
20
65.000001713633537
30
0
40
1.4999999999999971
210
0
220
0
230
1
0
CIRCLE
5
184
100
AcDbEntity
8
0
100
AcDbCircle
10
89.999998241662979
20
60.000001713633537
30
0
40
1.4999999999999971
210
0
220
0
230
1
0
CIRCLE
5
185
100
AcDbEntity
8
0
100
AcDbCircle
10
84.999998241662979
20
60.000001713633537
30
0
40
1.4999999999999971
210
0
220
0
230
1
0
CIRCLE
5
186
100
AcDbEntity
8
0
100
AcDbCircle
10
89.999998241662979
20
70.000001713633537
30
0
40
1.4999999999999971
210
0
220
0
230
1
0
CIRCLE
5
187
100
AcDbEntity
8
0
100
AcDbCircle
10
74.999998241662979
20
80.000001713633537
30
0
40
1.4999999999999971
210
0
220
0
230
1
0
CIRCLE
5
188
100
AcDbEntity
8
0
100
AcDbCircle
10
79.999998241662979
20
70.000001713633537
30
0
40
1.4999999999999971
210
0
220
0
230
1
0
CIRCLE
5
189
100
AcDbEntity
8
0
100
AcDbCircle
10
74.999998241662979
20
100.00000171363354
30
0
40
1.4999999999999971
210
0
220
0
230
1
0
CIRCLE
5
190
100
AcDbEntity
8
0
100
AcDbCircle
10
82.499998241662979
20
95.000001713633537
30
0
40
1.4999999999999971
210
0
220
0
230
1
0
CIRCLE
5
191
100
AcDbEntity
8
0
100
AcDbCircle
10
72.499998241662979
20
85.000001713633537
30
0
40
1.4999999999999971
210
0
220
0
230
1
0
CIRCLE
5
192
100
AcDbEntity
8
0
100
AcDbCircle
10
72.499998241662979
20
65.000001713633537
30
0
40
1.4999999999999971
210
0
220
0
230
1
0
CIRCLE
5
193
100
AcDbEntity
8
0
100
AcDbCircle
10
87.499998241662979
20
85.000001713633537
30
0
40
1.4999999999999971
210
0
220
0
230
1
0
CIRCLE
5
194
100
AcDbEntity
8
0
100
AcDbCircle
10
84.999998241662979
20
80.000001713633537
30
0
40
1.4999999999999971
210
0
220
0
230
1
0
CIRCLE
5
195
100
AcDbEntity
8
0
100
AcDbCircle
10
82.499998241662979
20
85.000001713633537
30
0
40
1.4999999999999971
210
0
220
0
230
1
0
CIRCLE
5
196
100
AcDbEntity
8
0
100
AcDbCircle
10
79.999998241662979
20
90.000001713633537
30
0
40
1.4999999999999971
210
0
220
0
230
1
0
CIRCLE
5
197
100
AcDbEntity
8
0
100
AcDbCircle
10
84.999998241662979
20
90.000001713633537
30
0
40
1.4999999999999971
210
0
220
0
230
1
0
CIRCLE
5
198
100
AcDbEntity
8
0
100
AcDbCircle
10
72.499998241662979
20
95.000001713633537
30
0
40
1.4999999999999971
210
0
220
0
230
1
0
CIRCLE
5
199
100
AcDbEntity
8
0
100
AcDbCircle
10
79.999998241662979
20
80.000001713633537
30
0
40
1.4999999999999971
210
0
220
0
230
1
0
CIRCLE
5
200
100
AcDbEntity
8
0
100
AcDbCircle
10
77.499998241662979
20
55.000001713633537
30
0
40
1.4999999999999971
210
0
220
0
230
1
0
CIRCLE
5
201
100
AcDbEntity
8
0
100
AcDbCircle
10
82.499998241662979
20
75.000001713633537
30
0
40
1.4999999999999971
210
0
220
0
230
1
0
CIRCLE
5
202
100
AcDbEntity
8
0
100
AcDbCircle
10
74.999998241662979
20
90.000001713633537
30
0
40
1.4999999999999971
210
0
220
0
230
1
0
CIRCLE
5
203
100
AcDbEntity
8
0
100
AcDbCircle
10
92.499998241662979
20
75.000001713633537
30
0
40
1.4999999999999971
210
0
220
0
230
1
0
CIRCLE
5
204
100
AcDbEntity
8
0
100
AcDbCircle
10
92.499998241662979
20
85.000001713633537
30
0
40
1.4999999999999971
210
0
220
0
230
1
0
CIRCLE
5
205
100
AcDbEntity
8
0
100
AcDbCircle
10
77.499998241662979
20
75.000001713633537
30
0
40
1.4999999999999971
210
0
220
0
230
1
0
CIRCLE
5
206
100
AcDbEntity
8
0
100
AcDbCircle
10
74.999998241662979
20
50.000001713633537
30
0
40
1.4999999999999971
210
0
220
0
230
1
0
CIRCLE
5
207
100
AcDbEntity
8
0
100
AcDbCircle
10
84.999998241662979
20
70.000001713633537
30
0
40
1.4999999999999971
210
0
220
0
230
1
0
CIRCLE
5
208
100
AcDbEntity
8
0
100
AcDbCircle
10
92.499998241662979
20
65.000001713633537
30
0
40
1.4999999999999971
210
0
220
0
230
1
0
CIRCLE
5
209
100
AcDbEntity
8
0
100
AcDbCircle
10
72.499998241662979
20
55.000001713633537
30
0
40
1.4999999999999971
210
0
220
0
230
1
0
CIRCLE
5
210
100
AcDbEntity
8
0
100
AcDbCircle
10
77.499998241662979
20
95.000001713633537
30
0
40
1.4999999999999971
210
0
220
0
230
1
0
CIRCLE
5
211
100
AcDbEntity
8
0
100
AcDbCircle
10
79.999998241662979
20
60.000001713633537
30
0
40
1.4999999999999971
210
0
220
0
230
1
0
CIRCLE
5
212
100
AcDbEntity
8
0
100
AcDbCircle
10
94.999998241662979
20
70.000001713633537
30
0
40
1.4999999999999971
210
0
220
0
230
1
0
CIRCLE
5
213
100
AcDbEntity
8
0
100
AcDbCircle
10
94.999998241662979
20
80.000001713633537
30
0
40
1.4999999999999971
210
0
220
0
230
1
0
CIRCLE
5
214
100
AcDbEntity
8
0
100
AcDbCircle
10
89.999998241662979
20
90.000001713633537
30
0
40
1.4999999999999971
210
0
220
0
230
1
0
CIRCLE
5
215
100
AcDbEntity
8
0
100
AcDbCircle
10
69.999998241662979
20
100.00000171363354
30
0
40
1.4999999999999971
210
0
220
0
230
1
0
CIRCLE
5
216
100
AcDbEntity
8
0
100
AcDbCircle
10
69.999998241662979
20
90.000001713633537
30
0
40
1.4999999999999971
210
0
220
0
230
1
0
CIRCLE
5
217
100
AcDbEntity
8
0
100
AcDbCircle
10
69.999998241662979
20
80.000001713633537
30
0
40
1.4999999999999971
210
0
220
0
230
1
0
CIRCLE
5
218
100
AcDbEntity
8
0
100
AcDbCircle
10
69.999998241662979
20
70.000001713633537
30
0
40
1.4999999999999971
210
0
220
0
230
1
0
CIRCLE
5
219
100
AcDbEntity
8
0
100
AcDbCircle
10
69.999998241662979
20
60.000001713633537
30
0
40
1.4999999999999971
210
0
220
0
230
1
0
CIRCLE
5
220
100
AcDbEntity
8
0
100
AcDbCircle
10
69.999998241662979
20
50.000001713633537
30
0
40
1.4999999999999971
210
0
220
0
230
1
0
CIRCLE
5
221
100
AcDbEntity
8
0
100
AcDbCircle
10
114
20
75
30
0
40
2.2499999999999951
210
0
220
0
230
1
0
CIRCLE
5
222
100
AcDbEntity
8
0
100
AcDbCircle
10
114
20
111
30
0
40
2.2499999999999951
210
0
220
0
230
1
0
CIRCLE
5
223
100
AcDbEntity
8
0
100
AcDbCircle
10
114
20
92.999999999999986
30
0
40
2.2499999999999951
210
0
220
0
230
1
0
CIRCLE
5
224
100
AcDbEntity
8
0
100
AcDbCircle
10
-114
20
75
30
0
40
2.2499999999999951
210
0
220
0
230
1
0
CIRCLE
5
225
100
AcDbEntity
8
0
100
AcDbCircle
10
-114
20
92.999999999999986
30
0
40
2.2499999999999951
210
0
220
0
230
1
0
CIRCLE
5
226
100
AcDbEntity
8
0
100
AcDbCircle
10
-114
20
111
30
0
40
2.2499999999999951
210
0
220
0
230
1
0
ENDSEC
0
SECTION
2
OBJECTS
0
DICTIONARY
5
C
100
AcDbDictionary
3
ACAD_GROUP
350
D
3
ACAD_MLINESTYLE
350
17
0
DICTIONARY
5
D
100
AcDbDictionary
0
DICTIONARY
5
1A
330
C
100
AcDbDictionary
0
DICTIONARY
5
17
100
AcDbDictionary
0
ENDSEC
0
EOF
