0
SECTION
2
HEADER
9
$INSUNITS
70
4
9
$ACADVER
1
AC1014
9
$HANDSEED
5
FFFF
0
ENDSEC
0
SECTION
2
TABLES
0
TABLE
2
VPORT
5
8
100
AcDbSymbolTable
0
ENDTAB
0
TABLE
2
LTYPE
5
5
100
AcDbSymbolTable
0
LTYPE
5
14
100
AcDbSymbolTableRecord
100
AcDbLinetypeTableRecord
2
BYBLOCK
70
0
0
LTYPE
5
15
100
AcDbSymbolTableRecord
100
AcDbLinetypeTableRecord
2
BYLAYER
70
0
0
ENDTAB
0
TABLE
2
LAYER
5
2
100
AcDbSymbolTable
70
2
0
LAYER
5
50
100
AcDbSymbolTableRecord
100
AcDbLayerTableRecord
2
0
70
0
6
CONTINUOUS
0
ENDTAB
0
TABLE
2
STYLE
5
3
100
AcDbSymbolTable
70
1
0
STYLE
5
11
100
AcDbSymbolTableRecord
100
AcDbTextStyleTableRecord
2
STANDARD
70
0
0
ENDTAB
0
TABLE
2
VIEW
5
6
100
AcDbSymbolTable
70
0
0
ENDTAB
0
TABLE
2
UCS
5
7
100
AcDbSymbolTable
70
0
0
ENDTAB
0
TABLE
2
APPID
5
9
100
AcDbSymbolTable
70
2
0
APPID
5
12
100
AcDbSymbolTableRecord
100
AcDbRegAppTableRecord
2
ACAD
70
0
0
ENDTAB
0
TABLE
2
DIMSTYLE
5
A
100
AcDbSymbolTable
70
1
0
ENDTAB
0
TABLE
2
BLOCK_RECORD
5
1
100
AcDbSymbolTable
70
1
0
BLOCK_RECORD
5
1F
100
AcDbSymbolTableRecord
100
AcDbBlockTableRecord
2
*MODEL_SPACE
0
BLOCK_RECORD
5
1B
100
AcDbSymbolTableRecord
100
AcDbBlockTableRecord
2
*PAPER_SPACE
0
ENDTAB
0
ENDSEC
0
SECTION
2
BLOCKS
0
BLOCK
5
20
100
AcDbEntity
100
AcDbBlockBegin
2
*MODEL_SPACE
0
ENDBLK
5
21
100
AcDbEntity
100
AcDbBlockEnd
0
BLOCK
5
1C
100
AcDbEntity
100
AcDbBlockBegin
2
*PAPER_SPACE
0
ENDBLK
5
1D
100
AcDbEntity
100
AcDbBlockEnd
0
ENDSEC
0
SECTION
2
ENTITIES
0
ARC
5
100
100
AcDbEntity
8
0
100
AcDbCircle
10
107
20
-66
30
0
40
30.000000000000018
210
0
220
0
230
1
100
AcDbArc
50
-90
51
0
0
LINE
5
101
100
AcDbEntity
8
0
100
AcDbLine
10
107
20
-96.000000000000014
30
0
11
-107
21
-96.000000000000014
31
0
0
ARC
5
102
100
AcDbEntity
8
0
100
AcDbCircle
10
-107
20
-66
30
0
40
30.000000000000018
210
0
220
0
230
1
100
AcDbArc
50
180
51
270
0
LINE
5
103
100
AcDbEntity
8
0
100
AcDbLine
10
-137
20
-66
30
0
11
-137
21
120.00000000000001
31
0
0
ARC
5
104
100
AcDbEntity
8
0
100
AcDbCircle
10
-127.00000000000001
20
120
30
0
40
10
210
0
220
-0
230
1
100
AcDbArc
50
90
51
180
0
LINE
5
105
100
AcDbEntity
8
0
100
AcDbLine
10
-127.00000000000001
20
130
30
0
11
127.00000000000001
21
130
31
0
0
ARC
5
106
100
AcDbEntity
8
0
100
AcDbCircle
10
127.00000000000001
20
120
30
0
40
10
210
0
220
-0
230
1
100
AcDbArc
50
0
51
90
0
LINE
5
107
100
AcDbEntity
8
0
100
AcDbLine
10
137
20
120
30
0
11
137
21
-66.000000000000014
31
0
0
LINE
5
108
100
AcDbEntity
8
0
100
AcDbLine
10
106.8258
20
8.6663900000000016
30
0
11
107.80889999999999
21
-5.3934000000000015
31
0
0
ARC
5
109
100
AcDbEntity
8
0
100
AcDbCircle
10
107.87170787089197
20
-5.3889801871221099
30
0
40
0.062963190769359648
210
0
220
0
230
1
100
AcDbArc
50
184.02528934476624
51
274.00003552538345
0
LINE
5
110
100
AcDbEntity
8
0
100
AcDbLine
10
107.87609999999999
20
-5.4517900000000008
30
0
11
121.836
21
-4.4756100000000032
31
0
0
ARC
5
111
100
AcDbEntity
8
0
100
AcDbCircle
10
121.83225324326209
20
-4.4128214491286588
30
0
40
0.062900240910321717
210
-0
220
0
230
1
100
AcDbArc
50
-86.585060754537309
51
4.0034243346212826
0
LINE
5
112
100
AcDbEntity
8
0
100
AcDbLine
10
121.89500000000001
20
-4.408430000000001
30
0
11
120.911
21
9.6513500000000008
31
0
0
ARC
5
113
100
AcDbEntity
8
0
100
AcDbCircle
10
120.84821814819654
20
9.6469560946775434
30
0
40
0.062935421821548349
210
0
220
-0
230
1
100
AcDbArc
50
4.0034243346190044
51
93.843040910459962
0
ARC
5
114
100
AcDbEntity
8
0
100
AcDbCircle
10
106.88859082526386
20
8.6707792825928909
30
0
40
0.06294405086263237
210
0
220
0
230
1
100
AcDbArc
50
94.000064086320549
51
183.99865641870346
0
LINE
5
115
100
AcDbEntity
8
0
100
AcDbLine
10
120.84400000000001
20
9.7097500000000014
30
0
11
106.88420000000001
21
8.7335700000000038
31
0
0
LINE
5
116
100
AcDbEntity
8
0
100
AcDbLine
10
84.209900000000005
20
5.7938699999999965
30
0
11
86.171400000000006
21
-8.1630800000000026
31
0
0
ARC
5
117
100
AcDbEntity
8
0
100
AcDbCircle
10
86.233738856404671
20
-8.1543215175369355
30
0
40
0.062951124159115746
210
0
220
0
230
1
100
AcDbArc
50
187.99759130629539
51
278.00003716613116
0
LINE
5
118
100
AcDbEntity
8
0
100
AcDbLine
10
86.242500000000007
20
-8.2166600000000045
30
0
11
100.10040000000001
21
-6.2690499999999982
31
0
0
ARC
5
119
100
AcDbEntity
8
0
100
AcDbCircle
10
100.09163591845139
20
-6.2066906130116006
30
0
40
0.062972234127108756
210
-0
220
0
230
1
100
AcDbArc
50
-81.999962833853886
51
7.9692874460789351
0
LINE
5
120
100
AcDbEntity
8
0
100
AcDbLine
10
100.154
20
-6.1979600000000001
30
0
11
98.192499999999995
21
7.7590000000000003
31
0
0
ARC
5
121
100
AcDbEntity
8
0
100
AcDbCircle
10
98.130178586447244
20
7.7502413983644214
30
0
40
0.062933867589920645
210
0
220
-0
230
1
100
AcDbArc
50
7.9999081814314001
51
98.018281820931065
0
ARC
5
122
100
AcDbEntity
8
0
100
AcDbCircle
10
84.272150039570278
20
5.8026900771383083
30
0
40
0.062871783712770635
210
0
220
0
230
1
100
AcDbArc
50
97.999980184884322
51
188.06443858730611
0
LINE
5
123
100
AcDbEntity
8
0
100
AcDbLine
10
98.121399999999994
20
7.8125599999999995
30
0
11
84.26339999999999
21
5.8649500000000021
31
0
0
LINE
5
124
100
AcDbEntity
8
0
100
AcDbLine
10
86.854200000000006
20
-13.021200000000004
30
0
11
88.815699999999993
21
-26.978200000000001
31
0
0
ARC
5
125
100
AcDbEntity
8
0
100
AcDbCircle
10
88.87803890187061
20
-26.96946472158583
30
0
40
0.062947944965722258
210
0
220
0
230
1
100
AcDbArc
50
187.97667043635548
51
278.00040206524818
0
LINE
5
126
100
AcDbEntity
8
0
100
AcDbLine
10
88.886800000000008
20
-27.031799999999997
30
0
11
102.74469999999999
21
-25.084099999999996
31
0
0
ARC
5
127
100
AcDbEntity
8
0
100
AcDbCircle
10
102.73593719648727
20
-25.021752587770667
30
0
40
0.062960198038892232
210
-0
220
0
230
1
100
AcDbArc
50
-81.999597934760942
51
7.8991289630404751
0
LINE
5
128
100
AcDbEntity
8
0
100
AcDbLine
10
102.79830000000001
20
-25.013100000000001
30
0
11
100.83669999999999
21
-11.056100000000004
31
0
0
ARC
5
129
100
AcDbEntity
8
0
100
AcDbCircle
10
100.77435269455846
20
-11.064862662058763
30
0
40
0.062960072603014533
210
0
220
-0
230
1
100
AcDbArc
50
8.0002881158627748
51
97.899242912425592
0
ARC
5
130
100
AcDbEntity
8
0
100
AcDbCircle
10
86.916549756881409
20
-13.012437440128766
30
0
40
0.062962485963206485
210
0
220
0
230
1
100
AcDbArc
50
98.080022404998203
51
187.99988555095089
0
LINE
5
131
100
AcDbEntity
8
0
100
AcDbLine
10
100.76570000000001
20
-11.0025
30
0
11
86.907700000000006
21
-12.950100000000004
31
0
0
LINE
5
132
100
AcDbEntity
8
0
100
AcDbLine
10
108.15110000000001
20
-10.287300000000004
30
0
11
109.1343
21
-24.347100000000008
31
0
0
ARC
5
133
100
AcDbEntity
8
0
100
AcDbCircle
10
109.19710801124458
20
-24.342690781581577
30
0
40
0.062962587967461833
210
0
220
0
230
1
100
AcDbArc
50
184.01566323317405
51
273.99994585157526
0
LINE
5
134
100
AcDbEntity
8
0
100
AcDbLine
10
109.2015
20
-24.4055
30
0
11
123.16200000000002
21
-23.429300000000008
31
0
0
ARC
5
135
100
AcDbEntity
8
0
100
AcDbCircle
10
123.15763694104999
20
-23.366904502691924
30
0
40
0.062547856619747905
210
-0
220
0
230
1
100
AcDbArc
50
-86.000054148432625
51
4.4054131558608081
0
LINE
5
136
100
AcDbEntity
8
0
100
AcDbLine
10
123.22000000000001
20
-23.362100000000005
30
0
11
122.23700000000001
21
-9.3023599999999984
31
0
0
ARC
5
137
100
AcDbEntity
8
0
100
AcDbCircle
10
122.17423226017172
20
-9.3067484658074218
30
0
40
0.062920964672321431
210
0
220
-0
230
1
100
AcDbArc
50
3.9993803645412287
51
93.856804665045999
0
ARC
5
138
100
AcDbEntity
8
0
100
AcDbCircle
10
108.21389044418868
20
-10.2829852003073
30
0
40
0.062938520619737259
210
0
220
0
230
1
100
AcDbArc
50
94.000068376502455
51
183.93104050322731
0
LINE
5
139
100
AcDbEntity
8
0
100
AcDbLine
10
122.17
20
-9.2439699999999991
30
0
11
108.20950000000002
21
-10.220200000000004
31
0
0
LINE
5
140
100
AcDbEntity
8
0
100
AcDbLine
10
109.47650000000002
20
-29.241
30
0
11
110.4597
21
-43.30080000000001
31
0
0
ARC
5
141
100
AcDbEntity
8
0
100
AcDbCircle
10
110.52250789477245
20
-43.296390915604306
30
0
40
0.062962462395901003
210
0
220
0
230
1
100
AcDbArc
50
184.01554899440285
51
274.0000600903382
0
LINE
5
142
100
AcDbEntity
8
0
100
AcDbLine
10
110.5269
20
-43.359200000000016
30
0
11
124.48700000000002
21
-42.38300000000001
31
0
0
ARC
5
143
100
AcDbEntity
8
0
100
AcDbCircle
10
124.4826373353561
20
-42.320611929219858
30
0
40
0.062540420677064057
210
-0
220
0
230
1
100
AcDbArc
50
-85.999939909652824
51
4.3208811866125485
0
LINE
5
144
100
AcDbEntity
8
0
100
AcDbLine
10
124.54500000000002
20
-42.315900000000006
30
0
11
123.56200000000001
21
-28.256100000000004
31
0
0
ARC
5
145
100
AcDbEntity
8
0
100
AcDbCircle
10
123.49922229876711
20
-28.26048914353775
30
0
40
0.062930949087731378
210
0
220
-0
230
1
100
AcDbArc
50
3.9993633526267489
51
93.847101892473418
0
ARC
5
146
100
AcDbEntity
8
0
100
AcDbCircle
10
109.5392094804717
20
-29.236614734121417
30
0
40
0.062862624013443502
210
0
220
0
230
1
100
AcDbArc
50
93.93093446279147
51
184.00017441696107
0
LINE
5
147
100
AcDbEntity
8
0
100
AcDbLine
10
123.495
20
-28.197700000000001
30
0
11
109.53490000000001
21
-29.173900000000003
31
0
0
LINE
5
148
100
AcDbEntity
8
0
100
AcDbLine
10
89.498500000000007
20
-31.836300000000008
30
0
11
91.460000000000008
21
-45.793300000000002
31
0
0
ARC
5
149
100
AcDbEntity
8
0
100
AcDbCircle
10
91.522337336271207
20
-45.784450381142356
30
0
40
0.062962363736713156
210
0
220
0
230
1
100
AcDbArc
50
188.07991133420882
51
277.99999662175554
0
LINE
5
150
100
AcDbEntity
8
0
100
AcDbLine
10
91.531099999999995
20
-45.846800000000002
30
0
11
105.389
21
-43.8992
31
0
0
ARC
5
151
100
AcDbEntity
8
0
100
AcDbCircle
10
105.38023769979232
20
-43.836852967730557
30
0
40
0.062959751728676433
210
-0
220
0
230
1
100
AcDbArc
50
-82.000003378247726
51
7.8995344065471622
0
LINE
5
152
100
AcDbEntity
8
0
100
AcDbLine
10
105.4426
20
-43.82820000000001
30
0
11
103.48100000000001
21
-29.871200000000009
31
0
0
ARC
5
153
100
AcDbEntity
8
0
100
AcDbCircle
10
103.41865269455846
20
-29.879962662058766
30
0
40
0.062960072603014533
210
0
220
-0
230
1
100
AcDbArc
50
8.0002881158593464
51
97.899242912439078
0
ARC
5
154
100
AcDbEntity
8
0
100
AcDbCircle
10
89.560849756881424
20
-31.827537440128761
30
0
40
0.062962485963208983
210
0
220
0
230
1
100
AcDbArc
50
98.080022405023811
51
187.9998855509605
0
LINE
5
155
100
AcDbEntity
8
0
100
AcDbLine
10
103.41
20
-29.817599999999995
30
0
11
89.551999999999992
21
-31.7652
31
0
0
LINE
5
156
100
AcDbEntity
8
0
100
AcDbLine
10
86.627499999999998
20
-46.4724
30
0
11
84.665899999999993
21
-32.515500000000003
31
0
0
ARC
5
157
100
AcDbEntity
8
0
100
AcDbCircle
10
84.603552641535231
20
-32.524262732294744
30
0
40
0.062960134885520852
210
0
220
-0
230
1
100
AcDbArc
50
8.0003446950783594
51
97.899186333214132
0
LINE
5
158
100
AcDbEntity
8
0
100
AcDbLine
10
84.594899999999996
20
-32.4619
30
0
11
70.736900000000006
21
-34.409500000000008
31
0
0
ARC
5
159
100
AcDbEntity
8
0
100
AcDbCircle
10
70.74565037969046
20
-34.471762662636287
30
0
40
0.062874544159670337
210
0
220
0
230
1
100
AcDbArc
50
97.999939640748465
51
188.0799683151852
0
LINE
5
160
100
AcDbEntity
8
0
100
AcDbLine
10
70.683400000000006
20
-34.480599999999995
30
0
11
72.644900000000007
21
-48.437599999999996
31
0
0
ARC
5
161
100
AcDbEntity
8
0
100
AcDbCircle
10
72.70723733627122
20
-48.428750381142365
30
0
40
0.062962363736728241
210
0
220
0
230
1
100
AcDbArc
50
188.07991133419415
51
277.99999662175378
0
ARC
5
162
100
AcDbEntity
8
0
100
AcDbCircle
10
86.565164650422901
20
-46.481161044481979
30
0
40
0.062948007969380798
210
-0
220
0
230
1
100
AcDbArc
50
-82.02327219346067
51
8.0003446950848485
0
LINE
5
163
100
AcDbEntity
8
0
100
AcDbLine
10
72.716000000000008
20
-48.491099999999996
30
0
11
86.573899999999995
21
-46.543500000000009
31
0
0
LINE
5
164
100
AcDbEntity
8
0
100
AcDbLine
10
73.327600000000004
20
-53.295700000000004
30
0
11
75.289200000000008
21
-67.252700000000019
31
0
0
ARC
5
165
100
AcDbEntity
8
0
100
AcDbCircle
10
75.351537336271221
20
-67.243850381142366
30
0
40
0.062962363736730739
210
0
220
0
230
1
100
AcDbArc
50
188.07991133421336
51
277.99999662174093
0
LINE
5
166
100
AcDbEntity
8
0
100
AcDbLine
10
75.360299999999995
20
-67.306200000000018
30
0
11
89.218199999999996
21
-65.358599999999996
31
0
0
ARC
5
167
100
AcDbEntity
8
0
100
AcDbCircle
10
89.209435775646853
20
-65.296239276718296
30
0
40
0.062973577290230204
210
-0
220
0
230
1
100
AcDbArc
50
-82.000003378249602
51
7.9770758798574608
0
LINE
5
168
100
AcDbEntity
8
0
100
AcDbLine
10
89.271799999999999
20
-65.287499999999994
30
0
11
87.310200000000009
21
-51.330600000000004
31
0
0
ARC
5
169
100
AcDbEntity
8
0
100
AcDbCircle
10
87.247860718992769
20
-51.339335781336075
30
0
40
0.062948390226044953
210
0
220
-0
230
1
100
AcDbArc
50
7.9770758798649331
51
97.999996621726282
0
ARC
5
170
100
AcDbEntity
8
0
100
AcDbCircle
10
73.389935419759027
20
-53.286939008425932
30
0
40
0.062948070104610857
210
0
220
0
230
1
100
AcDbArc
50
97.97678438574529
51
188.00028811586475
0
LINE
5
171
100
AcDbEntity
8
0
100
AcDbLine
10
87.239100000000008
20
-51.277000000000008
30
0
11
73.381200000000007
21
-53.224599999999995
31
0
0
LINE
5
172
100
AcDbEntity
8
0
100
AcDbLine
10
54.512599999999992
20
-55.940000000000012
30
0
11
56.4741
21
-69.896899999999988
31
0
0
ARC
5
173
100
AcDbEntity
8
0
100
AcDbCircle
10
56.536439281007219
20
-69.888164218663945
30
0
40
0.062948390226033699
210
0
220
0
230
1
100
AcDbArc
50
187.97707587984203
51
277.99999662175367
0
LINE
5
174
100
AcDbEntity
8
0
100
AcDbLine
10
56.545200000000008
20
-69.950500000000005
30
0
11
70.403100000000009
21
-68.002900000000011
31
0
0
ARC
5
175
100
AcDbEntity
8
0
100
AcDbCircle
10
70.394335775646866
20
-67.940539276718312
30
0
40
0.062973577290228969
210
-0
220
0
230
1
100
AcDbArc
50
-82.000003378249602
51
7.9770758798720847
0
LINE
5
176
100
AcDbEntity
8
0
100
AcDbLine
10
70.456699999999998
20
-67.931799999999996
30
0
11
68.495100000000008
21
-53.974900000000012
31
0
0
ARC
5
177
100
AcDbEntity
8
0
100
AcDbCircle
10
68.432846896663193
20
-53.983537879420034
30
0
40
0.062849517388270576
210
0
220
-0
230
1
100
AcDbArc
50
7.8995913875306822
51
97.999939640752032
0
ARC
5
178
100
AcDbEntity
8
0
100
AcDbCircle
10
54.574850379690467
20
-55.931162662636282
30
0
40
0.062874544159671558
210
0
220
0
230
1
100
AcDbArc
50
97.999939640767693
51
188.07996831519802
0
LINE
5
179
100
AcDbEntity
8
0
100
AcDbLine
10
68.42410000000001
20
-53.921300000000016
30
0
11
54.566099999999992
21
-55.868900000000004
31
0
0
LINE
5
180
100
AcDbEntity
8
0
100
AcDbLine
10
67.812399999999997
20
-49.116700000000009
30
0
11
65.85090000000001
21
-35.15979999999999
31
0
0
ARC
5
181
100
AcDbEntity
8
0
100
AcDbCircle
10
65.788539327717956
20
-35.168564156702509
30
0
40
0.062973517371798945
210
0
220
-0
230
1
100
AcDbArc
50
7.9999421274016997
51
97.977130374239707
0
LINE
5
182
100
AcDbEntity
8
0
100
AcDbLine
10
65.779799999999994
20
-35.106199999999994
30
0
11
51.921800000000005
21
-37.053799999999995
31
0
0
ARC
5
183
100
AcDbEntity
8
0
100
AcDbCircle
10
51.930649686575777
20
-37.116137387226509
30
0
40
0.062962423704279846
210
0
220
0
230
1
100
AcDbArc
50
98.079965828541688
51
187.99994212737946
0
LINE
5
184
100
AcDbEntity
8
0
100
AcDbLine
10
51.868300000000005
20
-37.12489999999999
30
0
11
53.829799999999999
21
-51.081800000000008
31
0
0
ARC
5
185
100
AcDbEntity
8
0
100
AcDbCircle
10
53.892139281007218
20
-51.073064218663937
30
0
40
0.06294839022602737
210
0
220
0
230
1
100
AcDbArc
50
187.97707587986764
51
277.99999662175458
0
ARC
5
186
100
AcDbEntity
8
0
100
AcDbCircle
10
67.750064151067278
20
-49.125460668033853
30
0
40
0.062948450072766282
210
-0
220
0
230
1
100
AcDbArc
50
-82.022869625773225
51
7.9999421273947968
0
LINE
5
187
100
AcDbEntity
8
0
100
AcDbLine
10
53.900900000000007
20
-51.135400000000004
30
0
11
67.758800000000008
21
-49.187800000000017
31
0
0
LINE
5
188
100
AcDbEntity
8
0
100
AcDbLine
10
65.16810000000001
20
-30.301600000000004
30
0
11
63.206600000000002
21
-16.344700000000003
31
0
0
ARC
5
189
100
AcDbEntity
8
0
100
AcDbCircle
10
63.144260665708529
20
-16.353435852017224
30
0
40
0.062948452803629193
210
0
220
-0
230
1
100
AcDbArc
50
7.9771328608453222
51
97.999939640757276
0
LINE
5
190
100
AcDbEntity
8
0
100
AcDbLine
10
63.1355
20
-16.2911
30
0
11
49.277500000000003
21
-18.238700000000001
31
0
0
ARC
5
191
100
AcDbEntity
8
0
100
AcDbCircle
10
49.286349756881407
20
-18.301037440128766
30
0
40
0.062962485963205236
210
0
220
0
230
1
100
AcDbArc
50
98.080022404997734
51
187.99988555094905
0
LINE
5
192
100
AcDbEntity
8
0
100
AcDbLine
10
49.224000000000004
20
-18.309800000000003
30
0
11
51.185499999999998
21
-32.266800000000003
31
0
0
ARC
5
193
100
AcDbEntity
8
0
100
AcDbCircle
10
51.247837336271218
20
-32.257950381142365
30
0
40
0.062962363736728241
210
0
220
0
230
1
100
AcDbArc
50
188.07991133419966
51
277.99999662174736
0
ARC
5
194
100
AcDbEntity
8
0
100
AcDbCircle
10
65.105735775646863
20
-30.310339276718299
30
0
40
0.062973577290228969
210
-0
220
0
230
1
100
AcDbArc
50
-82.000003378261923
51
7.9770758798510446
0
LINE
5
195
100
AcDbEntity
8
0
100
AcDbLine
10
51.256599999999999
20
-32.320300000000003
30
0
11
65.114499999999992
21
-30.372699999999995
31
0
0
LINE
5
196
100
AcDbEntity
8
0
100
AcDbLine
10
62.523800000000008
20
-11.486499999999999
30
0
11
60.5623
21
2.4704200000000043
31
0
0
ARC
5
197
100
AcDbEntity
8
0
100
AcDbCircle
10
60.499978565298953
20
2.4616613702904289
30
0
40
0.062933892439500358
210
0
220
-0
230
1
100
AcDbArc
50
7.9999308120449859
51
98.018259190296973
0
LINE
5
198
100
AcDbEntity
8
0
100
AcDbLine
10
60.491200000000006
20
2.5239800000000034
30
0
11
46.633200000000002
21
0.57637599999999622
31
0
0
ARC
5
199
100
AcDbEntity
8
0
100
AcDbCircle
10
46.642036005618678
20
0.51405063356217973
30
0
40
0.062948600436397703
210
0
220
0
230
1
100
AcDbArc
50
98.06917490298585
51
187.99989120855693
0
LINE
5
200
100
AcDbEntity
8
0
100
AcDbLine
10
46.579700000000003
20
0.50529000000000046
30
0
11
48.541200000000003
21
-13.451700000000004
31
0
0
ARC
5
201
100
AcDbEntity
8
0
100
AcDbCircle
10
48.603537336271216
20
-13.442850381142373
30
0
40
0.062962363736728241
210
0
220
0
230
1
100
AcDbArc
50
188.07991133419415
51
277.99999662174804
0
ARC
5
202
100
AcDbEntity
8
0
100
AcDbCircle
10
62.461435775646862
20
-11.495239276718294
30
0
40
0.062973577290237767
210
-0
220
0
230
1
100
AcDbArc
50
-82.000003378256679
51
7.9770758798517774
0
LINE
5
203
100
AcDbEntity
8
0
100
AcDbLine
10
48.612299999999998
20
-13.505200000000004
30
0
11
62.470199999999998
21
-11.557599999999999
31
0
0
LINE
5
204
100
AcDbEntity
8
0
100
AcDbLine
10
81.33890000000001
20
-8.8422499999999982
30
0
11
79.377399999999994
21
5.1147100000000023
31
0
0
ARC
5
205
100
AcDbEntity
8
0
100
AcDbCircle
10
79.315078586447228
20
5.1059513983644145
30
0
40
0.062933867589930692
210
0
220
-0
230
1
100
AcDbArc
50
7.9999081814375703
51
98.018281820916556
0
LINE
5
206
100
AcDbEntity
8
0
100
AcDbLine
10
79.306299999999993
20
5.1682700000000015
30
0
11
65.448300000000017
21
3.2206599999999952
31
0
0
ARC
5
207
100
AcDbEntity
8
0
100
AcDbCircle
10
65.45713010889105
20
3.1583398111188643
30
0
40
0.062942646633323426
210
0
220
0
230
1
100
AcDbArc
50
98.064521905976534
51
187.99989686617516
0
LINE
5
208
100
AcDbEntity
8
0
100
AcDbLine
10
65.394800000000004
20
3.1495799999999985
30
0
11
67.356300000000005
21
-10.807400000000005
31
0
0
ARC
5
209
100
AcDbEntity
8
0
100
AcDbCircle
10
67.418637487916698
20
-10.798550179609778
30
0
40
0.062962542203308089
210
0
220
0
230
1
100
AcDbArc
50
188.08007351181809
51
277.99983444413357
0
ARC
5
210
100
AcDbEntity
8
0
100
AcDbCircle
10
81.276536170113829
20
-8.8509808027584924
30
0
40
0.062972011202437186
210
-0
220
0
230
1
100
AcDbArc
50
-82.000165555873323
51
7.969490168090763
0
LINE
5
211
100
AcDbEntity
8
0
100
AcDbLine
10
67.427400000000006
20
-10.860900000000004
30
0
11
81.285300000000007
21
-8.9133400000000051
31
0
0
LINE
5
212
100
AcDbEntity
8
0
100
AcDbLine
10
83.983199999999997
20
-27.657299999999996
30
0
11
82.021699999999981
21
-13.700400000000004
31
0
0
ARC
5
213
100
AcDbEntity
8
0
100
AcDbCircle
10
81.959339327717942
20
-13.709164156702514
30
0
40
0.062973517371788912
210
0
220
-0
230
1
100
AcDbArc
50
7.9999421273954834
51
97.977130374215662
0
LINE
5
214
100
AcDbEntity
8
0
100
AcDbLine
10
81.950599999999994
20
-13.646799999999999
30
0
11
68.092600000000004
21
-15.594400000000004
31
0
0
ARC
5
215
100
AcDbEntity
8
0
100
AcDbCircle
10
68.101350379690459
20
-15.656662662636283
30
0
40
0.062874544159670337
210
0
220
0
230
1
100
AcDbArc
50
97.999939640748465
51
188.0799683151964
0
LINE
5
216
100
AcDbEntity
8
0
100
AcDbLine
10
68.039100000000005
20
-15.665500000000003
30
0
11
70.000600000000006
21
-29.622500000000002
31
0
0
ARC
5
217
100
AcDbEntity
8
0
100
AcDbCircle
10
70.062862612200362
20
-29.613749687337467
30
0
40
0.06287448488619285
210
0
220
0
230
1
100
AcDbArc
50
187.99988555095078
51
278.08002240500218
0
ARC
5
218
100
AcDbEntity
8
0
100
AcDbCircle
10
83.92083577564685
20
-27.666039276718301
30
0
40
0.062973577290236532
210
-0
220
0
230
1
100
AcDbArc
50
-82.00000337825
51
7.9770758798607169
0
LINE
5
219
100
AcDbEntity
8
0
100
AcDbLine
10
70.071700000000007
20
-29.676000000000002
30
0
11
83.929599999999994
21
-27.728400000000004
31
0
0
LINE
5
220
100
AcDbEntity
8
0
100
AcDbLine
10
46.353000000000009
20
-32.945899999999995
30
0
11
44.391499999999994
21
-18.989000000000004
31
0
0
ARC
5
221
100
AcDbEntity
8
0
100
AcDbCircle
10
44.329160665708528
20
-18.997735852017232
30
0
40
0.062948452803630442
210
0
220
-0
230
1
100
AcDbArc
50
7.9771328608525636
51
97.999939640750412
0
LINE
5
222
100
AcDbEntity
8
0
100
AcDbLine
10
44.320400000000006
20
-18.935399999999998
30
0
11
30.462400000000002
21
-20.883000000000003
31
0
0
ARC
5
223
100
AcDbEntity
8
0
100
AcDbCircle
10
30.471249686575781
20
-20.945337387226513
30
0
40
0.062962423704281095
210
0
220
0
230
1
100
AcDbArc
50
98.079965828548552
51
187.99994212738858
0
LINE
5
224
100
AcDbEntity
8
0
100
AcDbLine
10
30.408900000000003
20
-20.954100000000004
30
0
11
32.370400000000004
21
-34.910999999999994
31
0
0
ARC
5
225
100
AcDbEntity
8
0
100
AcDbCircle
10
32.432739281007215
20
-34.902264218663944
30
0
40
0.0629483902260249
210
0
220
0
230
1
100
AcDbArc
50
187.97707587984931
51
277.99999662175549
0
ARC
5
226
100
AcDbEntity
8
0
100
AcDbCircle
10
46.29066415106729
20
-32.954660668033853
30
0
40
0.062948450072744994
210
-0
220
0
230
1
100
AcDbArc
50
-82.022869625797043
51
7.9999421274085112
0
LINE
5
227
100
AcDbEntity
8
0
100
AcDbLine
10
32.441500000000005
20
-34.96459999999999
30
0
11
46.299399999999991
21
-33.017000000000003
31
0
0
LINE
5
228
100
AcDbEntity
8
0
100
AcDbLine
10
43.7087
20
-14.130799999999999
30
0
11
41.747200000000007
21
-0.17386899999999983
31
0
0
ARC
5
229
100
AcDbEntity
8
0
100
AcDbCircle
10
41.684876610528114
20
-0.18262789752905739
30
0
40
0.062935865459924314
210
0
220
-0
230
1
100
AcDbArc
50
7.9999245886115355
51
98.016209010564054
0
LINE
5
230
100
AcDbEntity
8
0
100
AcDbLine
10
41.676099999999998
20
-0.12030700000000394
30
0
11
27.818100000000001
21
-2.0679099999999995
31
0
0
ARC
5
231
100
AcDbEntity
8
0
100
AcDbCircle
10
27.826939939342662
20
-2.1302388198738509
30
0
40
0.062952571944670521
210
0
220
0
230
1
100
AcDbArc
50
98.072278508610125
51
187.99988555095038
0
LINE
5
232
100
AcDbEntity
8
0
100
AcDbLine
10
27.764600000000002
20
-2.1389999999999976
30
0
11
29.726100000000002
21
-16.096000000000004
31
0
0
ARC
5
233
100
AcDbEntity
8
0
100
AcDbCircle
10
29.788437336271215
20
-16.087150381142372
30
0
40
0.062962363736723842
210
0
220
0
230
1
100
AcDbArc
50
188.07991133419415
51
277.99999662175509
0
ARC
5
234
100
AcDbEntity
8
0
100
AcDbCircle
10
43.646335775646861
20
-14.139539276718311
30
0
40
0.062973577290220184
210
-0
220
0
230
1
100
AcDbArc
50
-82.000003378248024
51
7.977075879868921
0
LINE
5
235
100
AcDbEntity
8
0
100
AcDbLine
10
29.797200000000004
20
-16.149500000000003
30
0
11
43.655100000000004
21
-14.201899999999998
31
0
0
LINE
5
236
100
AcDbEntity
8
0
100
AcDbLine
10
33.053200000000004
20
-39.769199999999998
30
0
11
35.014700000000005
21
-53.726100000000017
31
0
0
ARC
5
237
100
AcDbEntity
8
0
100
AcDbCircle
10
35.077039281007217
20
-53.717364218663946
30
0
40
0.062948390226022971
210
0
220
0
230
1
100
AcDbArc
50
187.97707587986855
51
277.99999662174906
0
LINE
5
238
100
AcDbEntity
8
0
100
AcDbLine
10
35.085799999999999
20
-53.779700000000012
30
0
11
48.943700000000007
21
-51.83209999999999
31
0
0
ARC
5
239
100
AcDbEntity
8
0
100
AcDbCircle
10
48.934935775646863
20
-51.769739276718312
30
0
40
0.062973577290211372
210
-0
220
0
230
1
100
AcDbArc
50
-82.000003378246902
51
7.9770758798537953
0
LINE
5
240
100
AcDbEntity
8
0
100
AcDbLine
10
48.997299999999996
20
-51.761000000000017
30
0
11
47.035800000000009
21
-37.804099999999998
31
0
0
ARC
5
241
100
AcDbEntity
8
0
100
AcDbCircle
10
46.973439327717941
20
-37.812864156702517
30
0
40
0.06297351737180773
210
0
220
-0
230
1
100
AcDbArc
50
7.9999421273998701
51
97.977130374225993
0
ARC
5
242
100
AcDbEntity
8
0
100
AcDbCircle
10
33.115450379690465
20
-39.760362662636282
30
0
40
0.06287454415968792
210
0
220
0
230
1
100
AcDbArc
50
97.99993964075307
51
188.07996831518886
0
LINE
5
243
100
AcDbEntity
8
0
100
AcDbLine
10
46.964699999999993
20
-37.750500000000002
30
0
11
33.106700000000004
21
-39.69809999999999
31
0
0
LINE
5
244
100
AcDbEntity
8
0
100
AcDbLine
10
35.697500000000005
20
-58.584299999999999
30
0
11
37.659000000000006
21
-72.541200000000003
31
0
0
ARC
5
245
100
AcDbEntity
8
0
100
AcDbCircle
10
37.721339281007218
20
-72.532464218663932
30
0
40
0.06294839022602737
210
0
220
0
230
1
100
AcDbArc
50
187.97707587986855
51
277.99999662174906
0
LINE
5
246
100
AcDbEntity
8
0
100
AcDbLine
10
37.7301
20
-72.594799999999992
30
0
11
51.588000000000001
21
-70.647200000000012
31
0
0
ARC
5
247
100
AcDbEntity
8
0
100
AcDbCircle
10
51.579235775646865
20
-70.584839276718313
30
0
40
0.062973577290228969
210
-0
220
0
230
1
100
AcDbArc
50
-82.000003378256011
51
7.9770758798720847
0
LINE
5
248
100
AcDbEntity
8
0
100
AcDbLine
10
51.641599999999997
20
-70.576099999999997
30
0
11
49.68
21
-56.619100000000003
31
0
0
ARC
5
249
100
AcDbEntity
8
0
100
AcDbCircle
10
49.617750854428671
20
-56.627848866085309
30
0
40
0.062860947989501439
210
0
220
-0
230
1
100
AcDbArc
50
8.0002881158566499
51
98.002118244403306
0
ARC
5
250
100
AcDbEntity
8
0
100
AcDbCircle
10
35.759849686575791
20
-58.575537387226504
30
0
40
0.062962423704264747
210
0
220
0
230
1
100
AcDbArc
50
98.079965828563616
51
187.99994212739404
0
LINE
5
251
100
AcDbEntity
8
0
100
AcDbLine
10
49.609000000000009
20
-56.565600000000003
30
0
11
35.750999999999998
21
-58.513200000000012
31
0
0
ARC
5
252
100
AcDbEntity
8
0
100
AcDbCircle
10
-51.579235775646865
20
-70.584839276718313
30
0
40
0.062973577290223126
210
0
220
0
230
1
100
AcDbArc
50
172.02292412012793
51
262.00000337825418
0
LINE
5
253
100
AcDbEntity
8
0
100
AcDbLine
10
-51.641599999999997
20
-70.576099999999997
30
0
11
-49.68
21
-56.619100000000003
31
0
0
ARC
5
254
100
AcDbEntity
8
0
100
AcDbCircle
10
-49.617750854428671
20
-56.627848866085316
30
0
40
0.062860947989500121
210
0
220
-0
230
1
100
AcDbArc
50
81.99788175559668
51
171.99971188413701
0
LINE
5
255
100
AcDbEntity
8
0
100
AcDbLine
10
-49.609000000000009
20
-56.565600000000003
30
0
11
-35.750999999999998
21
-58.513200000000005
31
0
0
ARC
5
256
100
AcDbEntity
8
0
100
AcDbCircle
10
-35.759849686575791
20
-58.575537387226504
30
0
40
0.062962423704278653
210
-0
220
0
230
1
100
AcDbArc
50
-7.9999421273922433
51
81.920034171438203
0
LINE
5
257
100
AcDbEntity
8
0
100
AcDbLine
10
-35.697500000000005
20
-58.584299999999999
30
0
11
-37.659000000000006
21
-72.541200000000003
31
0
0
ARC
5
258
100
AcDbEntity
8
0
100
AcDbCircle
10
-37.721339281007218
20
-72.532464218663947
30
0
40
0.062948390226029494
210
0
220
0
230
1
100
AcDbArc
50
262.00000337825094
51
352.0229241201443
0
LINE
5
259
100
AcDbEntity
8
0
100
AcDbLine
10
-37.7301
20
-72.594800000000006
30
0
11
-51.588000000000001
21
-70.647199999999998
31
0
0
ARC
5
260
100
AcDbEntity
8
0
100
AcDbCircle
10
-48.934935775646863
20
-51.769739276718305
30
0
40
0.062973577290220656
210
0
220
0
230
1
100
AcDbArc
50
172.02292412014714
51
262.00000337824775
0
LINE
5
261
100
AcDbEntity
8
0
100
AcDbLine
10
-48.997299999999996
20
-51.76100000000001
30
0
11
-47.035800000000009
21
-37.804099999999998
31
0
0
ARC
5
262
100
AcDbEntity
8
0
100
AcDbCircle
10
-46.973439327717941
20
-37.81286415670251
30
0
40
0.062973517371799306
210
0
220
-0
230
1
100
AcDbArc
50
82.022869625773097
51
172.00005787260469
0
LINE
5
263
100
AcDbEntity
8
0
100
AcDbLine
10
-46.964699999999993
20
-37.750500000000002
30
0
11
-33.106700000000004
21
-39.698099999999997
31
0
0
ARC
5
264
100
AcDbEntity
8
0
100
AcDbCircle
10
-33.115450379690465
20
-39.760362662636282
30
0
40
0.062874544159674944
210
-0
220
0
230
1
100
AcDbArc
50
-8.0799683151907118
51
82.000060359246021
0
LINE
5
265
100
AcDbEntity
8
0
100
AcDbLine
10
-33.053200000000004
20
-39.769199999999998
30
0
11
-35.014700000000005
21
-53.72610000000001
31
0
0
ARC
5
266
100
AcDbEntity
8
0
100
AcDbCircle
10
-35.077039281007217
20
-53.717364218663946
30
0
40
0.062948390226020695
210
0
220
0
230
1
100
AcDbArc
50
262.00000337825094
51
352.02292412013782
0
LINE
5
267
100
AcDbEntity
8
0
100
AcDbLine
10
-35.085799999999999
20
-53.779700000000005
30
0
11
-48.943700000000007
21
-51.832099999999997
31
0
0
ARC
5
268
100
AcDbEntity
8
0
100
AcDbCircle
10
-46.29066415106729
20
-32.954660668033846
30
0
40
0.062948450072749615
210
0
220
0
230
1
100
AcDbArc
50
172.0000578726052
51
262.02286962579706
0
LINE
5
269
100
AcDbEntity
8
0
100
AcDbLine
10
-46.353000000000009
20
-32.945900000000002
30
0
11
-44.391499999999994
21
-18.989000000000004
31
0
0
ARC
5
270
100
AcDbEntity
8
0
100
AcDbCircle
10
-44.329160665708528
20
-18.997735852017236
30
0
40
0.062948452803628915
210
0
220
-0
230
1
100
AcDbArc
50
82.000060359249574
51
172.02286713914418
0
LINE
5
271
100
AcDbEntity
8
0
100
AcDbLine
10
-44.320400000000006
20
-18.935400000000001
30
0
11
-30.462400000000002
21
-20.883000000000003
31
0
0
ARC
5
272
100
AcDbEntity
8
0
100
AcDbCircle
10
-30.471249686575781
20
-20.945337387226509
30
0
40
0.062962423704273643
210
-0
220
0
230
1
100
AcDbArc
50
-7.999942127393159
51
81.920034171450993
0
LINE
5
273
100
AcDbEntity
8
0
100
AcDbLine
10
-30.408900000000003
20
-20.954100000000004
30
0
11
-32.370400000000004
21
-34.911000000000001
31
0
0
ARC
5
274
100
AcDbEntity
8
0
100
AcDbCircle
10
-32.432739281007215
20
-34.902264218663937
30
0
40
0.062948390226025094
210
0
220
0
230
1
100
AcDbArc
50
262.00000337824451
51
352.02292412013696
0
LINE
5
275
100
AcDbEntity
8
0
100
AcDbLine
10
-32.441500000000005
20
-34.964599999999997
30
0
11
-46.299399999999991
21
-33.016999999999996
31
0
0
ARC
5
276
100
AcDbEntity
8
0
100
AcDbCircle
10
-43.646335775646861
20
-14.13953927671831
30
0
40
0.062973577290222515
210
0
220
0
230
1
100
AcDbArc
50
172.02292412013526
51
262.00000337824849
0
LINE
5
277
100
AcDbEntity
8
0
100
AcDbLine
10
-43.7087
20
-14.130800000000001
30
0
11
-41.747200000000007
21
-0.17386899999999983
31
0
0
ARC
5
278
100
AcDbEntity
8
0
100
AcDbCircle
10
-41.684876610528114
20
-0.18262789752905617
30
0
40
0.062935865459921664
210
0
220
-0
230
1
100
AcDbArc
50
81.983790989435605
51
172.00007541138905
0
LINE
5
279
100
AcDbEntity
8
0
100
AcDbLine
10
-41.676099999999998
20
-0.120307
30
0
11
-27.818100000000001
21
-2.0679099999999999
31
0
0
ARC
5
280
100
AcDbEntity
8
0
100
AcDbCircle
10
-27.826939939342662
20
-2.130238819873854
30
0
40
0.062952571944673005
210
-0
220
0
230
1
100
AcDbArc
50
-7.9998855509503777
51
81.927721491390216
0
LINE
5
281
100
AcDbEntity
8
0
100
AcDbLine
10
-27.764600000000002
20
-2.1390000000000002
30
0
11
-29.726100000000002
21
-16.096
31
0
0
ARC
5
282
100
AcDbEntity
8
0
100
AcDbCircle
10
-29.788437336271215
20
-16.087150381142369
30
0
40
0.062962363736727311
210
0
220
0
230
1
100
AcDbArc
50
262.00000337824531
51
351.92008866580579
0
LINE
5
283
100
AcDbEntity
8
0
100
AcDbLine
10
-29.797200000000004
20
-16.1495
30
0
11
-43.655100000000004
21
-14.2019
31
0
0
ARC
5
284
100
AcDbEntity
8
0
100
AcDbCircle
10
-62.461435775646862
20
-11.495239276718296
30
0
40
0.062973577290229774
210
0
220
0
230
1
100
AcDbArc
50
172.02292412014731
51
262.00000337825577
0
LINE
5
285
100
AcDbEntity
8
0
100
AcDbLine
10
-62.523800000000008
20
-11.486499999999999
30
0
11
-60.5623
21
2.4704199999999998
31
0
0
ARC
5
286
100
AcDbEntity
8
0
100
AcDbCircle
10
-60.499978565298953
20
2.4616613702904293
30
0
40
0.062933892439500011
210
0
220
-0
230
1
100
AcDbArc
50
81.981740809696561
51
172.00006918795941
0
LINE
5
287
100
AcDbEntity
8
0
100
AcDbLine
10
-60.491200000000006
20
2.5239799999999999
30
0
11
-46.633200000000002
21
0.57637600000000011
31
0
0
ARC
5
288
100
AcDbEntity
8
0
100
AcDbCircle
10
-46.642036005618678
20
0.51405063356218073
30
0
40
0.062948600436399396
210
-0
220
0
230
1
100
AcDbArc
50
-7.9998912085584486
51
81.930825097014392
0
LINE
5
289
100
AcDbEntity
8
0
100
AcDbLine
10
-46.579700000000003
20
0.50529000000000002
30
0
11
-48.541200000000003
21
-13.451700000000002
31
0
0
ARC
5
290
100
AcDbEntity
8
0
100
AcDbCircle
10
-48.603537336271216
20
-13.442850381142375
30
0
40
0.062962363736720095
210
0
220
0
230
1
100
AcDbArc
50
262.00000337825134
51
351.92008866581136
0
LINE
5
291
100
AcDbEntity
8
0
100
AcDbLine
10
-48.612299999999998
20
-13.505200000000002
30
0
11
-62.470199999999998
21
-11.557600000000001
31
0
0
ARC
5
292
100
AcDbEntity
8
0
100
AcDbCircle
10
-81.276536170113829
20
-8.850980802758496
30
0
40
0.062972011202439962
210
0
220
0
230
1
100
AcDbArc
50
172.03050983190602
51
262.00016555584818
0
LINE
5
293
100
AcDbEntity
8
0
100
AcDbLine
10
-81.33890000000001
20
-8.8422499999999999
30
0
11
-79.377399999999994
21
5.1147100000000005
31
0
0
ARC
5
294
100
AcDbEntity
8
0
100
AcDbCircle
10
-79.315078586447228
20
5.105951398364418
30
0
40
0.062933867589921949
210
0
220
-0
230
1
100
AcDbArc
50
81.981718179082307
51
172.00009181856885
0
LINE
5
295
100
AcDbEntity
8
0
100
AcDbLine
10
-79.306299999999993
20
5.1682700000000006
30
0
11
-65.448300000000017
21
3.2206599999999996
31
0
0
ARC
5
296
100
AcDbEntity
8
0
100
AcDbCircle
10
-65.45713010889105
20
3.1583398111188665
30
0
40
0.06294264663332759
210
-0
220
0
230
1
100
AcDbArc
50
-7.9998968661759342
51
81.935478094023949
0
LINE
5
297
100
AcDbEntity
8
0
100
AcDbLine
10
-65.394800000000004
20
3.1495800000000003
30
0
11
-67.356300000000005
21
-10.807400000000001
31
0
0
ARC
5
298
100
AcDbEntity
8
0
100
AcDbCircle
10
-67.418637487916698
20
-10.798550179609778
30
0
40
0.062962542203307256
210
0
220
0
230
1
100
AcDbArc
50
262.0001655558662
51
351.91992648818513
0
LINE
5
299
100
AcDbEntity
8
0
100
AcDbLine
10
-67.427400000000006
20
-10.860900000000003
30
0
11
-81.285300000000007
21
-8.9133400000000016
31
0
0
ARC
5
300
100
AcDbEntity
8
0
100
AcDbCircle
10
-100.09163591845139
20
-6.2066906130116024
30
0
40
0.062972234127108756
210
0
220
0
230
1
100
AcDbArc
50
172.03071255391947
51
261.99996283385389
0
LINE
5
301
100
AcDbEntity
8
0
100
AcDbLine
10
-100.154
20
-6.1979600000000001
30
0
11
-98.192499999999995
21
7.7590000000000003
31
0
0
ARC
5
302
100
AcDbEntity
8
0
100
AcDbCircle
10
-98.130178586447244
20
7.7502413983644178
30
0
40
0.062933867589924419
210
0
220
-0
230
1
100
AcDbArc
50
81.981718179069489
51
172.00009181856541
0
LINE
5
303
100
AcDbEntity
8
0
100
AcDbLine
10
-98.121399999999994
20
7.8125600000000004
30
0
11
-84.26339999999999
21
5.8649500000000012
31
0
0
ARC
5
304
100
AcDbEntity
8
0
100
AcDbCircle
10
-84.272150039570278
20
5.8026900771383119
30
0
40
0.062871783712777879
210
-0
220
0
230
1
100
AcDbArc
50
-8.0644385873043305
51
82.00001981511646
0
LINE
5
305
100
AcDbEntity
8
0
100
AcDbLine
10
-84.209900000000005
20
5.7938700000000001
30
0
11
-86.171400000000006
21
-8.1630800000000008
31
0
0
ARC
5
306
100
AcDbEntity
8
0
100
AcDbCircle
10
-86.233738856404671
20
-8.154321517536939
30
0
40
0.062951124159109167
210
0
220
0
230
1
100
AcDbArc
50
261.99996283386793
51
352.00240869370941
0
LINE
5
307
100
AcDbEntity
8
0
100
AcDbLine
10
-86.242500000000007
20
-8.216660000000001
30
0
11
-100.10040000000001
21
-6.26905
31
0
0
ARC
5
308
100
AcDbEntity
8
0
100
AcDbCircle
10
-121.83225324326209
20
-4.412821449128657
30
0
40
0.062900240910327088
210
0
220
0
230
1
100
AcDbArc
50
175.99657566537954
51
266.58506075453761
0
LINE
5
309
100
AcDbEntity
8
0
100
AcDbLine
10
-121.89500000000001
20
-4.4084300000000001
30
0
11
-120.911
21
9.6513500000000008
31
0
0
ARC
5
310
100
AcDbEntity
8
0
100
AcDbCircle
10
-120.84821814819654
20
9.6469560946775417
30
0
40
0.062935421821529364
210
0
220
-0
230
1
100
AcDbArc
50
86.156959089538844
51
175.99657566538008
0
LINE
5
311
100
AcDbEntity
8
0
100
AcDbLine
10
-120.84400000000001
20
9.7097499999999997
30
0
11
-106.88420000000001
21
8.7335700000000003
31
0
0
ARC
5
312
100
AcDbEntity
8
0
100
AcDbCircle
10
-106.88859082526386
20
8.6707792825928891
30
0
40
0.062944050862633494
210
-0
220
0
230
1
100
AcDbArc
50
-3.9986564187034688
51
85.99993591367955
0
LINE
5
313
100
AcDbEntity
8
0
100
AcDbLine
10
-106.8258
20
8.6663899999999998
30
0
11
-107.80889999999999
21
-5.3934000000000006
31
0
0
ARC
5
314
100
AcDbEntity
8
0
100
AcDbCircle
10
-107.87170787089197
20
-5.3889801871221135
30
0
40
0.062963190769342564
210
0
220
0
230
1
100
AcDbArc
50
265.99996447461552
51
355.97471065523763
0
LINE
5
315
100
AcDbEntity
8
0
100
AcDbLine
10
-107.87609999999999
20
-5.4517899999999999
30
0
11
-121.836
21
-4.4756099999999996
31
0
0
ARC
5
316
100
AcDbEntity
8
0
100
AcDbCircle
10
-108.21389044418868
20
-10.2829852003073
30
0
40
0.062938520619726018
210
-0
220
0
230
1
100
AcDbArc
50
-3.9310405032275146
51
85.999931623496863
0
LINE
5
317
100
AcDbEntity
8
0
100
AcDbLine
10
-108.15110000000001
20
-10.287300000000002
30
0
11
-109.1343
21
-24.347100000000005
31
0
0
ARC
5
318
100
AcDbEntity
8
0
100
AcDbCircle
10
-109.19710801124458
20
-24.342690781581577
30
0
40
0.062962587967465566
210
0
220
0
230
1
100
AcDbArc
50
266.00005414842491
51
355.98433676682919
0
LINE
5
319
100
AcDbEntity
8
0
100
AcDbLine
10
-109.2015
20
-24.4055
30
0
11
-123.16200000000002
21
-23.429300000000005
31
0
0
ARC
5
320
100
AcDbEntity
8
0
100
AcDbCircle
10
-123.15763694104999
20
-23.366904502691924
30
0
40
0.062547856619724534
210
0
220
0
230
1
100
AcDbArc
50
175.59458684414477
51
266.00005414843127
0
LINE
5
321
100
AcDbEntity
8
0
100
AcDbLine
10
-123.22000000000001
20
-23.362100000000005
30
0
11
-122.23700000000001
21
-9.3023600000000002
31
0
0
ARC
5
322
100
AcDbEntity
8
0
100
AcDbCircle
10
-122.17423226017172
20
-9.30674846580742
30
0
40
0.062920964672314283
210
0
220
-0
230
1
100
AcDbArc
50
86.143195334953461
51
176.00061963546105
0
LINE
5
323
100
AcDbEntity
8
0
100
AcDbLine
10
-122.17
20
-9.2439699999999991
30
0
11
-108.20950000000002
21
-10.220200000000002
31
0
0
ARC
5
324
100
AcDbEntity
8
0
100
AcDbCircle
10
-109.5392094804717
20
-29.236614734121417
30
0
40
0.062862624013435744
210
-0
220
0
230
1
100
AcDbArc
50
-4.0001744169629143
51
86.069065537208104
0
LINE
5
325
100
AcDbEntity
8
0
100
AcDbLine
10
-109.47650000000002
20
-29.241
30
0
11
-110.4597
21
-43.30080000000001
31
0
0
ARC
5
326
100
AcDbEntity
8
0
100
AcDbCircle
10
-110.52250789477245
20
-43.296390915604313
30
0
40
0.062962462395899074
210
0
220
0
230
1
100
AcDbArc
50
265.99993990964896
51
355.98445100560366
0
LINE
5
327
100
AcDbEntity
8
0
100
AcDbLine
10
-110.5269
20
-43.359200000000008
30
0
11
-124.48700000000002
21
-42.38300000000001
31
0
0
ARC
5
328
100
AcDbEntity
8
0
100
AcDbCircle
10
-124.4826373353561
20
-42.320611929219865
30
0
40
0.062540420677049152
210
0
220
0
230
1
100
AcDbArc
50
175.67911881337355
51
265.99993990965231
0
LINE
5
329
100
AcDbEntity
8
0
100
AcDbLine
10
-124.54500000000002
20
-42.315899999999999
30
0
11
-123.56200000000001
21
-28.256100000000004
31
0
0
ARC
5
330
100
AcDbEntity
8
0
100
AcDbCircle
10
-123.49922229876711
20
-28.260489143537747
30
0
40
0.062930949087727686
210
0
220
-0
230
1
100
AcDbArc
50
86.152898107526369
51
176.00063664737664
0
LINE
5
331
100
AcDbEntity
8
0
100
AcDbLine
10
-123.495
20
-28.197700000000001
30
0
11
-109.53490000000001
21
-29.173900000000003
31
0
0
ARC
5
332
100
AcDbEntity
8
0
100
AcDbCircle
10
-102.73593719648727
20
-25.021752587770663
30
0
40
0.062960198038901849
210
0
220
0
230
1
100
AcDbArc
50
172.10087103695952
51
261.99959793476182
0
LINE
5
333
100
AcDbEntity
8
0
100
AcDbLine
10
-102.79830000000001
20
-25.013100000000001
30
0
11
-100.83669999999999
21
-11.056100000000002
31
0
0
ARC
5
334
100
AcDbEntity
8
0
100
AcDbCircle
10
-100.77435269455846
20
-11.064862662058763
30
0
40
0.062960072603019127
210
0
220
-0
230
1
100
AcDbArc
50
82.100757087575076
51
171.99971188413573
0
LINE
5
335
100
AcDbEntity
8
0
100
AcDbLine
10
-100.76570000000001
20
-11.0025
30
0
11
-86.907700000000006
21
-12.950100000000003
31
0
0
ARC
5
336
100
AcDbEntity
8
0
100
AcDbCircle
10
-86.916549756881409
20
-13.012437440128764
30
0
40
0.062962485963214576
210
-0
220
0
230
1
100
AcDbArc
50
-7.9998855509506832
51
81.91997759500272
0
LINE
5
337
100
AcDbEntity
8
0
100
AcDbLine
10
-86.854200000000006
20
-13.021200000000002
30
0
11
-88.815699999999993
21
-26.978200000000001
31
0
0
ARC
5
338
100
AcDbEntity
8
0
100
AcDbCircle
10
-88.87803890187061
20
-26.969464721585826
30
0
40
0.062947944965706965
210
0
220
0
230
1
100
AcDbArc
50
261.99959793474915
51
352.02332956363767
0
LINE
5
339
100
AcDbEntity
8
0
100
AcDbLine
10
-88.886800000000008
20
-27.0318
30
0
11
-102.74469999999999
21
-25.084099999999999
31
0
0
ARC
5
340
100
AcDbEntity
8
0
100
AcDbCircle
10
-83.92083577564685
20
-27.666039276718301
30
0
40
0.062973577290230079
210
0
220
0
230
1
100
AcDbArc
50
172.02292412014253
51
262.00000337824963
0
LINE
5
341
100
AcDbEntity
8
0
100
AcDbLine
10
-83.983199999999997
20
-27.657299999999999
30
0
11
-82.021699999999981
21
-13.700400000000002
31
0
0
ARC
5
342
100
AcDbEntity
8
0
100
AcDbCircle
10
-81.959339327717942
20
-13.709164156702512
30
0
40
0.062973517371803706
210
0
220
-0
230
1
100
AcDbArc
50
82.022869625773566
51
172.00005787260491
0
LINE
5
343
100
AcDbEntity
8
0
100
AcDbLine
10
-81.950599999999994
20
-13.646800000000001
30
0
11
-68.092600000000004
21
-15.594400000000002
31
0
0
ARC
5
344
100
AcDbEntity
8
0
100
AcDbCircle
10
-68.101350379690459
20
-15.656662662636284
30
0
40
0.062874544159674944
210
-0
220
0
230
1
100
AcDbArc
50
-8.0799683151932058
51
82.000060359251989
0
LINE
5
345
100
AcDbEntity
8
0
100
AcDbLine
10
-68.039100000000005
20
-15.665500000000002
30
0
11
-70.000600000000006
21
-29.622500000000002
31
0
0
ARC
5
346
100
AcDbEntity
8
0
100
AcDbCircle
10
-70.062862612200362
20
-29.613749687337467
30
0
40
0.062874484886195126
210
0
220
0
230
1
100
AcDbArc
50
261.91997759499873
51
352.00011444904925
0
LINE
5
347
100
AcDbEntity
8
0
100
AcDbLine
10
-70.071700000000007
20
-29.676000000000002
30
0
11
-83.929599999999994
21
-27.728400000000004
31
0
0
ARC
5
348
100
AcDbEntity
8
0
100
AcDbCircle
10
-65.105735775646863
20
-30.310339276718302
30
0
40
0.062973577290230079
210
0
220
0
230
1
100
AcDbArc
50
172.02292412014572
51
262.00000337826191
0
LINE
5
349
100
AcDbEntity
8
0
100
AcDbLine
10
-65.16810000000001
20
-30.301600000000004
30
0
11
-63.206600000000002
21
-16.3447
31
0
0
ARC
5
350
100
AcDbEntity
8
0
100
AcDbCircle
10
-63.144260665708529
20
-16.353435852017228
30
0
40
0.062948452803625751
210
0
220
-0
230
1
100
AcDbArc
50
82.000060359242283
51
172.02286713915061
0
LINE
5
351
100
AcDbEntity
8
0
100
AcDbLine
10
-63.1355
20
-16.2911
30
0
11
-49.277500000000003
21
-18.238700000000001
31
0
0
ARC
5
352
100
AcDbEntity
8
0
100
AcDbCircle
10
-49.286349756881407
20
-18.301037440128763
30
0
40
0.062962485963205778
210
-0
220
0
230
1
100
AcDbArc
50
-7.9998855509490552
51
81.919977595001797
0
LINE
5
353
100
AcDbEntity
8
0
100
AcDbLine
10
-49.224000000000004
20
-18.309799999999999
30
0
11
-51.185499999999998
21
-32.266800000000003
31
0
0
ARC
5
354
100
AcDbEntity
8
0
100
AcDbCircle
10
-51.247837336271218
20
-32.257950381142372
30
0
40
0.062962363736724494
210
0
220
0
230
1
100
AcDbArc
50
262.00000337825173
51
351.92008866580579
0
LINE
5
355
100
AcDbEntity
8
0
100
AcDbLine
10
-51.256599999999999
20
-32.320300000000003
30
0
11
-65.114499999999992
21
-30.372699999999998
31
0
0
ARC
5
356
100
AcDbEntity
8
0
100
AcDbCircle
10
-51.930649686575777
20
-37.116137387226502
30
0
40
0.062962423704264844
210
-0
220
0
230
1
100
AcDbArc
50
-7.9999421273940756
51
81.920034171455569
0
LINE
5
357
100
AcDbEntity
8
0
100
AcDbLine
10
-51.868300000000005
20
-37.124899999999997
30
0
11
-53.829799999999999
21
-51.081800000000008
31
0
0
ARC
5
358
100
AcDbEntity
8
0
100
AcDbCircle
10
-53.892139281007218
20
-51.073064218663937
30
0
40
0.062948390226030715
210
0
220
0
230
1
100
AcDbArc
50
262.00000337824542
51
352.02292412013236
0
LINE
5
359
100
AcDbEntity
8
0
100
AcDbLine
10
-53.900900000000007
20
-51.135400000000004
30
0
11
-67.758800000000008
21
-49.18780000000001
31
0
0
ARC
5
360
100
AcDbEntity
8
0
100
AcDbCircle
10
-67.750064151067278
20
-49.125460668033853
30
0
40
0.062948450072758413
210
0
220
0
230
1
100
AcDbArc
50
172.0000578726052
51
262.02286962577324
0
LINE
5
361
100
AcDbEntity
8
0
100
AcDbLine
10
-67.812399999999997
20
-49.116700000000009
30
0
11
-65.85090000000001
21
-35.159799999999997
31
0
0
ARC
5
362
100
AcDbEntity
8
0
100
AcDbCircle
10
-65.788539327717956
20
-35.168564156702509
30
0
40
0.062973517371800541
210
0
220
-0
230
1
100
AcDbArc
50
82.022869625760293
51
172.00005787260469
0
LINE
5
363
100
AcDbEntity
8
0
100
AcDbLine
10
-65.779799999999994
20
-35.106200000000001
30
0
11
-51.921800000000005
21
-37.053800000000003
31
0
0
ARC
5
364
100
AcDbEntity
8
0
100
AcDbCircle
10
-86.565164650422901
20
-46.481161044481979
30
0
40
0.062948007969373221
210
0
220
0
230
1
100
AcDbArc
50
171.99965530491519
51
262.02327219345977
0
LINE
5
365
100
AcDbEntity
8
0
100
AcDbLine
10
-86.627499999999998
20
-46.4724
30
0
11
-84.665899999999993
21
-32.515500000000003
31
0
0
ARC
5
366
100
AcDbEntity
8
0
100
AcDbCircle
10
-84.603552641535231
20
-32.524262732294751
30
0
40
0.062960134885525515
210
0
220
-0
230
1
100
AcDbArc
50
82.100813666786735
51
171.99965530491883
0
LINE
5
367
100
AcDbEntity
8
0
100
AcDbLine
10
-84.594899999999996
20
-32.4619
30
0
11
-70.736900000000006
21
-34.409500000000001
31
0
0
ARC
5
368
100
AcDbEntity
8
0
100
AcDbCircle
10
-70.74565037969046
20
-34.471762662636287
30
0
40
0.062874544159674944
210
-0
220
0
230
1
100
AcDbArc
50
-8.0799683151916266
51
82.000060359252444
0
LINE
5
369
100
AcDbEntity
8
0
100
AcDbLine
10
-70.683400000000006
20
-34.480600000000003
30
0
11
-72.644900000000007
21
-48.437600000000003
31
0
0
ARC
5
370
100
AcDbEntity
8
0
100
AcDbCircle
10
-72.70723733627122
20
-48.428750381142372
30
0
40
0.062962363736724494
210
0
220
0
230
1
100
AcDbArc
50
262.00000337824531
51
351.92008866580579
0
LINE
5
371
100
AcDbEntity
8
0
100
AcDbLine
10
-72.716000000000008
20
-48.491100000000003
30
0
11
-86.573899999999995
21
-46.543500000000002
31
0
0
ARC
5
372
100
AcDbEntity
8
0
100
AcDbCircle
10
-105.38023769979232
20
-43.83685296773055
30
0
40
0.062959751728693794
210
0
220
0
230
1
100
AcDbArc
50
172.10046559345645
51
262.00000337824952
0
LINE
5
373
100
AcDbEntity
8
0
100
AcDbLine
10
-105.4426
20
-43.82820000000001
30
0
11
-103.48100000000001
21
-29.871200000000005
31
0
0
ARC
5
374
100
AcDbEntity
8
0
100
AcDbCircle
10
-103.41865269455846
20
-29.879962662058766
30
0
40
0.062960072603025954
210
0
220
-0
230
1
100
AcDbArc
50
82.100757087562698
51
171.9997118841375
0
LINE
5
375
100
AcDbEntity
8
0
100
AcDbLine
10
-103.41
20
-29.817599999999999
30
0
11
-89.551999999999992
21
-31.7652
31
0
0
ARC
5
376
100
AcDbEntity
8
0
100
AcDbCircle
10
-89.560849756881424
20
-31.827537440128765
30
0
40
0.062962485963214576
210
-0
220
0
230
1
100
AcDbArc
50
-7.9998855509504798
51
81.919977594977098
0
LINE
5
377
100
AcDbEntity
8
0
100
AcDbLine
10
-89.498500000000007
20
-31.836300000000005
30
0
11
-91.460000000000008
21
-45.793300000000002
31
0
0
ARC
5
378
100
AcDbEntity
8
0
100
AcDbCircle
10
-91.522337336271207
20
-45.784450381142364
30
0
40
0.062962363736734528
210
0
220
0
230
1
100
AcDbArc
50
262.00000337824622
51
351.92008866579943
0
LINE
5
379
100
AcDbEntity
8
0
100
AcDbLine
10
-91.531099999999995
20
-45.846800000000002
30
0
11
-105.389
21
-43.8992
31
0
0
ARC
5
380
100
AcDbEntity
8
0
100
AcDbCircle
10
-73.389935419759027
20
-53.286939008425932
30
0
40
0.062948070104607831
210
-0
220
0
230
1
100
AcDbArc
50
-8.0002881158647376
51
82.023215614253814
0
LINE
5
381
100
AcDbEntity
8
0
100
AcDbLine
10
-73.327600000000004
20
-53.295700000000004
30
0
11
-75.289200000000008
21
-67.252700000000004
31
0
0
ARC
5
382
100
AcDbEntity
8
0
100
AcDbCircle
10
-75.351537336271221
20
-67.243850381142366
30
0
40
0.062962363736733293
210
0
220
0
230
1
100
AcDbArc
50
262.00000337825907
51
351.92008866579943
0
LINE
5
383
100
AcDbEntity
8
0
100
AcDbLine
10
-75.360299999999995
20
-67.306200000000004
30
0
11
-89.218199999999996
21
-65.358599999999996
31
0
0
ARC
5
384
100
AcDbEntity
8
0
100
AcDbCircle
10
-89.209435775646853
20
-65.296239276718296
30
0
40
0.06297357729023069
210
0
220
0
230
1
100
AcDbArc
50
172.02292412014253
51
262.00000337824963
0
LINE
5
385
100
AcDbEntity
8
0
100
AcDbLine
10
-89.271799999999999
20
-65.287499999999994
30
0
11
-87.310200000000009
21
-51.330600000000004
31
0
0
ARC
5
386
100
AcDbEntity
8
0
100
AcDbCircle
10
-87.247860718992769
20
-51.339335781336075
30
0
40
0.062948390226028245
210
0
220
-0
230
1
100
AcDbArc
50
82.000003378271032
51
172.02292412013327
0
LINE
5
387
100
AcDbEntity
8
0
100
AcDbLine
10
-87.239100000000008
20
-51.277000000000008
30
0
11
-73.381200000000007
21
-53.224600000000002
31
0
0
ARC
5
388
100
AcDbEntity
8
0
100
AcDbCircle
10
-70.394335775646866
20
-67.940539276718312
30
0
40
0.062973577290223126
210
0
220
0
230
1
100
AcDbArc
50
172.02292412012793
51
262.00000337824775
0
LINE
5
389
100
AcDbEntity
8
0
100
AcDbLine
10
-70.456699999999998
20
-67.931799999999996
30
0
11
-68.495100000000008
21
-53.974900000000005
31
0
0
ARC
5
390
100
AcDbEntity
8
0
100
AcDbCircle
10
-68.432846896663193
20
-53.983537879420034
30
0
40
0.06284951738826744
210
0
220
-0
230
1
100
AcDbArc
50
82.000060359247982
51
172.10040861246114
0
LINE
5
391
100
AcDbEntity
8
0
100
AcDbLine
10
-68.42410000000001
20
-53.921300000000009
30
0
11
-54.566099999999992
21
-55.868900000000004
31
0
0
ARC
5
392
100
AcDbEntity
8
0
100
AcDbCircle
10
-54.574850379690467
20
-55.931162662636289
30
0
40
0.062874544159683118
210
-0
220
0
230
1
100
AcDbArc
50
-8.0799683151888786
51
82.000060359233203
0
LINE
5
393
100
AcDbEntity
8
0
100
AcDbLine
10
-54.512599999999992
20
-55.940000000000005
30
0
11
-56.4741
21
-69.896900000000002
31
0
0
ARC
5
394
100
AcDbEntity
8
0
100
AcDbCircle
10
-56.536439281007219
20
-69.888164218663945
30
0
40
0.062948390226029494
210
0
220
0
230
1
100
AcDbArc
50
262.00000337824451
51
352.0229241201443
0
LINE
5
395
100
AcDbEntity
8
0
100
AcDbLine
10
-56.545200000000008
20
-69.950500000000005
30
0
11
-70.403100000000009
21
-68.002900000000011
31
0
0
LINE
5
396
100
AcDbEntity
8
0
100
AcDbLine
10
-81.000001206994057
20
19.000000283122063
30
0
11
-81.000001206994057
21
120.00000178813934
31
0
0
LINE
5
397
100
AcDbEntity
8
0
100
AcDbLine
10
-81.000001206994057
20
120.00000178813934
30
0
11
85.000001266598701
21
120.00000178813934
31
0
0
LINE
5
398
100
AcDbEntity
8
0
100
AcDbLine
10
85.000001266598701
20
120.00000178813934
30
0
11
85.000001266598701
21
19.000000283122063
31
0
0
LINE
5
399
100
AcDbEntity
8
0
100
AcDbLine
10
26.000000387430184
20
-38.947000014901164
30
0
11
26.000000387430191
21
-88.000001311302185
31
0
0
LINE
5
400
100
AcDbEntity
8
0
100
AcDbLine
10
-26.000000387430191
20
-88.000001311302185
30
0
11
-26.000000387430191
21
-38.947000014901185
31
0
0
LINE
5
401
100
AcDbEntity
8
0
100
AcDbLine
10
26.000000387430191
20
-88.000001311302185
30
0
11
-26.000000387430191
21
-88.000001311302185
31
0
0
LINE
5
402
100
AcDbEntity
8
0
100
AcDbLine
10
-89.000001326203346
20
44.000000655651093
30
0
11
-121.0000018030405
21
44.000000655651093
31
0
0
LINE
5
403
100
AcDbEntity
8
0
100
AcDbLine
10
-121.0000018030405
20
44.000000655651093
30
0
11
-121.0000018030405
21
116.0000017285347
31
0
0
LINE
5
404
100
AcDbEntity
8
0
100
AcDbLine
10
-89.000001326203346
20
116.0000017285347
30
0
11
-89.000001326203346
21
44.000000655651093
31
0
0
LINE
5
405
100
AcDbEntity
8
0
100
AcDbLine
10
-121.0000018030405
20
116.0000017285347
30
0
11
-89.000001326203346
21
116.0000017285347
31
0
0
LINE
5
406
100
AcDbEntity
8
0
100
AcDbLine
10
121.0000018030405
20
44.000000655651093
30
0
11
89.000001326203346
21
44.000000655651093
31
0
0
LINE
5
407
100
AcDbEntity
8
0
100
AcDbLine
10
89.000001326203346
20
44.000000655651093
30
0
11
89.000001326203346
21
116.0000017285347
31
0
0
LINE
5
408
100
AcDbEntity
8
0
100
AcDbLine
10
121.0000018030405
20
116.0000017285347
30
0
11
121.0000018030405
21
44.000000655651093
31
0
0
LINE
5
409
100
AcDbEntity
8
0
100
AcDbLine
10
89.000001326203346
20
116.0000017285347
30
0
11
121.0000018030405
21
116.0000017285347
31
0
0
ARC
5
410
100
AcDbEntity
8
0
100
AcDbCircle
10
-96.000000000000028
20
36.499999999999972
30
0
40
0.50000000000002487
210
0
220
-0
230
1
100
AcDbArc
50
0
51
90
0
LINE
5
411
100
AcDbEntity
8
0
100
AcDbLine
10
-95.5
20
36.499999999999972
30
0
11
-95.5
21
19.500000000000039
31
0
0
ARC
5
412
100
AcDbEntity
8
0
100
AcDbCircle
10
-96.000000000000028
20
19.500000000000039
30
0
40
0.50000000000002931
210
0
220
0
230
1
100
AcDbArc
50
-90
51
0
0
LINE
5
413
100
AcDbEntity
8
0
100
AcDbLine
10
-96.000000000000028
20
19.000000000000011
30
0
11
-113.99999999999999
21
19.000000000000011
31
0
0
ARC
5
414
100
AcDbEntity
8
0
100
AcDbCircle
10
-113.99999999999999
20
19.500000000000036
30
0
40
0.50000000000002487
210
0
220
0
230
1
100
AcDbArc
50
180
51
270
0
LINE
5
415
100
AcDbEntity
8
0
100
AcDbLine
10
-114.50000000000001
20
19.500000000000036
30
0
11
-114.50000000000001
21
36.500000000000007
31
0
0
ARC
5
416
100
AcDbEntity
8
0
100
AcDbCircle
10
-113.99999999999999
20
36.499999999999972
30
0
40
0.50000000000002487
210
0
220
0
230
1
100
AcDbArc
50
90.000000000001634
51
180
0
LINE
5
417
100
AcDbEntity
8
0
100
AcDbLine
10
-114
20
37
30
0
11
-96.000000000000028
21
37
31
0
0
CIRCLE
5
418
100
AcDbEntity
8
0
100
AcDbCircle
10
-130.00000193715096
20
125.00000186264515
30
0
40
1.7500000000000091
210
0
220
-0
230
1
0
CIRCLE
5
419
100
AcDbEntity
8
0
100
AcDbCircle
10
-108.5
20
126.00000189244747
30
0
40
1.7500000000000071
210
0
220
-0
230
1
0
CIRCLE
5
420
100
AcDbEntity
8
0
100
AcDbCircle
10
-132.99999803304675
20
88.000001654028893
30
0
40
1.749999999999996
210
0
220
-0
230
1
0
CIRCLE
5
421
100
AcDbEntity
8
0
100
AcDbCircle
10
-132.99999803304675
20
68.000001654028893
30
0
40
1.749999999999996
210
0
220
-0
230
1
0
CIRCLE
5
422
100
AcDbEntity
8
0
100
AcDbCircle
10
-132.99999803304675
20
12.500001654028896
30
0
40
1.749999999999996
210
0
220
-0
230
1
0
CIRCLE
5
423
100
AcDbEntity
8
0
100
AcDbCircle
10
-132.99999803304675
20
-34.000000000000014
30
0
40
1.749999999999996
210
0
220
-0
230
1
0
CIRCLE
5
424
100
AcDbEntity
8
0
100
AcDbCircle
10
-127.99999806284907
20
-80.999998137354851
30
0
40
1.7500000000000022
210
0
220
-0
230
1
0
CIRCLE
5
425
100
AcDbEntity
8
0
100
AcDbCircle
10
-108.5
20
-91.999998107552528
30
0
40
1.7500000000000071
210
0
220
-0
230
1
0
CIRCLE
5
426
100
AcDbEntity
8
0
100
AcDbCircle
10
-32
20
-91.999998107552528
30
0
40
1.7500000000000071
210
0
220
-0
230
1
0
CIRCLE
5
427
100
AcDbEntity
8
0
100
AcDbCircle
10
31.999999999999993
20
-91.999998107552528
30
0
40
1.7500000000000071
210
0
220
-0
230
1
0
CIRCLE
5
428
100
AcDbEntity
8
0
100
AcDbCircle
10
108.5
20
-91.999998107552528
30
0
40
1.7500000000000071
210
0
220
-0
230
1
0
CIRCLE
5
429
100
AcDbEntity
8
0
100
AcDbCircle
10
128.00000193715096
20
-80.999998137354851
30
0
40
1.7500000000000022
210
0
220
-0
230
1
0
CIRCLE
5
430
100
AcDbEntity
8
0
100
AcDbCircle
10
133.00000196695328
20
12.500001654028896
30
0
40
1.749999999999996
210
0
220
-0
230
1
0
CIRCLE
5
431
100
AcDbEntity
8
0
100
AcDbCircle
10
133.00000196695328
20
68.000001654028893
30
0
40
1.749999999999996
210
0
220
-0
230
1
0
CIRCLE
5
432
100
AcDbEntity
8
0
100
AcDbCircle
10
133.00000196695328
20
88.000001654028893
30
0
40
1.749999999999996
210
0
220
-0
230
1
0
CIRCLE
5
433
100
AcDbEntity
8
0
100
AcDbCircle
10
130.00000193715096
20
125.00000186264515
30
0
40
1.7500000000000022
210
0
220
-0
230
1
0
CIRCLE
5
434
100
AcDbEntity
8
0
100
AcDbCircle
10
108.5
20
126.00000189244747
30
0
40
1.7500000000000071
210
0
220
-0
230
1
0
CIRCLE
5
435
100
AcDbEntity
8
0
100
AcDbCircle
10
31.999999999999993
20
126.00000189244747
30
0
40
1.7500000000000071
210
0
220
-0
230
1
0
CIRCLE
5
436
100
AcDbEntity
8
0
100
AcDbCircle
10
-32
20
126.00000189244747
30
0
40
1.7500000000000071
210
0
220
-0
230
1
0
LINE
5
437
100
AcDbEntity
8
0
100
AcDbLine
10
-24.410234100448911
20
19.000000283122066
30
0
11
-81.000001206994057
21
19.000000283122063
31
0
0
LINE
5
438
100
AcDbEntity
8
0
100
AcDbLine
10
-24.410234100448911
20
0.91031380363491232
30
0
11
-24.410234100448911
21
19.000000283122066
31
0
0
LINE
5
439
100
AcDbEntity
8
0
100
AcDbLine
10
24.976188491071397
20
0.90964593606805311
30
0
11
24.976188491071397
21
19.000000283122063
31
0
0
LINE
5
440
100
AcDbEntity
8
0
100
AcDbLine
10
85.000001266598701
20
19.000000283122063
30
0
11
24.976188491071394
21
19.000000283122063
31
0
0
LINE
5
441
100
AcDbEntity
8
0
100
AcDbLine
10
-26.000000387430191
20
-38.947000014901185
30
0
11
-24.410234100448911
21
0.91031380363491232
31
0
0
LINE
5
442
100
AcDbEntity
8
0
100
AcDbLine
10
24.976188491071397
20
0.90964593606805311
30
0
11
26.000000387430184
21
-38.947000014901164
31
0
0
CIRCLE
5
443
100
AcDbEntity
8
0
100
AcDbCircle
10
-102.95000000000002
20
4.3499999999999961
30
0
40
1.2499999999999969
210
0
220
0
230
1
0
CIRCLE
5
444
100
AcDbEntity
8
0
100
AcDbCircle
10
-106.25
20
-27.150000000000006
30
0
40
1.2499999999999911
210
0
220
0
230
1
0
CIRCLE
5
445
100
AcDbEntity
8
0
100
AcDbCircle
10
-46.403999999999996
20
-16.234000000000002
30
0
40
1.2499999999999987
210
0
220
0
230
1
0
CIRCLE
5
446
100
AcDbEntity
8
0
100
AcDbCircle
10
-70.549999999999997
20
-51.25
30
0
40
1.25
210
0
220
0
230
1
0
CIRCLE
5
447
100
AcDbEntity
8
0
100
AcDbCircle
10
46.305999999999997
20
-16.234000000000002
30
0
40
1.25
210
0
220
0
230
1
0
CIRCLE
5
448
100
AcDbEntity
8
0
100
AcDbCircle
10
102.95
20
4.3499999999999961
30
0
40
1.25
210
0
220
0
230
1
0
CIRCLE
5
449
100
AcDbEntity
8
0
100
AcDbCircle
10
106.15000000000001
20
-27.150000000000006
30
0
40
1.25
210
0
220
0
230
1
0
CIRCLE
5
450
100
AcDbEntity
8
0
100
AcDbCircle
10
70.450000000000003
20
-51.15000000000002
30
0
40
1.2500000000000011
210
0
220
0
230
1
0
ENDSEC
0
SECTION
2
OBJECTS
0
DICTIONARY
5
C
100
AcDbDictionary
3
ACAD_GROUP
350
D
3
ACAD_MLINESTYLE
350
17
0
DICTIONARY
5
D
100
AcDbDictionary
0
DICTIONARY
5
1A
330
C
100
AcDbDictionary
0
DICTIONARY
5
17
100
AcDbDictionary
0
ENDSEC
0
EOF
