0
SECTION
2
HEADER
9
$INSUNITS
70
4
9
$ACADVER
1
AC1014
9
$HANDSEED
5
FFFF
0
ENDSEC
0
SECTION
2
TABLES
0
TABLE
2
VPORT
5
8
100
AcDbSymbolTable
0
ENDTAB
0
TABLE
2
LTYPE
5
5
100
AcDbSymbolTable
0
LTYPE
5
14
100
AcDbSymbolTableRecord
100
AcDbLinetypeTableRecord
2
BYBLOCK
70
0
0
LTYPE
5
15
100
AcDbSymbolTableRecord
100
AcDbLinetypeTableRecord
2
BYLAYER
70
0
0
ENDTAB
0
TABLE
2
LAYER
5
2
100
AcDbSymbolTable
70
2
0
LAYER
5
50
100
AcDbSymbolTableRecord
100
AcDbLayerTableRecord
2
0
70
0
6
CONTINUOUS
0
ENDTAB
0
TABLE
2
STYLE
5
3
100
AcDbSymbolTable
70
1
0
STYLE
5
11
100
AcDbSymbolTableRecord
100
AcDbTextStyleTableRecord
2
STANDARD
70
0
0
ENDTAB
0
TABLE
2
VIEW
5
6
100
AcDbSymbolTable
70
0
0
ENDTAB
0
TABLE
2
UCS
5
7
100
AcDbSymbolTable
70
0
0
ENDTAB
0
TABLE
2
APPID
5
9
100
AcDbSymbolTable
70
2
0
APPID
5
12
100
AcDbSymbolTableRecord
100
AcDbRegAppTableRecord
2
ACAD
70
0
0
ENDTAB
0
TABLE
2
DIMSTYLE
5
A
100
AcDbSymbolTable
70
1
0
ENDTAB
0
TABLE
2
BLOCK_RECORD
5
1
100
AcDbSymbolTable
70
1
0
BLOCK_RECORD
5
1F
100
AcDbSymbolTableRecord
100
AcDbBlockTableRecord
2
*MODEL_SPACE
0
BLOCK_RECORD
5
1B
100
AcDbSymbolTableRecord
100
AcDbBlockTableRecord
2
*PAPER_SPACE
0
ENDTAB
0
ENDSEC
0
SECTION
2
BLOCKS
0
BLOCK
5
20
100
AcDbEntity
100
AcDbBlockBegin
2
*MODEL_SPACE
0
ENDBLK
5
21
100
AcDbEntity
100
AcDbBlockEnd
0
BLOCK
5
1C
100
AcDbEntity
100
AcDbBlockBegin
2
*PAPER_SPACE
0
ENDBLK
5
1D
100
AcDbEntity
100
AcDbBlockEnd
0
ENDSEC
0
SECTION
2
ENTITIES
0
ARC
5
100
100
AcDbEntity
8
0
100
AcDbCircle
10
-127.00000000000001
20
120
30
0
40
10
210
0
220
-0
230
1
100
AcDbArc
50
90
51
180
0
LINE
5
101
100
AcDbEntity
8
0
100
AcDbLine
10
-127.00000000000001
20
130
30
0
11
127.00000000000001
21
130
31
0
0
ARC
5
102
100
AcDbEntity
8
0
100
AcDbCircle
10
127.00000000000001
20
120
30
0
40
10
210
0
220
-0
230
1
100
AcDbArc
50
0
51
90
0
LINE
5
103
100
AcDbEntity
8
0
100
AcDbLine
10
137
20
120
30
0
11
137
21
-66.000000000000014
31
0
0
ARC
5
104
100
AcDbEntity
8
0
100
AcDbCircle
10
107
20
-66
30
0
40
30.000000000000018
210
0
220
0
230
1
100
AcDbArc
50
-90
51
0
0
LINE
5
105
100
AcDbEntity
8
0
100
AcDbLine
10
107
20
-96.000000000000014
30
0
11
-107
21
-96.000000000000014
31
0
0
ARC
5
106
100
AcDbEntity
8
0
100
AcDbCircle
10
-107
20
-66
30
0
40
30.000000000000018
210
0
220
0
230
1
100
AcDbArc
50
180
51
270
0
LINE
5
107
100
AcDbEntity
8
0
100
AcDbLine
10
-137
20
-66
30
0
11
-137
21
120.00000000000001
31
0
0
CIRCLE
5
108
100
AcDbEntity
8
0
100
AcDbCircle
10
-130.00000193715096
20
125.00000186264515
30
0
40
1.7500000000000091
210
0
220
-0
230
1
0
CIRCLE
5
109
100
AcDbEntity
8
0
100
AcDbCircle
10
-132.99999803304675
20
88.000001654028893
30
0
40
1.749999999999996
210
0
220
-0
230
1
0
CIRCLE
5
110
100
AcDbEntity
8
0
100
AcDbCircle
10
-132.99999803304675
20
68.000001654028893
30
0
40
1.749999999999996
210
0
220
-0
230
1
0
CIRCLE
5
111
100
AcDbEntity
8
0
100
AcDbCircle
10
-132.99999803304675
20
12.500001654028896
30
0
40
1.749999999999996
210
0
220
-0
230
1
0
CIRCLE
5
112
100
AcDbEntity
8
0
100
AcDbCircle
10
-132.99999803304675
20
-34.000000000000014
30
0
40
1.749999999999996
210
0
220
-0
230
1
0
CIRCLE
5
113
100
AcDbEntity
8
0
100
AcDbCircle
10
-127.99999806284907
20
-80.999998137354851
30
0
40
1.7500000000000022
210
0
220
-0
230
1
0
CIRCLE
5
114
100
AcDbEntity
8
0
100
AcDbCircle
10
-108.5
20
-91.999998107552528
30
0
40
1.7500000000000071
210
0
220
-0
230
1
0
CIRCLE
5
115
100
AcDbEntity
8
0
100
AcDbCircle
10
-32
20
-91.999998107552528
30
0
40
1.7500000000000071
210
0
220
-0
230
1
0
CIRCLE
5
116
100
AcDbEntity
8
0
100
AcDbCircle
10
31.999999999999993
20
-91.999998107552528
30
0
40
1.7500000000000071
210
0
220
-0
230
1
0
CIRCLE
5
117
100
AcDbEntity
8
0
100
AcDbCircle
10
108.5
20
-91.999998107552528
30
0
40
1.7500000000000071
210
0
220
-0
230
1
0
CIRCLE
5
118
100
AcDbEntity
8
0
100
AcDbCircle
10
128.00000193715096
20
-80.999998137354851
30
0
40
1.7500000000000022
210
0
220
-0
230
1
0
CIRCLE
5
119
100
AcDbEntity
8
0
100
AcDbCircle
10
133.00000196695328
20
12.500001654028896
30
0
40
1.749999999999996
210
0
220
-0
230
1
0
CIRCLE
5
120
100
AcDbEntity
8
0
100
AcDbCircle
10
133.00000196695328
20
68.000001654028893
30
0
40
1.749999999999996
210
0
220
-0
230
1
0
CIRCLE
5
121
100
AcDbEntity
8
0
100
AcDbCircle
10
133.00000196695328
20
88.000001654028893
30
0
40
1.749999999999996
210
0
220
-0
230
1
0
CIRCLE
5
122
100
AcDbEntity
8
0
100
AcDbCircle
10
130.00000193715096
20
125.00000186264515
30
0
40
1.7500000000000022
210
0
220
-0
230
1
0
CIRCLE
5
123
100
AcDbEntity
8
0
100
AcDbCircle
10
108.5
20
126.00000189244747
30
0
40
1.7500000000000071
210
0
220
-0
230
1
0
CIRCLE
5
124
100
AcDbEntity
8
0
100
AcDbCircle
10
31.999999999999993
20
126.00000189244747
30
0
40
1.7500000000000071
210
0
220
-0
230
1
0
CIRCLE
5
125
100
AcDbEntity
8
0
100
AcDbCircle
10
-32
20
126.00000189244747
30
0
40
1.7500000000000071
210
0
220
-0
230
1
0
CIRCLE
5
126
100
AcDbEntity
8
0
100
AcDbCircle
10
-108.5
20
126.00000189244747
30
0
40
1.7500000000000071
210
0
220
-0
230
1
0
LINE
5
127
100
AcDbEntity
8
0
100
AcDbLine
10
-89.000001326203346
20
44.000000655651093
30
0
11
-121.0000018030405
21
44.000000655651093
31
0
0
LINE
5
128
100
AcDbEntity
8
0
100
AcDbLine
10
-121.0000018030405
20
44.000000655651093
30
0
11
-121.0000018030405
21
116.0000017285347
31
0
0
LINE
5
129
100
AcDbEntity
8
0
100
AcDbLine
10
-121.0000018030405
20
116.0000017285347
30
0
11
-89.000001326203346
21
116.0000017285347
31
0
0
LINE
5
130
100
AcDbEntity
8
0
100
AcDbLine
10
121.0000018030405
20
44.000000655651093
30
0
11
89.000001326203346
21
44.000000655651093
31
0
0
LINE
5
131
100
AcDbEntity
8
0
100
AcDbLine
10
89.000001326203346
20
44.000000655651093
30
0
11
89.000001326203346
21
116.0000017285347
31
0
0
LINE
5
132
100
AcDbEntity
8
0
100
AcDbLine
10
121.0000018030405
20
116.0000017285347
30
0
11
121.0000018030405
21
44.000000655651093
31
0
0
LINE
5
133
100
AcDbEntity
8
0
100
AcDbLine
10
89.000001326203346
20
116.0000017285347
30
0
11
121.0000018030405
21
116.0000017285347
31
0
0
LWPOLYLINE
5
134
100
AcDbEntity
8
0
100
AcDbPolyline
90
10
70
1
43
0.0
10
-16.998633252445828
20
-88.000001311302185
10
26.000000387430191
20
-88.000001311302185
10
26.000000387430187
20
-51.505055419491484
10
15.997473194782783
20
-51.500000054309005
42
-0.4134717998996455
10
11.000010518253351
20
-46.510139639695097
10
10.986701826203454
20
-39.947000014901171
10
-26.000000387430191
20
-39.947000014901178
10
-26.000000387430191
20
-76.490985271571162
10
-21.988746259725236
20
-76.500013879865548
42
-0.41349290123545257
10
-17.000000438393158
20
-81.498949703089636
0
CIRCLE
5
135
100
AcDbEntity
8
0
100
AcDbCircle
10
16.000000238418579
20
-46.500000692903996
30
0
40
1.5000000000000013
210
0
220
0
230
1
0
CIRCLE
5
136
100
AcDbEntity
8
0
100
AcDbCircle
10
-22.000000327825546
20
-81.500001214444637
30
0
40
1.5000000000000058
210
0
220
0
230
1
0
LINE
5
137
100
AcDbEntity
8
0
100
AcDbLine
10
-64.000002294778824
20
120.00000178813934
30
0
11
70.999999716877937
21
120.00000178813934
31
0
0
LINE
5
138
100
AcDbEntity
8
0
100
AcDbLine
10
70.999999716877937
20
120.00000178813934
30
0
11
69.999999701976776
21
19.000000283122063
31
0
0
LINE
5
139
100
AcDbEntity
8
0
100
AcDbLine
10
-80.000002533197403
20
110.00000163912773
30
0
11
-64.000002294778824
21
110.00000163912773
31
0
0
LINE
5
140
100
AcDbEntity
8
0
100
AcDbLine
10
-80.000002533197403
20
29.000000432133675
30
0
11
-64.000002294778824
21
29.000000432133675
31
0
0
LINE
5
141
100
AcDbEntity
8
0
100
AcDbLine
10
-64.000002294778824
20
120.00000178813934
30
0
11
-64.000002294778824
21
110.00000163912773
31
0
0
LINE
5
142
100
AcDbEntity
8
0
100
AcDbLine
10
-64.000002294778824
20
29.000000432133675
30
0
11
-64.000002294778824
21
19.000000283122063
31
0
0
CIRCLE
5
143
100
AcDbEntity
8
0
100
AcDbCircle
10
-76.599998287856579
20
113.49999741837382
30
0
40
1.3749999999999964
210
0
220
0
230
1
0
CIRCLE
5
144
100
AcDbEntity
8
0
100
AcDbCircle
10
80.39999820291996
20
113.49999741837382
30
0
40
1.3750000000000064
210
0
220
0
230
1
0
CIRCLE
5
145
100
AcDbEntity
8
0
100
AcDbCircle
10
80.39999820291996
20
25.499999474734068
30
0
40
1.3749999999999978
210
0
220
0
230
1
0
CIRCLE
5
146
100
AcDbEntity
8
0
100
AcDbCircle
10
-76.599998287856579
20
25.499999474734068
30
0
40
1.3749999999999969
210
0
220
0
230
1
0
LWPOLYLINE
5
147
100
AcDbEntity
8
0
100
AcDbPolyline
90
4
70
1
43
0.0
10
115.92304689498869
20
-42.010871187760443
10
119.33264655290071
20
-41.772446295676389
42
1.0000025301198874
10
119.16521614794455
20
-39.378298421798092
10
115.75522038280499
20
-39.616778983122565
42
1.0001637462995314
0
LWPOLYLINE
5
148
100
AcDbEntity
8
0
100
AcDbPolyline
90
4
70
1
43
0.0
10
46.019868201777513
20
-68.026400240346987
10
42.634814577950557
20
-68.5021691550686
42
1.0001637462993618
10
42.969235703199331
20
-70.878722485731913
10
46.353898067985959
20
-70.403036735686655
42
1.0000025301089173
0
CIRCLE
5
149
100
AcDbEntity
8
0
100
AcDbCircle
10
43.849237288006428
20
-64.809350829482469
30
0
40
1.9999999999999996
210
0
220
-0
230
1
0
CIRCLE
5
150
100
AcDbEntity
8
0
100
AcDbCircle
10
48.872521471049886
20
-64.098607408093756
30
0
40
0.87499999999999811
210
0
220
-0
230
1
0
CIRCLE
5
151
100
AcDbEntity
8
0
100
AcDbCircle
10
39.722800641533681
20
-62.805992558943231
30
0
40
1.3499999999999999
210
0
220
-0
230
1
0
CIRCLE
5
152
100
AcDbEntity
8
0
100
AcDbCircle
10
38.803338781892485
20
-65.492560598337803
30
0
40
0.875
210
0
220
-0
230
1
0
CIRCLE
5
153
100
AcDbEntity
8
0
100
AcDbCircle
10
45.644145495585953
20
-59.400456607086909
30
0
40
1.3499999999999999
210
0
220
-0
230
1
0
CIRCLE
5
154
100
AcDbEntity
8
0
100
AcDbCircle
10
31.781539150401095
20
-6.4136643814521577
30
0
40
1.3499999999999999
210
0
220
-0
230
1
0
CIRCLE
5
155
100
AcDbEntity
8
0
100
AcDbCircle
10
30.862077290759888
20
-9.1002324208467833
30
0
40
0.875
210
0
220
-0
230
1
0
CIRCLE
5
156
100
AcDbEntity
8
0
100
AcDbCircle
10
35.907975796873913
20
-8.4170226519914237
30
0
40
1.9999999999999996
210
0
220
-0
230
1
0
LWPOLYLINE
5
157
100
AcDbEntity
8
0
100
AcDbPolyline
90
4
70
1
43
0.0
10
35.027974212067171
20
-14.486394308240948
42
-1.0001637462995314
10
34.693553086818028
20
-12.109840977577608
10
38.078606710649751
20
-11.634072062855354
42
-1.0000025301198874
10
38.412636576853494
20
-14.010708558195724
0
CIRCLE
5
158
100
AcDbEntity
8
0
100
AcDbCircle
10
61.857470808866765
20
-38.001432950381201
30
0
40
1.3499999999999999
210
0
220
-0
230
1
0
LWPOLYLINE
5
159
100
AcDbEntity
8
0
100
AcDbPolyline
90
4
70
1
43
0.0
10
80.567157210697289
20
-65.597059361281907
42
-1.0001637462993618
10
80.232736085448522
20
-63.220506030618573
10
83.617789709280174
20
-62.744737115896342
42
-1.0000025301198874
10
83.951819575483881
20
-65.121373611236606
0
CIRCLE
5
160
100
AcDbEntity
8
0
100
AcDbCircle
10
86.470442978547794
20
-58.816944283643764
30
0
40
0.87499999999999811
210
0
220
-0
230
1
0
CIRCLE
5
161
100
AcDbEntity
8
0
100
AcDbCircle
10
81.447158795504379
20
-59.527687705032442
30
0
40
1.9999999999999996
210
0
220
-0
230
1
0
LWPOLYLINE
5
162
100
AcDbEntity
8
0
100
AcDbPolyline
90
4
70
1
43
0.0
10
80.984553483457177
20
-43.985982169587537
42
-1.0000025301089173
10
81.318583349634835
20
-46.362618664931539
10
77.933920984847788
20
-46.838304414976861
42
-1.0001637462991921
10
77.599499859599433
20
-44.461751084313477
0
LWPOLYLINE
5
163
100
AcDbEntity
8
0
100
AcDbPolyline
90
4
70
1
43
0.0
10
96.804670045870921
20
-44.146090185152076
10
100.18933241065756
20
-43.670404435106782
42
1.0000025301198874
10
99.855302544449103
20
-41.293767939767143
10
96.470248920622168
20
-41.76953685448872
42
1.0001637462995314
0
CIRCLE
5
164
100
AcDbEntity
8
0
100
AcDbCircle
10
83.242067003083889
20
-54.118793482636924
30
0
40
1.3499999999999999
210
0
220
-0
230
1
0
CIRCLE
5
165
100
AcDbEntity
8
0
100
AcDbCircle
10
68.459998798257914
20
-3.818569296397083
30
0
40
0.875
210
0
220
-0
230
1
0
CIRCLE
5
166
100
AcDbEntity
8
0
100
AcDbCircle
10
72.055275292159507
20
-19.968226546124903
30
0
40
1.3499999999999999
210
0
220
-0
230
1
0
CIRCLE
5
167
100
AcDbEntity
8
0
100
AcDbCircle
10
76.18171193863229
20
-21.971584816664151
30
0
40
1.9999999999999996
210
0
220
-0
230
1
0
LWPOLYLINE
5
168
100
AcDbEntity
8
0
100
AcDbPolyline
90
4
70
1
43
0.0
10
75.676528218147723
20
-6.3524089384056195
42
-1.0000025301198874
10
76.010558084351473
20
-8.7290454337459877
10
72.625895719564767
20
-9.2047311837912513
42
-1.0001637462993618
10
72.291474594316028
20
-6.8281778531278903
0
LWPOLYLINE
5
169
100
AcDbEntity
8
0
100
AcDbPolyline
90
4
70
1
43
0.0
10
61.815797242329602
20
-68.238453775331308
42
-1.0001637462995314
10
61.48137611708043
20
-65.861900444668038
10
64.866429740912096
20
-65.386131529945843
42
-1.0000025301198874
10
65.200459607115818
20
-67.762768025286107
0
LWPOLYLINE
5
170
100
AcDbEntity
8
0
100
AcDbPolyline
90
4
70
1
43
0.0
10
43.386631975933156
20
-49.267645294041159
42
-1.0000025301198874
10
43.720661842136892
20
-51.644281789381488
10
40.335999477350619
20
-52.119967539426725
42
-1.0001637462995314
10
40.001578352101475
20
-49.74341420876339
0
CIRCLE
5
171
100
AcDbEntity
8
0
100
AcDbCircle
10
43.010909269736892
20
-40.641701660781671
30
0
40
1.3499999999999999
210
0
220
-0
230
1
0
CIRCLE
5
172
100
AcDbEntity
8
0
100
AcDbCircle
10
71.135813432518304
20
-22.654794585519511
30
0
40
0.875
210
0
220
-0
230
1
0
CIRCLE
5
173
100
AcDbEntity
8
0
100
AcDbCircle
10
76.40126028939045
20
-60.210897473887819
30
0
40
0.875
210
0
220
-0
230
1
0
LWPOLYLINE
5
174
100
AcDbEntity
8
0
100
AcDbPolyline
90
4
70
1
43
0.0
10
56.550350385457087
20
-30.68235088696305
10
59.93501275024375
20
-30.206665136917774
42
1.0000025301418274
10
59.60098288403529
20
-27.830028641578082
10
56.215929260208313
20
-28.305797556299694
42
1.0001637462995314
0
CIRCLE
5
175
100
AcDbEntity
8
0
100
AcDbCircle
10
52.384453464150198
20
-25.296188999568887
30
0
40
0.875
210
0
220
-0
230
1
0
CIRCLE
5
176
100
AcDbEntity
8
0
100
AcDbCircle
10
62.453636153307698
20
-23.902235809324814
30
0
40
0.87499999999999811
210
0
220
-0
230
1
0
CIRCLE
5
177
100
AcDbEntity
8
0
100
AcDbCircle
10
57.430351970264191
20
-24.612979230713528
30
0
40
1.9999999999999996
210
0
220
-0
230
1
0
CIRCLE
5
178
100
AcDbEntity
8
0
100
AcDbCircle
10
53.303915323791394
20
-22.609620960174261
30
0
40
1.3499999999999999
210
0
220
-0
230
1
0
CIRCLE
5
179
100
AcDbEntity
8
0
100
AcDbCircle
10
46.723477661478334
20
-16.503818642645047
30
0
40
1.2499999999999991
210
0
220
-0
230
1
0
LWPOLYLINE
5
180
100
AcDbEntity
8
0
100
AcDbPolyline
90
4
70
1
43
0.0
10
53.87453575119666
20
-11.846125597840611
42
-1.0001637462993618
10
53.540114625947922
20
-9.4695722671772131
10
56.925168249727484
20
-8.9938033524623062
42
-1.0000025301418274
10
57.259198115983381
20
-11.370439847795311
0
CIRCLE
5
181
100
AcDbEntity
8
0
100
AcDbCircle
10
59.225260177843737
20
-19.204085008317904
30
0
40
1.3499999999999999
210
0
220
-0
230
1
0
CIRCLE
5
182
100
AcDbEntity
8
0
100
AcDbCircle
10
49.708638829889793
20
-6.4599637104464058
30
0
40
0.875
210
0
220
-0
230
1
0
CIRCLE
5
183
100
AcDbEntity
8
0
100
AcDbCircle
10
54.754537336003807
20
-5.7767539415910285
30
0
40
1.9999999999999996
210
0
220
-0
230
1
0
CIRCLE
5
184
100
AcDbEntity
8
0
100
AcDbCircle
10
59.777821519047343
20
-5.0660105202023331
30
0
40
0.87499999999999811
210
0
220
-0
230
1
0
CIRCLE
5
185
100
AcDbEntity
8
0
100
AcDbCircle
10
41.216001062157346
20
-46.050595883177259
30
0
40
1.9999999999999996
210
0
220
-0
230
1
0
CIRCLE
5
186
100
AcDbEntity
8
0
100
AcDbCircle
10
46.239285245200833
20
-45.339852461788546
30
0
40
0.87499999999999811
210
0
220
-0
230
1
0
CIRCLE
5
187
100
AcDbEntity
8
0
100
AcDbCircle
10
36.170102556043389
20
-46.733805652032601
30
0
40
0.875
210
0
220
-0
230
1
0
CIRCLE
5
188
100
AcDbEntity
8
0
100
AcDbCircle
10
50.628100689530996
20
-3.7733956710517802
30
0
40
1.3499999999999999
210
0
220
-0
230
1
0
LWPOLYLINE
5
189
100
AcDbEntity
8
0
100
AcDbPolyline
90
4
70
1
43
0.0
10
75.301710353825143
20
-28.04095647291366
42
-1.0001637462993618
10
74.967289228576405
20
-25.664403142250301
10
78.352342852355946
20
-25.188634227535395
42
-1.0000025301418274
10
78.686372718611835
20
-27.565270722868398
0
LWPOLYLINE
5
190
100
AcDbEntity
8
0
100
AcDbPolyline
90
4
70
1
43
0.0
10
37.703788846327569
20
-33.322619597363435
42
-1.0001637462995314
10
37.369367721078419
20
-30.946066266700125
10
40.754421344910142
20
-30.470297351977855
42
-1.0000025301198874
10
41.088451211113863
20
-32.846933847318226
0
CIRCLE
5
191
100
AcDbEntity
8
0
100
AcDbCircle
10
34.457353784661507
20
-25.24988967057471
30
0
40
1.3499999999999999
210
0
220
-0
230
1
0
CIRCLE
5
192
100
AcDbEntity
8
0
100
AcDbCircle
10
38.583790431134304
20
-27.253247941113958
30
0
40
1.9999999999999996
210
0
220
-0
230
1
0
CIRCLE
5
193
100
AcDbEntity
8
0
100
AcDbCircle
10
43.607074614177826
20
-26.542504519725263
30
0
40
0.87499999999999811
210
0
220
-0
230
1
0
CIRCLE
5
194
100
AcDbEntity
8
0
100
AcDbCircle
10
40.378698638713857
20
-21.844353718718335
30
0
40
1.3499999999999999
210
0
220
-0
230
1
0
CIRCLE
5
195
100
AcDbEntity
8
0
100
AcDbCircle
10
33.537891925020304
20
-27.936457709969318
30
0
40
0.875
210
0
220
-0
230
1
0
CIRCLE
5
196
100
AcDbEntity
8
0
100
AcDbCircle
10
40.931259979917471
20
-7.7062792306027106
30
0
40
0.87499999999999811
210
0
220
-0
230
1
0
CIRCLE
5
197
100
AcDbEntity
8
0
100
AcDbCircle
10
37.089564415684585
20
-44.047237612637993
30
0
40
1.3499999999999999
210
0
220
-0
230
1
0
LWPOLYLINE
5
198
100
AcDbEntity
8
0
100
AcDbPolyline
90
4
70
1
43
0.0
10
62.233193515063022
20
-46.62737658364064
42
-1.0000025301198874
10
62.567223381266757
20
-49.004013078980968
10
59.18256101648052
20
-49.479698829026177
42
-1.0001637462995314
10
58.848139891231348
20
-47.103145498362906
0
CIRCLE
5
199
100
AcDbEntity
8
0
100
AcDbCircle
10
64.490707034715825
20
-56.760187896686389
30
0
40
1.3499999999999999
210
0
220
-0
230
1
0
CIRCLE
5
200
100
AcDbEntity
8
0
100
AcDbCircle
10
55.016664095173269
20
-44.093536941632117
30
0
40
0.875
210
0
220
-0
230
1
0
CIRCLE
5
201
100
AcDbEntity
8
0
100
AcDbCircle
10
65.085846784330698
20
-42.699583751388097
30
0
40
0.87499999999999811
210
0
220
-0
230
1
0
CIRCLE
5
202
100
AcDbEntity
8
0
100
AcDbCircle
10
60.062562601287226
20
-43.410327172776775
30
0
40
1.9999999999999996
210
0
220
-0
230
1
0
CIRCLE
5
203
100
AcDbEntity
8
0
100
AcDbCircle
10
55.936125954814472
20
-41.406968902237544
30
0
40
1.3499999999999999
210
0
220
-0
230
1
0
CIRCLE
5
204
100
AcDbEntity
8
0
100
AcDbCircle
10
70.711387154627914
20
-51.483606189146727
30
0
40
1.25
210
0
220
-0
230
1
0
CIRCLE
5
205
100
AcDbEntity
8
0
100
AcDbCircle
10
74.687485923182578
20
-38.765574488188115
30
0
40
1.3499999999999999
210
0
220
-0
230
1
0
CIRCLE
5
206
100
AcDbEntity
8
0
100
AcDbCircle
10
73.768024063541361
20
-41.452142527582687
30
0
40
0.875
210
0
220
-0
230
1
0
CIRCLE
5
207
100
AcDbEntity
8
0
100
AcDbCircle
10
57.649900321022365
20
-62.852291887937284
30
0
40
0.875
210
0
220
-0
230
1
0
CIRCLE
5
208
100
AcDbEntity
8
0
100
AcDbCircle
10
67.719083010179745
20
-61.458338697693229
30
0
40
0.87499999999999811
210
0
220
-0
230
1
0
CIRCLE
5
209
100
AcDbEntity
8
0
100
AcDbCircle
10
62.695798827136294
20
-62.169082119081942
30
0
40
1.9999999999999996
210
0
220
-0
230
1
0
CIRCLE
5
210
100
AcDbEntity
8
0
100
AcDbCircle
10
58.56936218066356
20
-60.165723848542711
30
0
40
1.3499999999999999
210
0
220
-0
230
1
0
CIRCLE
5
211
100
AcDbEntity
8
0
100
AcDbCircle
10
80.608830777234857
20
-35.360038536331793
30
0
40
1.3499999999999999
210
0
220
-0
230
1
0
CIRCLE
5
212
100
AcDbEntity
8
0
100
AcDbCircle
10
92.638773124564096
20
-38.759928297757966
30
0
40
0.875
210
0
220
-0
230
1
0
CIRCLE
5
213
100
AcDbEntity
8
0
100
AcDbCircle
10
99.479579838257578
20
-32.667824306507072
30
0
40
1.3499999999999999
210
0
220
-0
230
1
0
CIRCLE
5
214
100
AcDbEntity
8
0
100
AcDbCircle
10
97.684671630678025
20
-38.076718528902603
30
0
40
1.9999999999999996
210
0
220
-0
230
1
0
CIRCLE
5
215
100
AcDbEntity
8
0
100
AcDbCircle
10
102.70795581372148
20
-37.365975107513933
30
0
40
0.87499999999999811
210
0
220
-0
230
1
0
LWPOLYLINE
5
216
100
AcDbEntity
8
0
100
AcDbPolyline
90
4
70
1
43
0.0
10
94.172459414847921
20
-25.348742243088935
10
97.557121779634571
20
-24.873056493043677
42
1.0000025301198874
10
97.223091913426103
20
-22.496419997704002
10
93.83803828959914
20
-22.97218891242558
42
1.0001637462993618
0
CIRCLE
5
217
100
AcDbEntity
8
0
100
AcDbCircle
10
73.505897304371913
20
-3.1353595275417057
30
0
40
1.9999999999999996
210
0
220
-0
230
1
0
CIRCLE
5
218
100
AcDbEntity
8
0
100
AcDbCircle
10
-38.399740519442155
20
-65.525486358171634
30
0
40
0.87499999999999811
210
-0
220
0
230
1
0
CIRCLE
5
219
100
AcDbEntity
8
0
100
AcDbCircle
10
106.42603492124519
20
-27.392339739007454
30
0
40
1.25
210
0
220
-0
230
1
0
CIRCLE
5
220
100
AcDbEntity
8
0
100
AcDbCircle
10
-57.771782371889564
20
-2.7016413124009553
30
0
40
1.3499999999999999
210
-0
220
0
230
1
0
CIRCLE
5
221
100
AcDbEntity
8
0
100
AcDbCircle
10
-43.424338629750608
20
-64.824092015061268
30
0
40
1.9999999999999998
210
-0
220
0
230
1
0
CIRCLE
5
222
100
AcDbEntity
8
0
100
AcDbCircle
10
-46.838723742275533
20
-61.760940360170515
30
0
40
1.3499999999999999
210
-0
220
0
230
1
0
CIRCLE
5
223
100
AcDbEntity
8
0
100
AcDbCircle
10
78.529181487415428
20
-2.4246161061530103
30
0
40
0.87499999999999811
210
0
220
-0
230
1
0
CIRCLE
5
224
100
AcDbEntity
8
0
100
AcDbCircle
10
87.333701142669398
20
-1.1348943069204864
30
0
40
0.875
210
0
220
-0
230
1
0
LWPOLYLINE
5
225
100
AcDbEntity
8
0
100
AcDbPolyline
90
4
70
1
43
0.0
10
-45.943196000389968
20
-70.415785196676666
10
-42.558532953094229
20
-70.891466090417552
42
1.0000025301418274
10
-42.224533269466207
20
-68.514825353192805
10
-45.609595342382079
20
-68.039116556862382
42
1.0001637462993618
0
CIRCLE
5
226
100
AcDbEntity
8
0
100
AcDbCircle
10
37.70288400445348
20
-3.0081284295957644
30
0
40
1.3499999999999999
210
0
220
-0
230
1
0
CIRCLE
5
227
100
AcDbEntity
8
0
100
AcDbCircle
10
93.558234984205313
20
-36.07336025836338
30
0
40
1.3499999999999999
210
0
220
-0
230
1
0
CIRCLE
5
228
100
AcDbEntity
8
0
100
AcDbCircle
10
-78.162990258263022
20
-2.3734846025683964
30
0
40
0.875
210
-0
220
0
230
1
0
CIRCLE
5
229
100
AcDbEntity
8
0
100
AcDbCircle
10
90.006562493541054
20
-19.962580355694808
30
0
40
0.875
210
0
220
-0
230
1
0
CIRCLE
5
230
100
AcDbEntity
8
0
100
AcDbCircle
10
92.379599648783397
20
-0.45168453806512687
30
0
40
1.9999999999999996
210
0
220
-0
230
1
0
CIRCLE
5
231
100
AcDbEntity
8
0
100
AcDbCircle
10
96.847369207234536
20
-13.87047636444386
30
0
40
1.3499999999999999
210
0
220
-0
230
1
0
LWPOLYLINE
5
232
100
AcDbEntity
8
0
100
AcDbPolyline
90
4
70
1
43
0.0
10
-112.69599999999522
20
-1.7318300000003068
42
-1.0000025301198874
10
-112.86340000000001
20
-4.1259799999999736
10
-116.27300000000004
20
-3.8875599999999721
42
-1.0001637462993618
10
-116.10600000000002
20
-1.4934099999999795
0
CIRCLE
5
233
100
AcDbEntity
8
0
100
AcDbCircle
10
100.0757451826985
20
-18.568627165450753
30
0
40
0.87499999999999811
210
0
220
-0
230
1
0
CIRCLE
5
234
100
AcDbEntity
8
0
100
AcDbCircle
10
90.926024353182243
20
-17.2760123163002
30
0
40
1.3499999999999999
210
0
220
-0
230
1
0
LWPOLYLINE
5
235
100
AcDbEntity
8
0
100
AcDbPolyline
90
4
70
1
43
0.0
10
91.499598063976293
20
-6.5210561943146494
10
94.884260428762957
20
-6.0453704442693912
42
1.0000025301418274
10
94.550230562554489
20
-3.6687339489296988
10
91.165176938727512
20
-4.1445028636512937
42
1.0001637462995314
0
CIRCLE
5
236
100
AcDbEntity
8
0
100
AcDbCircle
10
-48.46308571942604
20
-64.089997274206567
30
0
40
0.875
210
-0
220
0
230
1
0
CIRCLE
5
237
100
AcDbEntity
8
0
100
AcDbCircle
10
-40.208068820724122
20
-60.119472933961724
30
0
40
1.3499999999999999
210
-0
220
0
230
1
0
CIRCLE
5
238
100
AcDbEntity
8
0
100
AcDbCircle
10
81.204996121675777
20
-21.260841395275456
30
0
40
0.87499999999999811
210
0
220
-0
230
1
0
LWPOLYLINE
5
239
100
AcDbEntity
8
0
100
AcDbPolyline
90
4
70
1
43
0.0
10
116.48348157534011
20
-1.4749813089824626
42
-1.0000025301198874
10
116.65091198029154
20
-3.8691291828610908
10
113.24131232237986
20
-4.107554074945118
42
-1.0001637462995314
10
113.07348581019582
20
-1.7134618703072491
0
CIRCLE
5
240
100
AcDbEntity
8
0
100
AcDbCircle
10
-51.141127450338089
20
-1.0601738861921461
30
0
40
1.3499999999999999
210
-0
220
0
230
1
0
CIRCLE
5
241
100
AcDbEntity
8
0
100
AcDbCircle
10
95.052460999655025
20
-19.279370586839448
30
0
40
1.9999999999999996
210
0
220
-0
230
1
0
CIRCLE
5
242
100
AcDbEntity
8
0
100
AcDbCircle
10
-91.958156708101512
20
-0.45906025192895328
30
0
40
1.9999999999999998
210
-0
220
0
230
1
0
CIRCLE
5
243
100
AcDbEntity
8
0
100
AcDbCircle
10
-35.784667457060173
20
-46.761390849636371
30
0
40
0.87499999999999811
210
-0
220
0
230
1
0
CIRCLE
5
244
100
AcDbEntity
8
0
100
AcDbCircle
10
112.14301754948448
20
-36.347231440804606
30
0
40
0.87499999999999978
210
-0
220
0
230
1
0
CIRCLE
5
245
100
AcDbEntity
8
0
100
AcDbCircle
10
69.379460657899102
20
-1.1320012570024574
30
0
40
1.3499999999999999
210
0
220
-0
230
1
0
CIRCLE
5
246
100
AcDbEntity
8
0
100
AcDbCircle
10
-37.592995758342134
20
-41.355377425426454
30
0
40
1.3499999999999999
210
-0
220
0
230
1
0
CIRCLE
5
247
100
AcDbEntity
8
0
100
AcDbCircle
10
-73.12424316858754
20
-3.1075793434230725
30
0
40
1.9999999999999998
210
-0
220
0
230
1
0
CIRCLE
5
248
100
AcDbEntity
8
0
100
AcDbCircle
10
122.28490947480225
20
-35.659064528353156
30
0
40
0.874999999999998
210
-0
220
0
230
1
0
LWPOLYLINE
5
249
100
AcDbEntity
8
0
100
AcDbPolyline
90
4
70
1
43
0.0
10
-39.609460207084226
20
-49.750729844657577
10
-42.994522280000112
20
-49.275021048327154
42
1.0001637462993618
10
-43.328122938008001
20
-51.651689688141396
10
-39.943459890712262
20
-52.127370581882317
42
1.0000025301089173
0
CIRCLE
5
250
100
AcDbEntity
8
0
100
AcDbCircle
10
56.549445543583367
20
-0.36785971919540472
30
0
40
1.3499999999999999
210
0
220
-0
230
1
0
CIRCLE
5
251
100
AcDbEntity
8
0
100
AcDbCircle
10
117.22428280474638
20
-36.017670023265431
30
0
40
1.9999999999999993
210
-0
220
0
230
1
0
CIRCLE
5
252
100
AcDbEntity
8
0
100
AcDbCircle
10
-86.933558597792967
20
-1.160454595039333
30
0
40
0.87499999999999811
210
-0
220
0
230
1
0
CIRCLE
5
253
100
AcDbEntity
8
0
100
AcDbCircle
10
113.24764515914944
20
-33.731346163198324
30
0
40
1.3499999999999996
210
-0
220
0
230
1
0
CIRCLE
5
254
100
AcDbEntity
8
0
100
AcDbCircle
10
75.300805511951467
20
2.2735346948539004
30
0
40
1.3499999999999999
210
0
220
-0
230
1
0
CIRCLE
5
255
100
AcDbEntity
8
0
100
AcDbCircle
10
77.320722149031653
20
-57.524329434493247
30
0
40
1.3499999999999999
210
0
220
-0
230
1
0
CIRCLE
5
256
100
AcDbEntity
8
0
100
AcDbCircle
10
94.174507856362936
20
4.9572096843304791
30
0
40
1.3499999999999999
210
0
220
-0
230
1
0
LWPOLYLINE
5
257
100
AcDbEntity
8
0
100
AcDbPolyline
90
4
70
1
43
0.0
10
114.56949742929645
20
-23.066433185714558
42
-1.0001637462995314
10
114.40167091711243
20
-20.672340981076687
10
117.81166668225669
20
-20.433860419751916
42
-1.0000025301198874
10
117.97909708720812
20
-22.828008293630511
0
CIRCLE
5
258
100
AcDbEntity
8
0
100
AcDbCircle
10
116.71038952134415
20
7.1561590502146899
30
0
40
1.3499999999999996
210
-0
220
0
230
1
0
CIRCLE
5
259
100
AcDbEntity
8
0
100
AcDbCircle
10
88.253163002310586
20
1.5516737324741214
30
0
40
1.3499999999999999
210
0
220
-0
230
1
0
CIRCLE
5
260
100
AcDbEntity
8
0
100
AcDbCircle
10
-40.809265567368641
20
-46.059996506525991
30
0
40
1.9999999999999998
210
-0
220
0
230
1
0
CIRCLE
5
261
100
AcDbEntity
8
0
100
AcDbCircle
10
-76.538628281112494
20
-0.044427688532291398
30
0
40
1.3499999999999999
210
-0
220
0
230
1
0
CIRCLE
5
262
100
AcDbEntity
8
0
100
AcDbCircle
10
103.20934491012636
20
4.1086535519076328
30
0
40
1.25
210
0
220
-0
230
1
0
CIRCLE
5
263
100
AcDbEntity
8
0
100
AcDbCircle
10
-45.84801265704408
20
-45.325901765671297
30
0
40
0.875
210
-0
220
0
230
1
0
CIRCLE
5
264
100
AcDbEntity
8
0
100
AcDbCircle
10
110.56591058654023
20
4.171970949617041
30
0
40
1.3499999999999996
210
-0
220
0
230
1
0
CIRCLE
5
265
100
AcDbEntity
8
0
100
AcDbCircle
10
-69.907973359560998
20
1.5970397376765177
30
0
40
1.3499999999999999
210
-0
220
0
230
1
0
CIRCLE
5
266
100
AcDbEntity
8
0
100
AcDbCircle
10
-88.74188689907497
20
4.2455588291706547
30
0
40
1.3499999999999999
210
-0
220
0
230
1
0
CIRCLE
5
267
100
AcDbEntity
8
0
100
AcDbCircle
10
109.46128297687525
20
1.5560856720107274
30
0
40
0.87499999999999978
210
-0
220
0
230
1
0
CIRCLE
5
268
100
AcDbEntity
8
0
100
AcDbCircle
10
-96.996903797777009
20
0.27503448892574056
30
0
40
0.875
210
-0
220
0
230
1
0
CIRCLE
5
269
100
AcDbEntity
8
0
100
AcDbCircle
10
118.03857462826073
20
-11.802720060554801
30
0
40
1.3499999999999996
210
-0
220
0
230
1
0
CIRCLE
5
270
100
AcDbEntity
8
0
100
AcDbCircle
10
114.54254823213722
20
1.88564708954992
30
0
40
1.9999999999999993
210
-0
220
0
230
1
0
CIRCLE
5
271
100
AcDbEntity
8
0
100
AcDbCircle
10
111.89409569345685
20
-14.786908161152432
30
0
40
1.3499999999999996
210
-0
220
0
230
1
0
CIRCLE
5
272
100
AcDbEntity
8
0
100
AcDbCircle
10
-44.223650679893574
20
-42.996844851635245
30
0
40
1.3499999999999999
210
-0
220
0
230
1
0
CIRCLE
5
273
100
AcDbEntity
8
0
100
AcDbCircle
10
119.60317490219312
20
2.2442525844621919
30
0
40
0.874999999999998
210
-0
220
0
230
1
0
CIRCLE
5
274
100
AcDbEntity
8
0
100
AcDbCircle
10
-102.69952014463981
20
4.1086535519076328
30
0
40
1.2499999999999989
210
0
220
-0
230
1
0
CIRCLE
5
275
100
AcDbEntity
8
0
100
AcDbCircle
10
97.402883831826927
20
0.25905888332356852
30
0
40
0.87499999999999811
210
0
220
-0
230
1
0
LWPOLYLINE
5
276
100
AcDbEntity
8
0
100
AcDbPolyline
90
4
70
1
43
0.0
10
-79.833091250945245
20
-63.222012485329273
42
-1.0000025301198874
10
-80.167090934577942
20
-65.598653222553367
10
-83.551753981874185
20
-65.122972328812395
42
-1.0001637462991921
10
-83.218153323865806
20
-62.746303688998175
0
CIRCLE
5
277
100
AcDbEntity
8
0
100
AcDbCircle
10
120.93136000910968
20
-16.714626526307281
30
0
40
0.874999999999998
210
-0
220
0
230
1
0
CIRCLE
5
278
100
AcDbEntity
8
0
100
AcDbCircle
10
-95.372541820626481
20
2.6040914029618634
30
0
40
1.3499999999999999
210
-0
220
0
230
1
0
CIRCLE
5
279
100
AcDbEntity
8
0
100
AcDbCircle
10
-79.214760820109021
20
-18.878595762173642
30
0
40
1.3499999999999999
210
-0
220
0
230
1
0
CIRCLE
5
280
100
AcDbEntity
8
0
100
AcDbCircle
10
110.78946808379187
20
-17.402793438758728
30
0
40
0.87499999999999978
210
-0
220
0
230
1
0
CIRCLE
5
281
100
AcDbEntity
8
0
100
AcDbCircle
10
-111.27007773791266
20
6.7837332120615912
30
0
40
1.3500000000000001
210
0
220
0
230
1
0
CIRCLE
5
282
100
AcDbEntity
8
0
100
AcDbCircle
10
-57.241452591703109
20
-62.88988711417602
30
0
40
0.87499999999999811
210
-0
220
0
230
1
0
CIRCLE
5
283
100
AcDbEntity
8
0
100
AcDbCircle
10
115.8707333390538
20
-17.073232021219553
30
0
40
1.9999999999999993
210
-0
220
0
230
1
0
CIRCLE
5
284
100
AcDbEntity
8
0
100
AcDbCircle
10
-109.08905000000001
20
1.5170311705168338
30
0
40
0.87499999999999822
210
0
220
0
230
1
0
CIRCLE
5
285
100
AcDbEntity
8
0
100
AcDbCircle
10
77.976620146211829
20
-16.562690594268563
30
0
40
1.3499999999999999
210
0
220
-0
230
1
0
CIRCLE
5
286
100
AcDbEntity
8
0
100
AcDbCircle
10
78.813922569655304
20
-40.768932758727345
30
0
40
1.9999999999999996
210
0
220
-0
230
1
0
CIRCLE
5
287
100
AcDbEntity
8
0
100
AcDbCircle
10
-119.22801605345447
20
2.2470400000000268
30
0
40
0.87500000000000011
210
0
220
0
230
1
0
CIRCLE
5
288
100
AcDbEntity
8
0
100
AcDbCircle
10
-62.266050702011569
20
-62.188492771065675
30
0
40
1.9999999999999998
210
-0
220
0
230
1
0
LWPOLYLINE
5
289
100
AcDbEntity
8
0
100
AcDbPolyline
90
4
70
1
43
0.0
10
-77.218018188568067
20
-44.457916976793328
10
-80.603080261483967
20
-43.982208180462941
42
1.0001637462993618
10
-80.936680919491849
20
-46.358876820277182
10
-77.552017872196075
20
-46.834557714018104
42
1.0000025301198874
0
CIRCLE
5
290
100
AcDbEntity
8
0
100
AcDbCircle
10
119.39212409395331
20
-30.747158062600697
30
0
40
1.3499999999999996
210
-0
220
0
230
1
0
CIRCLE
5
291
100
AcDbEntity
8
0
100
AcDbCircle
10
83.837206752698776
20
-40.058189337338668
30
0
40
0.87499999999999811
210
0
220
-0
230
1
0
LWPOLYLINE
5
292
100
AcDbEntity
8
0
100
AcDbPolyline
90
4
70
1
43
0.0
10
-61.066245341774589
20
-65.87922610919054
42
-1.0000025301418274
10
-61.400245025355183
20
-68.255866846421966
10
-64.784908072650964
20
-67.78018595268108
42
-1.0001637462993618
10
-64.451307414643026
20
-65.403517312866796
0
CIRCLE
5
293
100
AcDbEntity
8
0
100
AcDbCircle
10
-114.15033523792671
20
1.8662187061028312
30
0
40
2
210
0
220
0
230
1
0
CIRCLE
5
294
100
AcDbEntity
8
0
100
AcDbCircle
10
-78.417823548852482
20
-40.767183638661741
30
0
40
1.9999999999999998
210
-0
220
0
230
1
0
LWPOLYLINE
5
295
100
AcDbEntity
8
0
100
AcDbPolyline
90
4
70
1
43
0.0
10
-78.31923307822349
20
-27.533440598679881
42
-1.0001637462993618
10
-77.985632420215552
20
-25.156771958865605
10
-74.600570347294948
20
-25.632480755196685
42
-1.0000025301198874
10
-74.934570030927674
20
-28.009121492420785
0
CIRCLE
5
296
100
AcDbEntity
8
0
100
AcDbCircle
10
-77.816626802207821
20
-54.826660066097475
30
0
40
1.3499999999999999
210
-0
220
0
230
1
0
CIRCLE
5
297
100
AcDbEntity
8
0
100
AcDbCircle
10
-117.77007773791267
20
4.6837332120616004
30
0
40
1.3500000000000001
210
0
220
0
230
1
0
CIRCLE
5
298
100
AcDbEntity
8
0
100
AcDbCircle
10
-65.680435814536494
20
-59.125341116174894
30
0
40
1.3499999999999999
210
-0
220
0
230
1
0
CIRCLE
5
299
100
AcDbEntity
8
0
100
AcDbCircle
10
-76.008298500925861
20
-60.232673490307391
30
0
40
0.87499999999999811
210
-0
220
0
230
1
0
CIRCLE
5
300
100
AcDbEntity
8
0
100
AcDbCircle
10
-56.434707830603145
20
-38.719778181430833
30
0
40
1.3499999999999999
210
-0
220
0
230
1
0
LWPOLYLINE
5
301
100
AcDbEntity
8
0
100
AcDbPolyline
90
4
70
1
43
0.0
10
-115.34599999999523
20
-39.631830000000313
42
-1.0000025301198874
10
-115.51340000000002
20
-42.025979999999983
10
-118.92300000000004
20
-41.787560000000013
42
-1.0001637462993618
10
-118.75600000000003
20
-39.393409999999989
0
CIRCLE
5
302
100
AcDbEntity
8
0
100
AcDbCircle
10
-59.049780892985062
20
-57.483873689966138
30
0
40
1.3499999999999999
210
-0
220
0
230
1
0
CIRCLE
5
303
100
AcDbEntity
8
0
100
AcDbCircle
10
-83.45657063852795
20
-40.033088897807062
30
0
40
0.875
210
-0
220
0
230
1
0
CIRCLE
5
304
100
AcDbEntity
8
0
100
AcDbCircle
10
-67.304797791687008
20
-61.454398030210982
30
0
40
0.875
210
-0
220
0
230
1
0
CIRCLE
5
305
100
AcDbEntity
8
0
100
AcDbCircle
10
-53.817259989334694
20
-19.894341959833497
30
0
40
1.3499999999999999
210
-0
220
0
230
1
0
LWPOLYLINE
5
306
100
AcDbEntity
8
0
100
AcDbPolyline
90
4
70
1
43
0.0
10
-53.157591899080202
20
-9.455526305423323
10
-56.542653971996096
20
-8.9798175090929178
42
1.0001637462991921
10
-56.876254630003984
20
-11.356486148907177
10
-53.491591582708224
20
-11.832167042648081
42
1.0000025301198874
0
CIRCLE
5
307
100
AcDbEntity
8
0
100
AcDbCircle
10
-84.447281723759289
20
-56.468127492306266
30
0
40
1.3499999999999999
210
-0
220
0
230
1
0
CIRCLE
5
308
100
AcDbEntity
8
0
100
AcDbCircle
10
-54.357397259364618
20
-5.7647929672917186
30
0
40
1.9999999999999998
210
-0
220
0
230
1
0
CIRCLE
5
309
100
AcDbEntity
8
0
100
AcDbCircle
10
-33.167219615791687
20
-27.935954628039052
30
0
40
0.87499999999999811
210
-0
220
0
230
1
0
LWPOLYLINE
5
310
100
AcDbEntity
8
0
100
AcDbPolyline
90
4
70
1
43
0.0
10
-58.451172279392665
20
-47.115130600655341
42
-1.0000025301418274
10
-58.785171962973266
20
-49.491771337886696
10
-62.169835010269054
20
-49.016090444145775
42
-1.0001637462993618
10
-61.836234352261116
20
-46.639421804331569
0
CIRCLE
5
311
100
AcDbEntity
8
0
100
AcDbCircle
10
-81.832208661377436
20
-37.70403198377096
30
0
40
1.3499999999999999
210
-0
220
0
230
1
0
CIRCLE
5
312
100
AcDbEntity
8
0
100
AcDbCircle
10
-54.626379529321184
20
-44.12579160564075
30
0
40
0.87499999999999811
210
-0
220
0
230
1
0
CIRCLE
5
313
100
AcDbEntity
8
0
100
AcDbCircle
10
-92.227138978057866
20
-38.82005889027802
30
0
40
0.87499999999999811
210
-0
220
0
230
1
0
CIRCLE
5
314
100
AcDbEntity
8
0
100
AcDbCircle
10
-86.071643700909789
20
-58.797184406342353
30
0
40
0.875
210
-0
220
0
230
1
0
LWPOLYLINE
5
315
100
AcDbEntity
8
0
100
AcDbPolyline
90
4
70
1
43
0.0
10
-117.57300000000004
20
-22.837559999999968
42
-1.0001637462993618
10
-117.40600000000002
20
-20.443409999999975
10
-113.99599999999523
20
-20.681830000000318
42
-1.0000025301198874
10
-114.16340000000002
20
-23.075979999999987
0
CIRCLE
5
316
100
AcDbEntity
8
0
100
AcDbCircle
10
-94.035467279339841
20
-33.414045466068046
30
0
40
1.3499999999999999
210
-0
220
0
230
1
0
CIRCLE
5
317
100
AcDbEntity
8
0
100
AcDbCircle
10
-30.491087076795015
20
-9.1017865543977194
30
0
40
0.87499999999999811
210
-0
220
0
230
1
0
CIRCLE
5
318
100
AcDbEntity
8
0
100
AcDbCircle
10
-32.299415378076986
20
-3.695773130187785
30
0
40
1.3499999999999999
210
-0
220
0
230
1
0
LWPOLYLINE
5
319
100
AcDbEntity
8
0
100
AcDbPolyline
90
4
70
1
43
0.0
10
-97.153146617737349
20
-24.88492150718578
10
-93.768483570441589
20
-25.360602400926684
42
1.0000025301198874
10
-93.434483886813553
20
-22.983961663701908
10
-96.819545959729467
20
-22.508252867371503
42
1.0001637462993618
0
CIRCLE
5
320
100
AcDbEntity
8
0
100
AcDbCircle
10
-70.311387154627923
20
-51.483606189146727
30
0
40
1.2499999999999958
210
0
220
-0
230
1
0
LWPOLYLINE
5
321
100
AcDbEntity
8
0
100
AcDbPolyline
90
4
70
1
43
0.0
10
-34.315879826814367
20
-12.091125549419603
42
-1.0000025301198874
10
-34.649879510447114
20
-14.467766286643702
10
-38.034542557743322
20
-13.992085392902725
42
-1.0001637462991921
10
-37.700941899734993
20
-11.615416753088539
0
CIRCLE
5
322
100
AcDbEntity
8
0
100
AcDbCircle
10
-81.032896611234335
20
-59.531279147197012
30
0
40
1.9999999999999998
210
-0
220
0
230
1
0
LWPOLYLINE
5
323
100
AcDbEntity
8
0
100
AcDbPolyline
90
4
70
1
43
0.0
10
-99.770594459005736
20
-43.710357728783116
10
-96.385931411709976
20
-44.186038622524002
42
1.0000025301198874
10
-96.051931728081968
20
-41.809397885299227
10
-99.436993800997854
20
-41.333689088968804
42
1.0001637462991921
0
CIRCLE
5
324
100
AcDbEntity
8
0
100
AcDbCircle
10
-63.065362752154584
20
-40.361245607639624
30
0
40
1.3499999999999999
210
-0
220
0
230
1
0
CIRCLE
5
325
100
AcDbEntity
8
0
100
AcDbCircle
10
-73.393225438543979
20
-41.468577981772121
30
0
40
0.87499999999999811
210
-0
220
0
230
1
0
LWPOLYLINE
5
326
100
AcDbEntity
8
0
100
AcDbPolyline
90
4
70
1
43
0.0
10
-36.992012365811028
20
-30.925293623060917
42
-1.0000025301198874
10
-37.326012049443776
20
-33.301934360285017
10
-40.710675096739578
20
-32.826253466544095
42
-1.0001637462993618
10
-40.37707443873164
20
-30.449584826729854
0
CIRCLE
5
327
100
AcDbEntity
8
0
100
AcDbCircle
10
-119.07007773791267
20
-14.266266787938413
30
0
40
1.3500000000000001
210
0
220
0
230
1
0
LWPOLYLINE
5
328
100
AcDbEntity
8
0
100
AcDbPolyline
90
4
70
1
43
0.0
10
-55.833724438072075
20
-28.289694379065295
42
-1.0000025301198874
10
-56.167724121704822
20
-30.666335116289396
10
-59.552387169000617
20
-30.19065422254851
42
-1.0001637462993618
10
-59.218786510992686
20
-27.813985582734233
0
CIRCLE
5
329
100
AcDbEntity
8
0
100
AcDbCircle
10
-116.80033523792672
20
-36.033781293897178
30
0
40
2
210
0
220
0
230
1
0
CIRCLE
5
330
100
AcDbEntity
8
0
100
AcDbCircle
10
-64.689724729305098
20
-42.690302521675711
30
0
40
0.875
210
-0
220
0
230
1
0
CIRCLE
5
331
100
AcDbEntity
8
0
100
AcDbCircle
10
-89.609691136789451
20
-19.994622668680684
30
0
40
0.87499999999999811
210
-0
220
0
230
1
0
CIRCLE
5
332
100
AcDbEntity
8
0
100
AcDbCircle
10
-59.650977639629659
20
-43.42439726253037
30
0
40
1.9999999999999998
210
-0
220
0
230
1
0
CIRCLE
5
333
100
AcDbEntity
8
0
100
AcDbCircle
10
-59.396144349040085
20
-5.0306982264370426
30
0
40
0.875
210
-0
220
0
230
1
0
CIRCLE
5
334
100
AcDbEntity
8
0
100
AcDbCircle
10
-94.634289247097996
20
-19.293228325570304
30
0
40
1.9999999999999998
210
-0
220
0
230
1
0
CIRCLE
5
335
100
AcDbEntity
8
0
100
AcDbCircle
10
-52.008931688052726
20
-25.300355384043431
30
0
40
0.87499999999999811
210
-0
220
0
230
1
0
CIRCLE
5
336
100
AcDbEntity
8
0
100
AcDbCircle
10
-120.42007773791268
20
-33.216266787938409
30
0
40
1.3500000000000001
210
0
220
0
230
1
0
CIRCLE
5
337
100
AcDbEntity
8
0
100
AcDbCircle
10
-41.606202838625101
20
-24.171408630037909
30
0
40
1.3499999999999999
210
-0
220
0
230
1
0
CIRCLE
5
338
100
AcDbEntity
8
0
100
AcDbCircle
10
-121.87801605345447
20
-35.652959999999979
30
0
40
0.87500000000000011
210
0
220
0
230
1
0
CIRCLE
5
339
100
AcDbEntity
8
0
100
AcDbCircle
10
-68.099645058279009
20
-3.8089736865334523
30
0
40
0.87499999999999811
210
-0
220
0
230
1
0
CIRCLE
5
340
100
AcDbEntity
8
0
100
AcDbCircle
10
-91.418019438071454
20
-14.588609244470696
30
0
40
1.3499999999999999
210
-0
220
0
230
1
0
CIRCLE
5
341
100
AcDbEntity
8
0
100
AcDbCircle
10
-75.201553739825954
20
-36.062564557562169
30
0
40
1.3499999999999999
210
-0
220
0
230
1
0
CIRCLE
5
342
100
AcDbEntity
8
0
100
AcDbCircle
10
-43.230564815775608
20
-26.500465544073997
30
0
40
0.875
210
-0
220
0
230
1
0
CIRCLE
5
343
100
AcDbEntity
8
0
100
AcDbCircle
10
-97.251737088366369
20
-38.11866454716764
30
0
40
1.9999999999999998
210
-0
220
0
230
1
0
CIRCLE
5
344
100
AcDbEntity
8
0
100
AcDbCircle
10
-120.52801605345448
20
-16.702959999999969
30
0
40
0.87500000000000011
210
0
220
0
230
1
0
CIRCLE
5
345
100
AcDbEntity
8
0
100
AcDbCircle
10
-72.584105898557539
20
-17.237128335964833
30
0
40
1.3499999999999999
210
-0
220
0
230
1
0
LWPOLYLINE
5
346
100
AcDbEntity
8
0
100
AcDbPolyline
90
4
70
1
43
0.0
10
-75.643100539226964
20
-8.6992725250385501
42
-1.0001637462993618
10
-75.309499881219025
20
-6.3226038852242716
10
-71.924437808298393
20
-6.7983126815553527
42
-1.0000025301198874
10
-72.258437491931147
20
-9.1749534187794524
0
CIRCLE
5
347
100
AcDbEntity
8
0
100
AcDbCircle
10
-38.191817726100162
20
-27.234560284928673
30
0
40
1.9999999999999998
210
-0
220
0
230
1
0
CIRCLE
5
348
100
AcDbEntity
8
0
100
AcDbCircle
10
-34.975547917073655
20
-22.529941203829118
30
0
40
1.3499999999999999
210
-0
220
0
230
1
0
CIRCLE
5
349
100
AcDbEntity
8
0
100
AcDbCircle
10
-35.515685187103514
20
-8.4003922112873575
30
0
40
1.9999999999999998
210
-0
220
0
230
1
0
LWPOLYLINE
5
350
100
AcDbEntity
8
0
100
AcDbPolyline
90
4
70
1
43
0.0
10
-94.477014078740908
20
-6.0507534335444291
10
-91.092351031445119
20
-6.5264343272853509
42
1.0000025301198874
10
-90.758351347817097
20
-4.1497935900605576
10
-94.143413420733012
20
-3.6740847937301524
42
1.0001637462993618
0
CIRCLE
5
351
100
AcDbEntity
8
0
100
AcDbCircle
10
-99.673036336773464
20
-18.55913358471561
30
0
40
0.875
210
-0
220
0
230
1
0
CIRCLE
5
352
100
AcDbEntity
8
0
100
AcDbCircle
10
-98.048674359622936
20
-16.230076670679505
30
0
40
1.3499999999999999
210
-0
220
0
230
1
0
CIRCLE
5
353
100
AcDbEntity
8
0
100
AcDbCircle
10
-40.554432276778968
20
-7.6662974704326814
30
0
40
0.875
210
-0
220
0
230
1
0
CIRCLE
5
354
100
AcDbEntity
8
0
100
AcDbCircle
10
-46.1826327309699
20
-16.488169205921892
30
0
40
1.2499999999999982
210
0
220
-0
230
1
0
CIRCLE
5
355
100
AcDbEntity
8
0
100
AcDbCircle
10
-102.29048417804185
20
-37.384569806312946
30
0
40
0.875
210
-0
220
0
230
1
0
CIRCLE
5
356
100
AcDbEntity
8
0
100
AcDbCircle
10
-38.930070299628461
20
-5.3372405563965764
30
0
40
1.3499999999999999
210
-0
220
0
230
1
0
CIRCLE
5
357
100
AcDbEntity
8
0
100
AcDbCircle
10
-100.66612220089132
20
-35.055512892276838
30
0
40
1.3499999999999999
210
-0
220
0
230
1
0
CIRCLE
5
358
100
AcDbEntity
8
0
100
AcDbCircle
10
-80.839122797259535
20
-21.207652676209747
30
0
40
0.875
210
-0
220
0
230
1
0
CIRCLE
5
359
100
AcDbEntity
8
0
100
AcDbCircle
10
-70.775777597275564
20
-22.643141760174785
30
0
40
0.87499999999999811
210
-0
220
0
230
1
0
CIRCLE
5
360
100
AcDbEntity
8
0
100
AcDbCircle
10
-113.92007773791266
20
-31.1162667879384
30
0
40
1.3500000000000001
210
0
220
0
230
1
0
CIRCLE
5
361
100
AcDbEntity
8
0
100
AcDbCircle
10
-49.332799149056115
20
-6.4661873104020984
30
0
40
0.87499999999999811
210
-0
220
0
230
1
0
CIRCLE
5
362
100
AcDbEntity
8
0
100
AcDbCircle
10
-111.73905000000002
20
-36.382968829483175
30
0
40
0.87499999999999822
210
0
220
0
230
1
0
CIRCLE
5
363
100
AcDbEntity
8
0
100
AcDbCircle
10
-106.02603492124518
20
-27.392339739007454
30
0
40
1.25
210
0
220
-0
230
1
0
CIRCLE
5
364
100
AcDbEntity
8
0
100
AcDbCircle
10
-60.447914910886155
20
-21.535809386042288
30
0
40
1.3499999999999999
210
-0
220
0
230
1
0
CIRCLE
5
365
100
AcDbEntity
8
0
100
AcDbCircle
10
-57.033529798361215
20
-24.598961040933069
30
0
40
1.9999999999999998
210
-0
220
0
230
1
0
CIRCLE
5
366
100
AcDbEntity
8
0
100
AcDbCircle
10
-115.45033523792671
20
-17.083781293897182
30
0
40
2
210
0
220
0
230
1
0
CIRCLE
5
367
100
AcDbEntity
8
0
100
AcDbCircle
10
-75.800375707584081
20
-21.941747417064406
30
0
40
1.9999999999999998
210
-0
220
0
230
1
0
CIRCLE
5
368
100
AcDbEntity
8
0
100
AcDbCircle
10
-110.38905000000001
20
-17.432968829483162
30
0
40
0.87499999999999822
210
0
220
0
230
1
0
CIRCLE
5
369
100
AcDbEntity
8
0
100
AcDbCircle
10
-112.57007773791267
20
-12.166266787938405
30
0
40
1.3500000000000001
210
0
220
0
230
1
0
CIRCLE
5
370
100
AcDbEntity
8
0
100
AcDbCircle
10
-62.072276888036662
20
-23.864866300078376
30
0
40
0.875
210
-0
220
0
230
1
0
LWPOLYLINE
5
371
100
AcDbEntity
8
0
100
AcDbPolyline
90
4
70
1
43
0.0
10
10.000000149011612
20
-3.0000000447034836
10
-10.000000149011612
20
-3.0000000447034836
10
-10.000000149011612
20
-35.000000521540642
10
10.000000149011612
20
-35.000000521540642
0
LWPOLYLINE
5
372
100
AcDbEntity
8
0
100
AcDbPolyline
90
4
70
1
43
0.0
10
20.000000298023224
20
-3.0000000447034836
10
12.840907814102271
20
-3.0000000447034836
10
12.840907814102271
20
-7.0000001043081284
10
20.000000298023224
20
-7.0000001043081284
0
LWPOLYLINE
5
373
100
AcDbEntity
8
0
100
AcDbPolyline
90
4
70
1
43
0.0
10
-13.000000193715096
20
-9.0000001341104507
10
-21.000000312924385
20
-9.0000001341104507
10
-21.000000312924385
20
-19.000000283122063
10
-13.000000193715096
20
-19.000000283122063
0
LWPOLYLINE
5
374
100
AcDbEntity
8
0
100
AcDbPolyline
90
4
70
1
43
0.0
10
24.000000357627869
20
-28.000000417232513
10
15.000000223517418
20
-28.000000417232513
10
15.000000223517418
20
-34.000000506639481
10
24.000000357627869
20
-34.000000506639481
0
LINE
5
375
100
AcDbEntity
8
0
100
AcDbLine
10
21.227388561934269
20
19.000000283122063
30
0
11
21.227388561934269
21
0.56294305595704586
31
0
0
LINE
5
376
100
AcDbEntity
8
0
100
AcDbLine
10
21.227388561934269
20
0.56294305595704586
30
0
11
-18.772611438065738
21
0.56294305595704586
31
0
0
LINE
5
377
100
AcDbEntity
8
0
100
AcDbLine
10
-18.772611438065738
20
0.56294305595704586
30
0
11
-18.772611438065745
21
19.000000283122063
31
0
0
LINE
5
378
100
AcDbEntity
8
0
100
AcDbLine
10
69.999999701976776
20
19.000000283122063
30
0
11
21.227388561934269
21
19.000000283122063
31
0
0
LINE
5
379
100
AcDbEntity
8
0
100
AcDbLine
10
-18.772611438065745
20
19.000000283122063
30
0
11
-64.000002294778824
21
19.000000283122063
31
0
0
LINE
5
380
100
AcDbEntity
8
0
100
AcDbLine
10
-80.000002533197403
20
110.00000163912773
30
0
11
-89.000001326203346
21
110.00000163912773
31
0
0
LINE
5
381
100
AcDbEntity
8
0
100
AcDbLine
10
-80.000002533197403
20
29.000000432133675
30
0
11
-80.000002533197403
21
30
31
0
0
LINE
5
382
100
AcDbEntity
8
0
100
AcDbLine
10
-89.000001326203346
20
44.000000655651093
30
0
11
-80.000002533197403
21
44.000000655651093
31
0
0
LINE
5
383
100
AcDbEntity
8
0
100
AcDbLine
10
-80.000002533197403
20
30
30
0
11
-80.000002533197403
21
44.000000655651093
31
0
0
LINE
5
384
100
AcDbEntity
8
0
100
AcDbLine
10
-89.000001326203346
20
116.0000017285347
30
0
11
-89.000001326203346
21
110.00000163912773
31
0
0
ENDSEC
0
SECTION
2
OBJECTS
0
DICTIONARY
5
C
100
AcDbDictionary
3
ACAD_GROUP
350
D
3
ACAD_MLINESTYLE
350
17
0
DICTIONARY
5
D
100
AcDbDictionary
0
DICTIONARY
5
1A
330
C
100
AcDbDictionary
0
DICTIONARY
5
17
100
AcDbDictionary
0
ENDSEC
0
EOF
