0
SECTION
2
HEADER
9
$INSUNITS
70
4
9
$ACADVER
1
AC1014
9
$HANDSEED
5
FFFF
0
ENDSEC
0
SECTION
2
TABLES
0
TABLE
2
VPORT
5
8
100
AcDbSymbolTable
0
ENDTAB
0
TABLE
2
LTYPE
5
5
100
AcDbSymbolTable
0
LTYPE
5
14
100
AcDbSymbolTableRecord
100
AcDbLinetypeTableRecord
2
BYBLOCK
70
0
0
LTYPE
5
15
100
AcDbSymbolTableRecord
100
AcDbLinetypeTableRecord
2
BYLAYER
70
0
0
ENDTAB
0
TABLE
2
LAYER
5
2
100
AcDbSymbolTable
70
2
0
LAYER
5
50
100
AcDbSymbolTableRecord
100
AcDbLayerTableRecord
2
0
70
0
6
CONTINUOUS
0
ENDTAB
0
TABLE
2
STYLE
5
3
100
AcDbSymbolTable
70
1
0
STYLE
5
11
100
AcDbSymbolTableRecord
100
AcDbTextStyleTableRecord
2
STANDARD
70
0
0
ENDTAB
0
TABLE
2
VIEW
5
6
100
AcDbSymbolTable
70
0
0
ENDTAB
0
TABLE
2
UCS
5
7
100
AcDbSymbolTable
70
0
0
ENDTAB
0
TABLE
2
APPID
5
9
100
AcDbSymbolTable
70
2
0
APPID
5
12
100
AcDbSymbolTableRecord
100
AcDbRegAppTableRecord
2
ACAD
70
0
0
ENDTAB
0
TABLE
2
DIMSTYLE
5
A
100
AcDbSymbolTable
70
1
0
ENDTAB
0
TABLE
2
BLOCK_RECORD
5
1
100
AcDbSymbolTable
70
1
0
BLOCK_RECORD
5
1F
100
AcDbSymbolTableRecord
100
AcDbBlockTableRecord
2
*MODEL_SPACE
0
BLOCK_RECORD
5
1B
100
AcDbSymbolTableRecord
100
AcDbBlockTableRecord
2
*PAPER_SPACE
0
ENDTAB
0
ENDSEC
0
SECTION
2
BLOCKS
0
BLOCK
5
20
100
AcDbEntity
100
AcDbBlockBegin
2
*MODEL_SPACE
0
ENDBLK
5
21
100
AcDbEntity
100
AcDbBlockEnd
0
BLOCK
5
1C
100
AcDbEntity
100
AcDbBlockBegin
2
*PAPER_SPACE
0
ENDBLK
5
1D
100
AcDbEntity
100
AcDbBlockEnd
0
ENDSEC
0
SECTION
2
ENTITIES
0
LINE
5
100
100
AcDbEntity
8
0
100
AcDbLine
10
107
20
-88
30
0
11
-107
21
-88
31
0
0
ARC
5
101
100
AcDbEntity
8
0
100
AcDbCircle
10
127.00000000000001
20
120
30
0
40
1.9999999999999929
210
0
220
-0
230
1
100
AcDbArc
50
0
51
90
0
CIRCLE
5
102
100
AcDbEntity
8
0
100
AcDbCircle
10
130.00000193715096
20
125.00000186264515
30
0
40
1.7500000000000022
210
0
220
-0
230
1
0
LINE
5
103
100
AcDbEntity
8
0
100
AcDbLine
10
136.99991587937194
20
91.500001564621925
30
0
11
126.49991587937193
21
91.500001564621925
31
0
0
LINE
5
104
100
AcDbEntity
8
0
100
AcDbLine
10
120
20
39.999999999999993
30
0
11
129
21
39.999999999999993
31
0
0
LINE
5
105
100
AcDbEntity
8
0
100
AcDbLine
10
132.00000196695328
20
-77.069307701591356
30
0
11
126.01237562766659
21
-77.069307701591356
31
0
0
CIRCLE
5
106
100
AcDbEntity
8
0
100
AcDbCircle
10
108.5
20
-91.999998107552528
30
0
40
1.7500000000000071
210
0
220
-0
230
1
0
ARC
5
107
100
AcDbEntity
8
0
100
AcDbCircle
10
107
20
-66
30
0
40
30.000000000000018
210
0
220
0
230
1
100
AcDbArc
50
-90
51
0
0
ARC
5
108
100
AcDbEntity
8
0
100
AcDbCircle
10
107
20
-66
30
0
40
22.000000000000011
210
0
220
0
230
1
100
AcDbArc
50
270
51
329.79135472309758
0
CIRCLE
5
109
100
AcDbEntity
8
0
100
AcDbCircle
10
31.999999999999993
20
-91.999998107552528
30
0
40
1.7500000000000071
210
0
220
-0
230
1
0
LINE
5
110
100
AcDbEntity
8
0
100
AcDbLine
10
129
20
4.0000000596046448
30
0
11
129
21
24.000000357627869
31
0
0
CIRCLE
5
111
100
AcDbEntity
8
0
100
AcDbCircle
10
128.00000193715096
20
-80.999998137354851
30
0
40
1.7500000000000022
210
0
220
-0
230
1
0
LINE
5
112
100
AcDbEntity
8
0
100
AcDbLine
10
136.99991587937194
20
91.500001564621925
30
0
11
137
21
65
31
0
0
LINE
5
113
100
AcDbEntity
8
0
100
AcDbLine
10
120
20
115
30
0
11
120
21
39.999999999999993
31
0
0
LINE
5
114
100
AcDbEntity
8
0
100
AcDbLine
10
137
20
120
30
0
11
136.99991587937194
21
105.50000156462193
31
0
0
LINE
5
115
100
AcDbEntity
8
0
100
AcDbLine
10
129
20
115
30
0
11
129
21
120
31
0
0
LINE
5
116
100
AcDbEntity
8
0
100
AcDbLine
10
126.49991587937193
20
105.50000156462193
30
0
11
136.99991587937194
21
105.50000156462193
31
0
0
ARC
5
117
100
AcDbEntity
8
0
100
AcDbCircle
10
127.00000000000001
20
120
30
0
40
10
210
0
220
-0
230
1
100
AcDbArc
50
0
51
90
0
ARC
5
118
100
AcDbEntity
8
0
100
AcDbCircle
10
-107
20
-66
30
0
40
30.000000000000018
210
0
220
0
230
1
100
AcDbArc
50
180
51
270
0
CIRCLE
5
119
100
AcDbEntity
8
0
100
AcDbCircle
10
-32
20
-91.999998107552528
30
0
40
1.7500000000000071
210
0
220
-0
230
1
0
LINE
5
120
100
AcDbEntity
8
0
100
AcDbLine
10
-137
20
-66
30
0
11
-137
21
120.00000000000001
31
0
0
LINE
5
121
100
AcDbEntity
8
0
100
AcDbLine
10
-129
20
-66
30
0
11
-129
21
120.00000000000001
31
0
0
CIRCLE
5
122
100
AcDbEntity
8
0
100
AcDbCircle
10
-132.99999803304675
20
-34.000000000000014
30
0
40
1.749999999999996
210
0
220
-0
230
1
0
LINE
5
123
100
AcDbEntity
8
0
100
AcDbLine
10
137
20
51
30
0
11
137
21
-66.000000000000014
31
0
0
CIRCLE
5
124
100
AcDbEntity
8
0
100
AcDbCircle
10
-127.99999806284907
20
-80.999998137354851
30
0
40
1.7500000000000022
210
0
220
-0
230
1
0
CIRCLE
5
125
100
AcDbEntity
8
0
100
AcDbCircle
10
-108.5
20
-91.999998107552528
30
0
40
1.7500000000000071
210
0
220
-0
230
1
0
LINE
5
126
100
AcDbEntity
8
0
100
AcDbLine
10
132.00000196695328
20
-77.069307701591356
30
0
11
132.00000196695328
21
4.0000000596046537
31
0
0
ARC
5
127
100
AcDbEntity
8
0
100
AcDbCircle
10
-107
20
-66
30
0
40
22.000000000000011
210
0
220
0
230
1
100
AcDbArc
50
180
51
270
0
LINE
5
128
100
AcDbEntity
8
0
100
AcDbLine
10
137
20
51
30
0
11
126.50000000000003
21
51
31
0
0
LINE
5
129
100
AcDbEntity
8
0
100
AcDbLine
10
-127.00000000000001
20
130
30
0
11
36.492907151472814
21
130
31
0
0
LINE
5
130
100
AcDbEntity
8
0
100
AcDbLine
10
132.00000196695328
20
24.000000357627869
30
0
11
129
21
24.000000357627869
31
0
0
CIRCLE
5
131
100
AcDbEntity
8
0
100
AcDbCircle
10
133.00000196695328
20
12.500001654028896
30
0
40
1.749999999999996
210
0
220
-0
230
1
0
LINE
5
132
100
AcDbEntity
8
0
100
AcDbLine
10
132.00000196695328
20
28.999999999999986
30
0
11
132.00000196695328
21
24.000000357627869
31
0
0
LINE
5
133
100
AcDbEntity
8
0
100
AcDbLine
10
126.50000000000003
20
51
30
0
11
126.50000000000003
21
65
31
0
0
LINE
5
134
100
AcDbEntity
8
0
100
AcDbLine
10
-127.00000000000001
20
122
30
0
11
36.492907151472821
21
122
31
0
0
LINE
5
135
100
AcDbEntity
8
0
100
AcDbLine
10
107
20
-96.000000000000014
30
0
11
-107
21
-96.000000000000014
31
0
0
LINE
5
136
100
AcDbEntity
8
0
100
AcDbLine
10
126.50000000000003
20
65
30
0
11
137.00000000000003
21
65
31
0
0
LINE
5
137
100
AcDbEntity
8
0
100
AcDbLine
10
129
20
28.999999999999986
30
0
11
132.00000196695328
21
28.999999999999986
31
0
0
CIRCLE
5
138
100
AcDbEntity
8
0
100
AcDbCircle
10
31.999999999999993
20
126.00000189244747
30
0
40
1.7500000000000071
210
0
220
-0
230
1
0
CIRCLE
5
139
100
AcDbEntity
8
0
100
AcDbCircle
10
-132.99999803304675
20
12.500001654028896
30
0
40
1.749999999999996
210
0
220
-0
230
1
0
CIRCLE
5
140
100
AcDbEntity
8
0
100
AcDbCircle
10
-132.99999803304675
20
68.000001654028893
30
0
40
1.749999999999996
210
0
220
-0
230
1
0
CIRCLE
5
141
100
AcDbEntity
8
0
100
AcDbCircle
10
-32
20
126.00000189244747
30
0
40
1.7500000000000071
210
0
220
-0
230
1
0
CIRCLE
5
142
100
AcDbEntity
8
0
100
AcDbCircle
10
108.5
20
126.00000189244747
30
0
40
1.7500000000000071
210
0
220
-0
230
1
0
LINE
5
143
100
AcDbEntity
8
0
100
AcDbLine
10
102.52233397138504
20
122
30
0
11
127.00000000000001
21
122
31
0
0
CIRCLE
5
144
100
AcDbEntity
8
0
100
AcDbCircle
10
-132.99999803304675
20
88.000001654028893
30
0
40
1.749999999999996
210
0
220
-0
230
1
0
LINE
5
145
100
AcDbEntity
8
0
100
AcDbLine
10
102.52233397138504
20
130
30
0
11
127.00000000000001
21
130
31
0
0
LINE
5
146
100
AcDbEntity
8
0
100
AcDbLine
10
126.49991587937193
20
91.500001564621925
30
0
11
126.49991587937193
21
105.50000156462193
31
0
0
CIRCLE
5
147
100
AcDbEntity
8
0
100
AcDbCircle
10
-108.5
20
126.00000189244747
30
0
40
1.7500000000000071
210
0
220
-0
230
1
0
LINE
5
148
100
AcDbEntity
8
0
100
AcDbLine
10
129
20
115
30
0
11
120
21
115
31
0
0
ARC
5
149
100
AcDbEntity
8
0
100
AcDbCircle
10
-127.00000000000001
20
120
30
0
40
1.9999999999999929
210
0
220
-0
230
1
100
AcDbArc
50
90
51
180
0
CIRCLE
5
150
100
AcDbEntity
8
0
100
AcDbCircle
10
-130.00000193715096
20
125.00000186264515
30
0
40
1.7500000000000091
210
0
220
-0
230
1
0
ARC
5
151
100
AcDbEntity
8
0
100
AcDbCircle
10
-127.00000000000001
20
120
30
0
40
10
210
0
220
-0
230
1
100
AcDbArc
50
90
51
180
0
LINE
5
152
100
AcDbEntity
8
0
100
AcDbLine
10
129
20
39.999999999999993
30
0
11
129
21
28.999999999999986
31
0
0
LINE
5
153
100
AcDbEntity
8
0
100
AcDbLine
10
132.00000196695328
20
4.0000000596046448
30
0
11
129
21
4.0000000596046448
31
0
0
LINE
5
154
100
AcDbEntity
8
0
100
AcDbLine
10
102.52233397138504
20
130
30
0
11
36.492907151472814
21
130
31
0
0
LINE
5
155
100
AcDbEntity
8
0
100
AcDbLine
10
36.492907151472821
20
122
30
0
11
102.52233397138504
21
122
31
0
0
CIRCLE
5
156
100
AcDbEntity
8
0
100
AcDbCircle
10
133.00000196695328
20
68.000001654028893
30
0
40
1.749999999999996
210
0
220
-0
230
1
0
CIRCLE
5
157
100
AcDbEntity
8
0
100
AcDbCircle
10
133.00000196695328
20
88.000001654028893
30
0
40
1.749999999999996
210
0
220
-0
230
1
0
ENDSEC
0
SECTION
2
OBJECTS
0
DICTIONARY
5
C
100
AcDbDictionary
3
ACAD_GROUP
350
D
3
ACAD_MLINESTYLE
350
17
0
DICTIONARY
5
D
100
AcDbDictionary
0
DICTIONARY
5
1A
330
C
100
AcDbDictionary
0
DICTIONARY
5
17
100
AcDbDictionary
0
ENDSEC
0
EOF
