0
SECTION
2
HEADER
9
$INSUNITS
70
4
9
$ACADVER
1
AC1014
9
$HANDSEED
5
FFFF
0
ENDSEC
0
SECTION
2
TABLES
0
TABLE
2
VPORT
5
8
100
AcDbSymbolTable
0
ENDTAB
0
TABLE
2
LTYPE
5
5
100
AcDbSymbolTable
0
LTYPE
5
14
100
AcDbSymbolTableRecord
100
AcDbLinetypeTableRecord
2
BYBLOCK
70
0
0
LTYPE
5
15
100
AcDbSymbolTableRecord
100
AcDbLinetypeTableRecord
2
BYLAYER
70
0
0
ENDTAB
0
TABLE
2
LAYER
5
2
100
AcDbSymbolTable
70
2
0
LAYER
5
50
100
AcDbSymbolTableRecord
100
AcDbLayerTableRecord
2
0
70
0
6
CONTINUOUS
0
ENDTAB
0
TABLE
2
STYLE
5
3
100
AcDbSymbolTable
70
1
0
STYLE
5
11
100
AcDbSymbolTableRecord
100
AcDbTextStyleTableRecord
2
STANDARD
70
0
0
ENDTAB
0
TABLE
2
VIEW
5
6
100
AcDbSymbolTable
70
0
0
ENDTAB
0
TABLE
2
UCS
5
7
100
AcDbSymbolTable
70
0
0
ENDTAB
0
TABLE
2
APPID
5
9
100
AcDbSymbolTable
70
2
0
APPID
5
12
100
AcDbSymbolTableRecord
100
AcDbRegAppTableRecord
2
ACAD
70
0
0
ENDTAB
0
TABLE
2
DIMSTYLE
5
A
100
AcDbSymbolTable
70
1
0
ENDTAB
0
TABLE
2
BLOCK_RECORD
5
1
100
AcDbSymbolTable
70
1
0
BLOCK_RECORD
5
1F
100
AcDbSymbolTableRecord
100
AcDbBlockTableRecord
2
*MODEL_SPACE
0
BLOCK_RECORD
5
1B
100
AcDbSymbolTableRecord
100
AcDbBlockTableRecord
2
*PAPER_SPACE
0
ENDTAB
0
ENDSEC
0
SECTION
2
BLOCKS
0
BLOCK
5
20
100
AcDbEntity
100
AcDbBlockBegin
2
*MODEL_SPACE
0
ENDBLK
5
21
100
AcDbEntity
100
AcDbBlockEnd
0
BLOCK
5
1C
100
AcDbEntity
100
AcDbBlockBegin
2
*PAPER_SPACE
0
ENDBLK
5
1D
100
AcDbEntity
100
AcDbBlockEnd
0
ENDSEC
0
SECTION
2
ENTITIES
0
CIRCLE
5
100
100
AcDbEntity
8
0
100
AcDbCircle
10
-44.00000062584877
20
-82.000001192092896
30
0
40
1.4999999999999971
210
0
220
-0
230
1
0
CIRCLE
5
101
100
AcDbEntity
8
0
100
AcDbCircle
10
-126.50000152736901
20
27.00000037252903
30
0
40
1.5000000000000053
210
0
220
-0
230
1
0
CIRCLE
5
102
100
AcDbEntity
8
0
100
AcDbCircle
10
-97.999997809529305
20
46.199998967349529
30
0
40
1.4999999999999993
210
0
220
-0
230
1
0
CIRCLE
5
103
100
AcDbEntity
8
0
100
AcDbCircle
10
66.999999374151244
20
-82.000001192092896
30
0
40
1.4999999999999971
210
0
220
-0
230
1
0
CIRCLE
5
104
100
AcDbEntity
8
0
100
AcDbCircle
10
12.999999374151233
20
-82.000001192092896
30
0
40
1.4999999999999971
210
0
220
-0
230
1
0
CIRCLE
5
105
100
AcDbEntity
8
0
100
AcDbCircle
10
127.59999714568258
20
-0.84999998323619375
30
0
40
1.5000000000000038
210
0
220
-0
230
1
0
CIRCLE
5
106
100
AcDbEntity
8
0
100
AcDbCircle
10
124.09999722614884
20
45.099998991936445
30
0
40
1.4999999999999989
210
0
220
-0
230
1
0
CIRCLE
5
107
100
AcDbEntity
8
0
100
AcDbCircle
10
124.19999719932676
20
108.99999737367034
30
0
40
1.5000000000000071
210
0
220
-0
230
1
0
CIRCLE
5
108
100
AcDbEntity
8
0
100
AcDbCircle
10
-97.500001452863216
20
113.80000169873239
30
0
40
1.5000000000000027
210
0
220
-0
230
1
0
CIRCLE
5
109
100
AcDbEntity
8
0
100
AcDbCircle
10
-105.40999764412641
20
-0.94999998211860659
30
0
40
1.5000000000000002
210
0
220
-0
230
1
0
CIRCLE
5
110
100
AcDbEntity
8
0
100
AcDbCircle
10
-15.500000230967999
20
17.500000260770321
30
0
40
1.5000000000000009
210
0
220
-0
230
1
0
CIRCLE
5
111
100
AcDbEntity
8
0
100
AcDbCircle
10
6.0999998636543751
20
10.199999772012234
30
0
40
1.5000000000000004
210
0
220
-0
230
1
0
CIRCLE
5
112
100
AcDbEntity
8
0
100
AcDbCircle
10
-15.500000230967999
20
115.50000026077032
30
0
40
1.5000000000000009
210
0
220
-0
230
1
0
LWPOLYLINE
5
113
100
AcDbEntity
8
0
100
AcDbPolyline
90
52
70
1
43
0.0
10
-55.999999999999986
20
-89.000000000000028
10
-92
20
-89.000000000000028
42
0.31783724519578238
10
-94.828427124746185
20
-91.000000000000014
10
-106.20871132659121
20
-91.000000000000014
42
0.61238496597088854
10
-110.65426855555918
20
-90.731484414079389
42
-0.1795585584331805
10
-125.9028978464948
20
-82.360942913077537
42
0.68112918814535384
10
-128.60723757213955
20
-78.574867176281472
42
-0.13253295493638004
10
-132
20
-66
10
-132
20
-36.291288705925709
42
0.65465428388573832
10
-132
20
-31.708711294074313
10
-132
20
10.208712948103191
42
0.65465428388573921
10
-132
20
14.791290359954603
10
-132
20
65.708712948103184
42
0.65465428388573954
10
-132
20
70.291290359954601
10
-132
20
85.708712948103184
42
0.65465428388573832
10
-132
20
90.291290359954587
10
-132
20
120
42
-0.14861744754914036
10
-131.15428558156563
20
122.7824290299657
42
0.55958555887885686
10
-127.50012771666428
20
124.97492434786943
42
-0.02505351318001171
10
-127.00000000000001
20
125
10
-110.7912870215452
20
125
42
0.65465308075675199
10
-106.2087129784548
20
125
10
-34.291287021545202
20
125
42
0.65465308075675133
10
-29.708712978454802
20
125
10
29.708712978454791
20
125
42
0.65465308075675133
10
34.291287021545202
20
125
10
106.20871297845481
20
125
42
0.65465308075674999
10
110.79128702154519
20
125
10
127.00000000000001
20
124.99999999999999
42
-0.02505351318001171
10
127.50012771666428
20
124.97492434786943
42
0.55958555887885686
10
131.15428558156563
20
122.7824290299657
42
-0.14861744754914036
10
132
20
120
10
132
20
90.291288643057015
42
0.65465305753033165
10
132
20
85.70871466500077
10
132
20
70.29128864305703
42
0.65465305753033376
10
132
20
65.708714665000755
10
132
20
14.791288643057028
42
0.65465305753033276
10
132
20
10.208714665000764
10
132.00000000000003
20
-65.999999999999986
42
-0.13253294496763818
10
128.60723806490651
20
-78.574866329566106
42
0.68112823138040712
10
125.90290006064463
20
-82.360940354920984
42
-0.179558593356857
10
110.65426855555906
20
-90.731484414079404
42
0.61238496597087977
10
106.2087113265912
20
-91.000000000000014
10
94.828427124746213
20
-91.000000000000014
42
0.31783724519578238
10
92.000000000000028
20
-89.000000000000028
10
56.000000000000014
20
-89.000000000000028
42
0.31783724519578238
10
53.17157287525383
20
-91.000000000000014
10
34.291288673408772
20
-91.000000000000014
42
0.65465426065931132
10
29.708711326591214
20
-91.000000000000014
10
-29.708711326591214
20
-91.000000000000014
42
0.65465426065931243
10
-34.291288673408793
20
-91.000000000000014
10
-53.171572875253815
20
-91.000000000000014
42
0.31783724519578205
0
CIRCLE
5
114
100
AcDbEntity
8
0
100
AcDbCircle
10
70
20
75
30
0
40
27.499999999999996
210
0
220
-0
230
1
0
CIRCLE
5
115
100
AcDbEntity
8
0
100
AcDbCircle
10
-114
20
111
30
0
40
2.2499999999999951
210
0
220
-0
230
1
0
CIRCLE
5
116
100
AcDbEntity
8
0
100
AcDbCircle
10
-114
20
92.999999999999986
30
0
40
2.2499999999999951
210
0
220
-0
230
1
0
CIRCLE
5
117
100
AcDbEntity
8
0
100
AcDbCircle
10
-114
20
75
30
0
40
2.2499999999999951
210
0
220
-0
230
1
0
CIRCLE
5
118
100
AcDbEntity
8
0
100
AcDbCircle
10
114
20
75
30
0
40
2.2499999999999951
210
0
220
-0
230
1
0
CIRCLE
5
119
100
AcDbEntity
8
0
100
AcDbCircle
10
114
20
92.999999999999986
30
0
40
2.2499999999999951
210
0
220
-0
230
1
0
CIRCLE
5
120
100
AcDbEntity
8
0
100
AcDbCircle
10
114
20
111
30
0
40
2.2499999999999951
210
0
220
-0
230
1
0
ENDSEC
0
SECTION
2
OBJECTS
0
DICTIONARY
5
C
100
AcDbDictionary
3
ACAD_GROUP
350
D
3
ACAD_MLINESTYLE
350
17
0
DICTIONARY
5
D
100
AcDbDictionary
0
DICTIONARY
5
1A
330
C
100
AcDbDictionary
0
DICTIONARY
5
17
100
AcDbDictionary
0
ENDSEC
0
EOF
