0
SECTION
2
HEADER
9
$INSUNITS
70
4
9
$ACADVER
1
AC1014
9
$HANDSEED
5
FFFF
0
ENDSEC
0
SECTION
2
TABLES
0
TABLE
2
VPORT
5
8
100
AcDbSymbolTable
0
ENDTAB
0
TABLE
2
LTYPE
5
5
100
AcDbSymbolTable
0
LTYPE
5
14
100
AcDbSymbolTableRecord
100
AcDbLinetypeTableRecord
2
BYBLOCK
70
0
0
LTYPE
5
15
100
AcDbSymbolTableRecord
100
AcDbLinetypeTableRecord
2
BYLAYER
70
0
0
ENDTAB
0
TABLE
2
LAYER
5
2
100
AcDbSymbolTable
70
2
0
LAYER
5
50
100
AcDbSymbolTableRecord
100
AcDbLayerTableRecord
2
0
70
0
6
CONTINUOUS
0
ENDTAB
0
TABLE
2
STYLE
5
3
100
AcDbSymbolTable
70
1
0
STYLE
5
11
100
AcDbSymbolTableRecord
100
AcDbTextStyleTableRecord
2
STANDARD
70
0
0
ENDTAB
0
TABLE
2
VIEW
5
6
100
AcDbSymbolTable
70
0
0
ENDTAB
0
TABLE
2
UCS
5
7
100
AcDbSymbolTable
70
0
0
ENDTAB
0
TABLE
2
APPID
5
9
100
AcDbSymbolTable
70
2
0
APPID
5
12
100
AcDbSymbolTableRecord
100
AcDbRegAppTableRecord
2
ACAD
70
0
0
ENDTAB
0
TABLE
2
DIMSTYLE
5
A
100
AcDbSymbolTable
70
1
0
ENDTAB
0
TABLE
2
BLOCK_RECORD
5
1
100
AcDbSymbolTable
70
1
0
BLOCK_RECORD
5
1F
100
AcDbSymbolTableRecord
100
AcDbBlockTableRecord
2
*MODEL_SPACE
0
BLOCK_RECORD
5
1B
100
AcDbSymbolTableRecord
100
AcDbBlockTableRecord
2
*PAPER_SPACE
0
ENDTAB
0
ENDSEC
0
SECTION
2
BLOCKS
0
BLOCK
5
20
100
AcDbEntity
100
AcDbBlockBegin
2
*MODEL_SPACE
0
ENDBLK
5
21
100
AcDbEntity
100
AcDbBlockEnd
0
BLOCK
5
1C
100
AcDbEntity
100
AcDbBlockBegin
2
*PAPER_SPACE
0
ENDBLK
5
1D
100
AcDbEntity
100
AcDbBlockEnd
0
ENDSEC
0
SECTION
2
ENTITIES
0
ARC
5
100
100
AcDbEntity
8
0
100
AcDbCircle
10
-127.00000000000001
20
120
30
0
40
10
210
0
220
-0
230
1
100
AcDbArc
50
90
51
180
0
LINE
5
101
100
AcDbEntity
8
0
100
AcDbLine
10
-127.00000000000001
20
130
30
0
11
127.00000000000001
21
130
31
0
0
LINE
5
102
100
AcDbEntity
8
0
100
AcDbLine
10
-137
20
-66
30
0
11
-137
21
120.00000000000001
31
0
0
ARC
5
103
100
AcDbEntity
8
0
100
AcDbCircle
10
-107
20
-66
30
0
40
30.000000000000018
210
0
220
0
230
1
100
AcDbArc
50
180
51
270
0
LINE
5
104
100
AcDbEntity
8
0
100
AcDbLine
10
107
20
-96.000000000000014
30
0
11
-107
21
-96.000000000000014
31
0
0
ARC
5
105
100
AcDbEntity
8
0
100
AcDbCircle
10
107
20
-66
30
0
40
30.000000000000018
210
-0
220
0
230
1
100
AcDbArc
50
-90
51
0
0
LINE
5
106
100
AcDbEntity
8
0
100
AcDbLine
10
137
20
120
30
0
11
137
21
-66.000000000000014
31
0
0
ARC
5
107
100
AcDbEntity
8
0
100
AcDbCircle
10
127.00000000000001
20
120
30
0
40
10
210
0
220
-0
230
1
100
AcDbArc
50
0
51
90
0
ARC
5
108
100
AcDbEntity
8
0
100
AcDbCircle
10
26.870999999999974
20
-42.011000000000024
30
0
40
3.0639999850988402
210
0
220
-0
230
1
100
AcDbArc
50
13.451014436662845
51
90
0
LINE
5
109
100
AcDbEntity
8
0
100
AcDbLine
10
-26.468999999999987
20
-38.947000014901178
30
0
11
26.870999999999974
21
-38.947000014901164
31
0
0
ARC
5
110
100
AcDbEntity
8
0
100
AcDbCircle
10
-26.468999999999987
20
-42.011000000000024
30
0
40
3.0639999850988398
210
0
220
-0
230
1
100
AcDbArc
50
90
51
166.58350836342922
0
CIRCLE
5
111
100
AcDbEntity
8
0
100
AcDbCircle
10
0
20
-65
30
0
40
14.500000000000004
210
0
220
-0
230
1
0
LINE
5
112
100
AcDbEntity
8
0
100
AcDbLine
10
-81.000001206994057
20
120.00000178813934
30
0
11
85.000001266598701
21
120.00000178813934
31
0
0
LINE
5
113
100
AcDbEntity
8
0
100
AcDbLine
10
85.000001266598701
20
120.00000178813934
30
0
11
85.000001266598701
21
19.000000283122063
31
0
0
LINE
5
114
100
AcDbEntity
8
0
100
AcDbLine
10
-81.000001206994057
20
19.000000283122063
30
0
11
-81.000001206994057
21
120.00000178813934
31
0
0
LWPOLYLINE
5
115
100
AcDbEntity
8
0
100
AcDbPolyline
90
4
70
1
43
0.0
10
-89.000001326203346
20
116.0000017285347
10
-121.0000018030405
20
116.0000017285347
10
-121.0000018030405
20
44.000000655651093
10
-89.000001326203346
20
44.000000655651093
0
LWPOLYLINE
5
116
100
AcDbEntity
8
0
100
AcDbPolyline
90
4
70
1
43
0.0
10
121.0000018030405
20
116.0000017285347
10
89.000001326203346
20
116.0000017285347
10
89.000001326203346
20
44.000000655651093
10
121.0000018030405
20
44.000000655651093
0
ARC
5
117
100
AcDbEntity
8
0
100
AcDbCircle
10
-96.000000000000028
20
36.499999999999972
30
0
40
0.50000000000002487
210
0
220
-0
230
1
100
AcDbArc
50
0
51
90
0
LINE
5
118
100
AcDbEntity
8
0
100
AcDbLine
10
-95.5
20
36.499999999999972
30
0
11
-95.5
21
19.500000000000039
31
0
0
ARC
5
119
100
AcDbEntity
8
0
100
AcDbCircle
10
-96.000000000000028
20
19.500000000000039
30
0
40
0.50000000000002931
210
0
220
0
230
1
100
AcDbArc
50
-90
51
0
0
LINE
5
120
100
AcDbEntity
8
0
100
AcDbLine
10
-96.000000000000028
20
19.000000000000011
30
0
11
-113.99999999999999
21
19.000000000000011
31
0
0
ARC
5
121
100
AcDbEntity
8
0
100
AcDbCircle
10
-113.99999999999999
20
19.500000000000036
30
0
40
0.50000000000002487
210
0
220
0
230
1
100
AcDbArc
50
180
51
270
0
LINE
5
122
100
AcDbEntity
8
0
100
AcDbLine
10
-114.50000000000001
20
19.500000000000036
30
0
11
-114.50000000000001
21
36.500000000000007
31
0
0
ARC
5
123
100
AcDbEntity
8
0
100
AcDbCircle
10
-113.99999999999999
20
36.499999999999972
30
0
40
0.50000000000002487
210
0
220
0
230
1
100
AcDbArc
50
90.000000000001634
51
180
0
LINE
5
124
100
AcDbEntity
8
0
100
AcDbLine
10
-114
20
37
30
0
11
-96.000000000000028
21
37
31
0
0
CIRCLE
5
125
100
AcDbEntity
8
0
100
AcDbCircle
10
-130.00000193715096
20
125.00000186264515
30
0
40
1.7500000000000091
210
0
220
-0
230
1
0
CIRCLE
5
126
100
AcDbEntity
8
0
100
AcDbCircle
10
-108.5
20
126.00000189244747
30
0
40
1.7500000000000071
210
0
220
-0
230
1
0
CIRCLE
5
127
100
AcDbEntity
8
0
100
AcDbCircle
10
-132.99999803304675
20
88.000001654028893
30
0
40
1.749999999999996
210
0
220
-0
230
1
0
CIRCLE
5
128
100
AcDbEntity
8
0
100
AcDbCircle
10
-132.99999803304675
20
68.000001654028893
30
0
40
1.749999999999996
210
0
220
-0
230
1
0
CIRCLE
5
129
100
AcDbEntity
8
0
100
AcDbCircle
10
-132.99999803304675
20
12.500001654028896
30
0
40
1.749999999999996
210
0
220
-0
230
1
0
CIRCLE
5
130
100
AcDbEntity
8
0
100
AcDbCircle
10
-132.99999803304675
20
-34.000000000000014
30
0
40
1.749999999999996
210
0
220
-0
230
1
0
CIRCLE
5
131
100
AcDbEntity
8
0
100
AcDbCircle
10
-127.99999806284907
20
-80.999998137354851
30
0
40
1.7500000000000022
210
0
220
-0
230
1
0
CIRCLE
5
132
100
AcDbEntity
8
0
100
AcDbCircle
10
-108.5
20
-91.999998107552528
30
0
40
1.7500000000000071
210
0
220
-0
230
1
0
CIRCLE
5
133
100
AcDbEntity
8
0
100
AcDbCircle
10
-32
20
-91.999998107552528
30
0
40
1.7500000000000071
210
0
220
-0
230
1
0
CIRCLE
5
134
100
AcDbEntity
8
0
100
AcDbCircle
10
31.999999999999993
20
-91.999998107552528
30
0
40
1.7500000000000071
210
0
220
-0
230
1
0
CIRCLE
5
135
100
AcDbEntity
8
0
100
AcDbCircle
10
108.5
20
-91.999998107552528
30
0
40
1.7500000000000071
210
0
220
-0
230
1
0
CIRCLE
5
136
100
AcDbEntity
8
0
100
AcDbCircle
10
128.00000193715096
20
-80.999998137354851
30
0
40
1.7500000000000022
210
0
220
-0
230
1
0
CIRCLE
5
137
100
AcDbEntity
8
0
100
AcDbCircle
10
133.00000196695328
20
12.500001654028896
30
0
40
1.749999999999996
210
0
220
-0
230
1
0
CIRCLE
5
138
100
AcDbEntity
8
0
100
AcDbCircle
10
133.00000196695328
20
68.000001654028893
30
0
40
1.749999999999996
210
0
220
-0
230
1
0
CIRCLE
5
139
100
AcDbEntity
8
0
100
AcDbCircle
10
133.00000196695328
20
88.000001654028893
30
0
40
1.749999999999996
210
0
220
-0
230
1
0
CIRCLE
5
140
100
AcDbEntity
8
0
100
AcDbCircle
10
130.00000193715096
20
125.00000186264515
30
0
40
1.7500000000000022
210
0
220
-0
230
1
0
CIRCLE
5
141
100
AcDbEntity
8
0
100
AcDbCircle
10
108.5
20
126.00000189244747
30
0
40
1.7500000000000071
210
0
220
-0
230
1
0
CIRCLE
5
142
100
AcDbEntity
8
0
100
AcDbCircle
10
31.999999999999993
20
126.00000189244747
30
0
40
1.7500000000000071
210
0
220
-0
230
1
0
CIRCLE
5
143
100
AcDbEntity
8
0
100
AcDbCircle
10
-32
20
126.00000189244747
30
0
40
1.7500000000000071
210
0
220
-0
230
1
0
LINE
5
144
100
AcDbEntity
8
0
100
AcDbLine
10
85.000001266598701
20
19.000000283122063
30
0
11
24.976188491071397
21
19.000000283122063
31
0
0
LINE
5
145
100
AcDbEntity
8
0
100
AcDbLine
10
-24.410234100448911
20
19.000000283122066
30
0
11
-81.000001206994057
21
19.000000283122063
31
0
0
ARC
5
146
100
AcDbEntity
8
0
100
AcDbCircle
10
91.986317047476902
20
-50.596905431319755
30
0
40
1.000000000000077
210
0
220
0
230
1
100
AcDbArc
50
98.227814840489387
51
187.8451500641016
0
LINE
5
147
100
AcDbEntity
8
0
100
AcDbLine
10
90.995676460822949
20
-50.73340168795005
30
0
11
93.326647415580183
21
-67.650747929521032
31
0
0
ARC
5
148
100
AcDbEntity
8
0
100
AcDbCircle
10
127.44738917124803
20
-44.937391193109448
30
0
40
1.0000000000000056
210
-0
220
0
230
1
100
AcDbArc
50
-86.200602011145648
51
4.1036309613388191
0
LINE
5
149
100
AcDbEntity
8
0
100
AcDbLine
10
108.5100435984958
20
-47.197211120959459
30
0
11
127.51365258766789
21
-45.935193357691375
31
0
0
LINE
5
150
100
AcDbEntity
8
0
100
AcDbLine
10
91.843207633286156
20
-49.607198557760654
30
0
11
108.5100435984958
21
-47.197211120959459
31
0
0
ARC
5
151
100
AcDbEntity
8
0
100
AcDbCircle
10
91.986317047476902
20
-50.596905431319755
30
0
40
1.000000000000077
210
0
220
0
230
1
100
AcDbArc
50
98.227814840489387
51
187.8451500641016
0
LINE
5
152
100
AcDbEntity
8
0
100
AcDbLine
10
90.995676460822949
20
-50.73340168795005
30
0
11
93.326647415580183
21
-67.650747929521032
31
0
0
ARC
5
153
100
AcDbEntity
8
0
100
AcDbCircle
10
92.336006828926287
20
-67.787244186151341
30
0
40
1.0000000000000273
210
-0
220
0
230
1
100
AcDbArc
50
-82.154849935893779
51
7.8451500641028806
0
LINE
5
154
100
AcDbEntity
8
0
100
AcDbLine
10
35.779565323466677
20
-76.589369468824543
30
0
11
92.472503085556653
21
-68.777884772805223
31
0
0
ARC
5
155
100
AcDbEntity
8
0
100
AcDbCircle
10
35.643069066836325
20
-75.598728882170704
30
0
40
0.99999999999999623
210
0
220
0
230
1
100
AcDbArc
50
187.93746411723825
51
277.84515006410567
0
LINE
5
156
100
AcDbEntity
8
0
100
AcDbLine
10
34.65264968650451
20
-75.736821065378606
30
0
11
29.850951865072762
21
-41.298270885584934
31
0
0
LINE
5
157
100
AcDbEntity
8
0
100
AcDbLine
10
24.976188491071397
20
0.90964593606805311
30
0
11
102.58704165123162
21
11.689373865348188
31
0
0
LINE
5
158
100
AcDbEntity
8
0
100
AcDbLine
10
102.58704165123162
20
11.689373865348188
30
0
11
123.29229075394275
21
13.056955801921696
31
0
0
ARC
5
159
100
AcDbEntity
8
0
100
AcDbCircle
10
123.35819715989044
20
12.059129992646842
30
0
40
0.99999999999997269
210
0
220
-0
230
1
100
AcDbArc
50
4.1036309613389959
51
93.778897982493376
0
LINE
5
160
100
AcDbEntity
8
0
100
AcDbLine
10
124.35563340986596
20
12.130690646883
30
0
11
128.44482542122358
21
-44.86583053887329
31
0
0
ARC
5
161
100
AcDbEntity
8
0
100
AcDbCircle
10
-35.377193958091297
20
-75.58863947053193
30
0
40
0.9999999999999889
210
0
220
0
230
1
100
AcDbArc
50
261.99477479049295
51
351.83843640440978
0
LINE
5
162
100
AcDbEntity
8
0
100
AcDbLine
10
-35.516457368058489
20
-76.578894842970925
30
0
11
-91.913845169065155
21
-68.647513951730744
31
0
0
ARC
5
163
100
AcDbEntity
8
0
100
AcDbCircle
10
-91.774581759097913
20
-67.657258579291707
30
0
40
1.0000000000000475
210
0
220
0
230
1
100
AcDbArc
50
171.99477479049466
51
261.99477479049051
0
LINE
5
164
100
AcDbEntity
8
0
100
AcDbLine
10
-92.764837131536964
20
-67.517995169324536
30
0
11
-90.40395793806718
21
-50.730575519298924
31
0
0
ARC
5
165
100
AcDbEntity
8
0
100
AcDbCircle
10
-91.39421331050616
20
-50.59131210933171
30
0
40
0.99999999999998335
210
-0
220
0
230
1
100
AcDbArc
50
-8.0052252095083638
51
81.821567151171635
0
LINE
5
166
100
AcDbEntity
8
0
100
AcDbLine
10
-107.98051137764568
20
-47.197288078911456
30
0
11
-91.251956956285994
21
-49.601482260476892
31
0
0
LINE
5
167
100
AcDbEntity
8
0
100
AcDbLine
10
-107.98051137764568
20
-47.197288078911456
30
0
11
-127.24061236906364
21
-45.920240990095508
31
0
0
ARC
5
168
100
AcDbEntity
8
0
100
AcDbCircle
10
-127.17445232607753
20
-44.922431965926997
30
0
40
1.0000000000000204
210
0
220
0
230
1
100
AcDbArc
50
175.91831178942502
51
266.20653789835211
0
LINE
5
169
100
AcDbEntity
8
0
100
AcDbLine
10
-124.09237341362996
20
12.317499377540573
30
0
11
-128.17191590872235
21
-44.851253308329447
31
0
0
ARC
5
170
100
AcDbEntity
8
0
100
AcDbCircle
10
-123.09490983098515
20
12.24632071994302
30
0
40
1.0000000000000036
210
0
220
-0
230
1
100
AcDbArc
50
85.784724622066534
51
175.91831178942468
0
LINE
5
171
100
AcDbEntity
8
0
100
AcDbLine
10
-101.92796982901847
20
11.688956462989823
30
0
11
-123.02140574679959
21
13.243615636007496
31
0
0
LINE
5
172
100
AcDbEntity
8
0
100
AcDbLine
10
-101.92796982901847
20
11.688956462989823
30
0
11
-24.410234100448911
21
0.91031380363491232
31
0
0
LINE
5
173
100
AcDbEntity
8
0
100
AcDbLine
10
-34.387322268452579
20
-75.730604388915864
30
0
11
-29.449380769437084
21
-41.300066544706752
31
0
0
LINE
5
174
100
AcDbEntity
8
0
100
AcDbLine
10
24.976188491071397
20
0.90964593606805311
30
0
11
24.976188491071397
21
19.000000283122063
31
0
0
LINE
5
175
100
AcDbEntity
8
0
100
AcDbLine
10
-24.410234100448911
20
0.91031380363491232
30
0
11
-24.410234100448911
21
19.000000283122066
31
0
0
ENDSEC
0
SECTION
2
OBJECTS
0
DICTIONARY
5
C
100
AcDbDictionary
3
ACAD_GROUP
350
D
3
ACAD_MLINESTYLE
350
17
0
DICTIONARY
5
D
100
AcDbDictionary
0
DICTIONARY
5
1A
330
C
100
AcDbDictionary
0
DICTIONARY
5
17
100
AcDbDictionary
0
ENDSEC
0
EOF
