  0
SECTION
  2
HEADER
  9
$ANGBASE
  50
0.0
  9
$ANGDIR
  70
1
  9
$MEASUREMENT
  70
1
  0
ENDSEC
  0
SECTION
  2
TABLES
  0
TABLE
  2
LTYPE
  70
4
  0
LTYPE
  5
40F
  2
CONTINUOUS
  70
0
  3
Solid line
  72
65
  73
0
  40
0.0
  0
LTYPE
  5
410
  2
DASHDOT
 70
0
  3
Dash Dot ____ _ ____ _
 72
65
 73
4
 40
2.0
 49
1.25
 49
-0.25
 49
0.25
 49
-0.25
  0
LTYPE
  5
411
  2
DASHED
 70
0
  3
Dashed __ __ __ __ __
 72
65
 73
2
 40
0.75
 49
0.5
 49
-0.25
  0
LTYPE
  5
43B
  2
DOTTED
 70
0
  3
Dotted .  .  .  .
 72
65
 73
2
 40
0.2
 49
0.0
 49
-0.2
  0
ENDTAB
  0
TABLE
  2
STYLE
  70
4
  0
STYLE
  2
KICAD
  70
0
  40
0
  41
1
  42
1
  50
0
  71
0
  3
isocp.shx
  0
STYLE
  2
KICADB
  70
0
  40
0
  41
1
  42
1
  50
0
  71
0
  3
isocp.shx
  0
STYLE
  2
KICADI
  70
0
  40
0
  41
1
  42
1
  50
15
  71
0
  3
isocp.shx
  0
STYLE
  2
KICADBI
  70
0
  40
0
  41
1
  42
1
  50
15
  71
0
  3
isocp.shx
  0
ENDTAB
  0
TABLE
  2
LAYER
  70
1
  0
LAYER
  2
BLACK
  70
0
  62
7
  6
CONTINUOUS
  0
ENDTAB
  0
ENDSEC
  0
SECTION
  2
ENTITIES
0
LINE
8
BLACK
6
CONTINUOUS
10
45.4675
20
-35.281
11
45.4683
21
-35.2811
0
LINE
8
BLACK
6
CONTINUOUS
10
45.4683
20
-35.2811
11
45.4686
21
-35.2811
0
LINE
8
BLACK
6
CONTINUOUS
10
45.4686
20
-35.2811
11
45.469
21
-35.2812
0
LINE
8
BLACK
6
CONTINUOUS
10
45.469
20
-35.2812
11
45.4699
21
-35.2813
0
LINE
8
BLACK
6
CONTINUOUS
10
45.4699
20
-35.2813
11
122.684
21
-46.203
0
LINE
8
BLACK
6
CONTINUOUS
10
122.684
20
-46.203
11
172.718
21
-46.203
0
LINE
8
BLACK
6
CONTINUOUS
10
172.718
20
-46.203
11
250.186
21
-35.2813
0
LINE
8
BLACK
6
CONTINUOUS
10
250.186
20
-35.2813
11
250.187
21
-35.2811
0
LINE
8
BLACK
6
CONTINUOUS
10
250.187
20
-35.2811
11
250.187
21
-35.2811
0
LINE
8
BLACK
6
CONTINUOUS
10
250.187
20
-35.2811
11
250.188
21
-35.2811
0
LINE
8
BLACK
6
CONTINUOUS
10
250.188
20
-35.2811
11
250.189
21
-35.281
0
LINE
8
BLACK
6
CONTINUOUS
10
250.189
20
-35.281
11
267.462
21
-34.138
0
LINE
8
BLACK
6
CONTINUOUS
10
267.462
20
-34.138
11
267.465
21
-34.1381
0
LINE
8
BLACK
6
CONTINUOUS
10
267.465
20
-34.1381
11
267.466
21
-34.1383
0
LINE
8
BLACK
6
CONTINUOUS
10
267.466
20
-34.1383
11
268.18
21
-34.2083
0
LINE
8
BLACK
6
CONTINUOUS
10
268.18
20
-34.2083
11
268.18
21
-34.2083
0
LINE
8
BLACK
6
CONTINUOUS
10
268.18
20
-34.2083
11
268.182
21
-34.2088
0
LINE
8
BLACK
6
CONTINUOUS
10
268.182
20
-34.2088
11
268.185
21
-34.2092
0
LINE
8
BLACK
6
CONTINUOUS
10
268.185
20
-34.2092
11
268.873
21
-34.417
0
LINE
8
BLACK
6
CONTINUOUS
10
268.873
20
-34.417
11
268.873
21
-34.4171
0
LINE
8
BLACK
6
CONTINUOUS
10
268.873
20
-34.4171
11
268.875
21
-34.418
0
LINE
8
BLACK
6
CONTINUOUS
10
268.875
20
-34.418
11
268.877
21
-34.4188
0
LINE
8
BLACK
6
CONTINUOUS
10
268.877
20
-34.4188
11
269.512
21
-34.7563
0
LINE
8
BLACK
6
CONTINUOUS
10
269.512
20
-34.7563
11
269.512
21
-34.7564
0
LINE
8
BLACK
6
CONTINUOUS
10
269.512
20
-34.7564
11
269.514
21
-34.7577
0
LINE
8
BLACK
6
CONTINUOUS
10
269.514
20
-34.7577
11
269.516
21
-34.759
0
LINE
8
BLACK
6
CONTINUOUS
10
269.516
20
-34.759
11
270.073
21
-35.2133
0
LINE
8
BLACK
6
CONTINUOUS
10
270.073
20
-35.2133
11
270.073
21
-35.2135
0
LINE
8
BLACK
6
CONTINUOUS
10
270.073
20
-35.2135
11
270.075
21
-35.2151
0
LINE
8
BLACK
6
CONTINUOUS
10
270.075
20
-35.2151
11
270.076
21
-35.2167
0
LINE
8
BLACK
6
CONTINUOUS
10
270.076
20
-35.2167
11
270.535
21
-35.7706
0
LINE
8
BLACK
6
CONTINUOUS
10
270.535
20
-35.7706
11
270.535
21
-35.7706
0
LINE
8
BLACK
6
CONTINUOUS
10
270.535
20
-35.7706
11
270.535
21
-35.7706
0
LINE
8
BLACK
6
CONTINUOUS
10
270.535
20
-35.7706
11
270.535
21
-35.7708
0
LINE
8
BLACK
6
CONTINUOUS
10
270.535
20
-35.7708
11
270.536
21
-35.7727
0
LINE
8
BLACK
6
CONTINUOUS
10
270.536
20
-35.7727
11
270.537
21
-35.7746
0
LINE
8
BLACK
6
CONTINUOUS
10
270.537
20
-35.7746
11
270.879
21
-36.4069
0
LINE
8
BLACK
6
CONTINUOUS
10
270.879
20
-36.4069
11
270.879
21
-36.4072
0
LINE
8
BLACK
6
CONTINUOUS
10
270.879
20
-36.4072
11
270.88
21
-36.4093
0
LINE
8
BLACK
6
CONTINUOUS
10
270.88
20
-36.4093
11
270.881
21
-36.4114
0
LINE
8
BLACK
6
CONTINUOUS
10
270.881
20
-36.4114
11
271.094
21
-37.098
0
LINE
8
BLACK
6
CONTINUOUS
10
271.094
20
-37.098
11
271.094
21
-37.0984
0
LINE
8
BLACK
6
CONTINUOUS
10
271.094
20
-37.0984
11
271.094
21
-37.1
0
LINE
8
BLACK
6
CONTINUOUS
10
271.094
20
-37.1
11
271.094
21
-37.1017
0
LINE
8
BLACK
6
CONTINUOUS
10
271.094
20
-37.1017
11
271.151
21
-37.4756
0
LINE
8
BLACK
6
CONTINUOUS
10
271.151
20
-37.4756
11
271.152
21
-37.4765
0
LINE
8
BLACK
6
CONTINUOUS
10
271.152
20
-37.4765
11
274.726
21
-87.5024
0
LINE
8
BLACK
6
CONTINUOUS
10
274.726
20
-87.5024
11
274.726
21
-87.5061
0
LINE
8
BLACK
6
CONTINUOUS
10
274.726
20
-87.5061
11
274.726
21
-87.507
0
LINE
8
BLACK
6
CONTINUOUS
10
274.726
20
-87.507
11
274.656
21
-88.2208
0
LINE
8
BLACK
6
CONTINUOUS
10
274.656
20
-88.2208
11
274.656
21
-88.2212
0
LINE
8
BLACK
6
CONTINUOUS
10
274.656
20
-88.2212
11
274.655
21
-88.2234
0
LINE
8
BLACK
6
CONTINUOUS
10
274.655
20
-88.2234
11
274.655
21
-88.2256
0
LINE
8
BLACK
6
CONTINUOUS
10
274.655
20
-88.2256
11
274.447
21
-88.9137
0
LINE
8
BLACK
6
CONTINUOUS
10
274.447
20
-88.9137
11
274.447
21
-88.914
0
LINE
8
BLACK
6
CONTINUOUS
10
274.447
20
-88.914
11
274.446
21
-88.9161
0
LINE
8
BLACK
6
CONTINUOUS
10
274.446
20
-88.9161
11
274.445
21
-88.9182
0
LINE
8
BLACK
6
CONTINUOUS
10
274.445
20
-88.9182
11
274.108
21
-89.5529
0
LINE
8
BLACK
6
CONTINUOUS
10
274.108
20
-89.5529
11
274.108
21
-89.5532
0
LINE
8
BLACK
6
CONTINUOUS
10
274.108
20
-89.5532
11
274.106
21
-89.555
0
LINE
8
BLACK
6
CONTINUOUS
10
274.106
20
-89.555
11
274.105
21
-89.5569
0
LINE
8
BLACK
6
CONTINUOUS
10
274.105
20
-89.5569
11
273.651
21
-90.114
0
LINE
8
BLACK
6
CONTINUOUS
10
273.651
20
-90.114
11
273.65
21
-90.1142
0
LINE
8
BLACK
6
CONTINUOUS
10
273.65
20
-90.1142
11
273.649
21
-90.1158
0
LINE
8
BLACK
6
CONTINUOUS
10
273.649
20
-90.1158
11
273.647
21
-90.1174
0
LINE
8
BLACK
6
CONTINUOUS
10
273.647
20
-90.1174
11
273.093
21
-90.5756
0
LINE
8
BLACK
6
CONTINUOUS
10
273.093
20
-90.5756
11
273.093
21
-90.5758
0
LINE
8
BLACK
6
CONTINUOUS
10
273.093
20
-90.5758
11
273.091
21
-90.5771
0
LINE
8
BLACK
6
CONTINUOUS
10
273.091
20
-90.5771
11
273.089
21
-90.5783
0
LINE
8
BLACK
6
CONTINUOUS
10
273.089
20
-90.5783
11
272.457
21
-90.9202
0
LINE
8
BLACK
6
CONTINUOUS
10
272.457
20
-90.9202
11
272.457
21
-90.9204
0
LINE
8
BLACK
6
CONTINUOUS
10
272.457
20
-90.9204
11
272.455
21
-90.9212
0
LINE
8
BLACK
6
CONTINUOUS
10
272.455
20
-90.9212
11
272.453
21
-90.9221
0
LINE
8
BLACK
6
CONTINUOUS
10
272.453
20
-90.9221
11
271.766
21
-91.1347
0
LINE
8
BLACK
6
CONTINUOUS
10
271.766
20
-91.1347
11
271.766
21
-91.1348
0
LINE
8
BLACK
6
CONTINUOUS
10
271.766
20
-91.1348
11
271.764
21
-91.1351
0
LINE
8
BLACK
6
CONTINUOUS
10
271.764
20
-91.1351
11
271.762
21
-91.1355
0
LINE
8
BLACK
6
CONTINUOUS
10
271.762
20
-91.1355
11
271.388
21
-91.1924
0
LINE
8
BLACK
6
CONTINUOUS
10
271.388
20
-91.1924
11
271.387
21
-91.1926
0
LINE
8
BLACK
6
CONTINUOUS
10
271.387
20
-91.1926
11
255.908
21
-92.2269
0
LINE
8
BLACK
6
CONTINUOUS
10
255.908
20
-92.2269
11
239.957
21
-94.5333
0
LINE
8
BLACK
6
CONTINUOUS
10
239.957
20
-94.5333
11
239.753
21
-94.5669
0
LINE
8
BLACK
6
CONTINUOUS
10
239.753
20
-94.5669
11
239.26
21
-94.7195
0
LINE
8
BLACK
6
CONTINUOUS
10
239.26
20
-94.7195
11
238.807
21
-94.9648
0
LINE
8
BLACK
6
CONTINUOUS
10
238.807
20
-94.9648
11
238.409
21
-95.2934
0
LINE
8
BLACK
6
CONTINUOUS
10
238.409
20
-95.2934
11
238.084
21
-95.693
0
LINE
8
BLACK
6
CONTINUOUS
10
238.084
20
-95.693
11
237.841
21
-96.1483
0
LINE
8
BLACK
6
CONTINUOUS
10
237.841
20
-96.1483
11
237.692
21
-96.6419
0
LINE
8
BLACK
6
CONTINUOUS
10
237.692
20
-96.6419
11
237.642
21
-97.1546
0
LINE
8
BLACK
6
CONTINUOUS
10
237.642
20
-97.1546
11
239.547
21
-111.504
0
LINE
8
BLACK
6
CONTINUOUS
10
239.547
20
-111.504
11
239.547
21
-111.508
0
LINE
8
BLACK
6
CONTINUOUS
10
239.547
20
-111.508
11
239.547
21
-111.509
0
LINE
8
BLACK
6
CONTINUOUS
10
239.547
20
-111.509
11
239.496
21
-112.026
0
LINE
8
BLACK
6
CONTINUOUS
10
239.496
20
-112.026
11
239.496
21
-112.027
0
LINE
8
BLACK
6
CONTINUOUS
10
239.496
20
-112.027
11
239.496
21
-112.029
0
LINE
8
BLACK
6
CONTINUOUS
10
239.496
20
-112.029
11
239.495
21
-112.031
0
LINE
8
BLACK
6
CONTINUOUS
10
239.495
20
-112.031
11
239.345
21
-112.53
0
LINE
8
BLACK
6
CONTINUOUS
10
239.345
20
-112.53
11
239.345
21
-112.53
0
LINE
8
BLACK
6
CONTINUOUS
10
239.345
20
-112.53
11
239.344
21
-112.532
0
LINE
8
BLACK
6
CONTINUOUS
10
239.344
20
-112.532
11
239.343
21
-112.534
0
LINE
8
BLACK
6
CONTINUOUS
10
239.343
20
-112.534
11
239.098
21
-112.994
0
LINE
8
BLACK
6
CONTINUOUS
10
239.098
20
-112.994
11
239.098
21
-112.994
0
LINE
8
BLACK
6
CONTINUOUS
10
239.098
20
-112.994
11
239.097
21
-112.996
0
LINE
8
BLACK
6
CONTINUOUS
10
239.097
20
-112.996
11
239.096
21
-112.998
0
LINE
8
BLACK
6
CONTINUOUS
10
239.096
20
-112.998
11
238.767
21
-113.401
0
LINE
8
BLACK
6
CONTINUOUS
10
238.767
20
-113.401
11
238.767
21
-113.401
0
LINE
8
BLACK
6
CONTINUOUS
10
238.767
20
-113.401
11
238.765
21
-113.403
0
LINE
8
BLACK
6
CONTINUOUS
10
238.765
20
-113.403
11
238.763
21
-113.405
0
LINE
8
BLACK
6
CONTINUOUS
10
238.763
20
-113.405
11
238.362
21
-113.736
0
LINE
8
BLACK
6
CONTINUOUS
10
238.362
20
-113.736
11
238.362
21
-113.737
0
LINE
8
BLACK
6
CONTINUOUS
10
238.362
20
-113.737
11
238.36
21
-113.738
0
LINE
8
BLACK
6
CONTINUOUS
10
238.36
20
-113.738
11
238.358
21
-113.739
0
LINE
8
BLACK
6
CONTINUOUS
10
238.358
20
-113.739
11
237.9
21
-113.987
0
LINE
8
BLACK
6
CONTINUOUS
10
237.9
20
-113.987
11
237.9
21
-113.987
0
LINE
8
BLACK
6
CONTINUOUS
10
237.9
20
-113.987
11
237.898
21
-113.988
0
LINE
8
BLACK
6
CONTINUOUS
10
237.898
20
-113.988
11
237.896
21
-113.988
0
LINE
8
BLACK
6
CONTINUOUS
10
237.896
20
-113.988
11
237.399
21
-114.142
0
LINE
8
BLACK
6
CONTINUOUS
10
237.399
20
-114.142
11
237.398
21
-114.143
0
LINE
8
BLACK
6
CONTINUOUS
10
237.398
20
-114.143
11
237.397
21
-114.143
0
LINE
8
BLACK
6
CONTINUOUS
10
237.397
20
-114.143
11
237.395
21
-114.143
0
LINE
8
BLACK
6
CONTINUOUS
10
237.395
20
-114.143
11
237.191
21
-114.177
0
LINE
8
BLACK
6
CONTINUOUS
10
237.191
20
-114.177
11
237.19
21
-114.177
0
LINE
8
BLACK
6
CONTINUOUS
10
237.19
20
-114.177
11
185.422
21
-121.31
0
LINE
8
BLACK
6
CONTINUOUS
10
185.422
20
-121.31
11
185.419
21
-121.31
0
LINE
8
BLACK
6
CONTINUOUS
10
185.419
20
-121.31
11
185.417
21
-121.31
0
LINE
8
BLACK
6
CONTINUOUS
10
185.417
20
-121.31
11
184.9
21
-121.259
0
LINE
8
BLACK
6
CONTINUOUS
10
184.9
20
-121.259
11
184.899
21
-121.259
0
LINE
8
BLACK
6
CONTINUOUS
10
184.899
20
-121.259
11
184.897
21
-121.259
0
LINE
8
BLACK
6
CONTINUOUS
10
184.897
20
-121.259
11
184.895
21
-121.258
0
LINE
8
BLACK
6
CONTINUOUS
10
184.895
20
-121.258
11
184.396
21
-121.108
0
LINE
8
BLACK
6
CONTINUOUS
10
184.396
20
-121.108
11
184.396
21
-121.108
0
LINE
8
BLACK
6
CONTINUOUS
10
184.396
20
-121.108
11
184.394
21
-121.107
0
LINE
8
BLACK
6
CONTINUOUS
10
184.394
20
-121.107
11
184.392
21
-121.106
0
LINE
8
BLACK
6
CONTINUOUS
10
184.392
20
-121.106
11
183.932
21
-120.861
0
LINE
8
BLACK
6
CONTINUOUS
10
183.932
20
-120.861
11
183.932
21
-120.861
0
LINE
8
BLACK
6
CONTINUOUS
10
183.932
20
-120.861
11
183.93
21
-120.86
0
LINE
8
BLACK
6
CONTINUOUS
10
183.93
20
-120.86
11
183.928
21
-120.859
0
LINE
8
BLACK
6
CONTINUOUS
10
183.928
20
-120.859
11
183.525
21
-120.53
0
LINE
8
BLACK
6
CONTINUOUS
10
183.525
20
-120.53
11
183.525
21
-120.53
0
LINE
8
BLACK
6
CONTINUOUS
10
183.525
20
-120.53
11
183.523
21
-120.528
0
LINE
8
BLACK
6
CONTINUOUS
10
183.523
20
-120.528
11
183.521
21
-120.526
0
LINE
8
BLACK
6
CONTINUOUS
10
183.521
20
-120.526
11
183.19
21
-120.125
0
LINE
8
BLACK
6
CONTINUOUS
10
183.19
20
-120.125
11
183.189
21
-120.125
0
LINE
8
BLACK
6
CONTINUOUS
10
183.189
20
-120.125
11
183.188
21
-120.123
0
LINE
8
BLACK
6
CONTINUOUS
10
183.188
20
-120.123
11
183.187
21
-120.121
0
LINE
8
BLACK
6
CONTINUOUS
10
183.187
20
-120.121
11
182.939
21
-119.663
0
LINE
8
BLACK
6
CONTINUOUS
10
182.939
20
-119.663
11
182.939
21
-119.663
0
LINE
8
BLACK
6
CONTINUOUS
10
182.939
20
-119.663
11
182.938
21
-119.661
0
LINE
8
BLACK
6
CONTINUOUS
10
182.938
20
-119.661
11
182.938
21
-119.659
0
LINE
8
BLACK
6
CONTINUOUS
10
182.938
20
-119.659
11
182.784
21
-119.162
0
LINE
8
BLACK
6
CONTINUOUS
10
182.784
20
-119.162
11
182.783
21
-119.161
0
LINE
8
BLACK
6
CONTINUOUS
10
182.783
20
-119.161
11
182.783
21
-119.16
0
LINE
8
BLACK
6
CONTINUOUS
10
182.783
20
-119.16
11
182.783
21
-119.158
0
LINE
8
BLACK
6
CONTINUOUS
10
182.783
20
-119.158
11
182.749
21
-118.954
0
LINE
8
BLACK
6
CONTINUOUS
10
182.749
20
-118.954
11
182.749
21
-118.953
0
LINE
8
BLACK
6
CONTINUOUS
10
182.749
20
-118.953
11
178.311
21
-87.1214
0
LINE
8
BLACK
6
CONTINUOUS
10
178.311
20
-87.1214
11
178.094
21
-86.446
0
LINE
8
BLACK
6
CONTINUOUS
10
178.094
20
-86.446
11
177.719
21
-85.7525
0
LINE
8
BLACK
6
CONTINUOUS
10
177.719
20
-85.7525
11
177.217
21
-85.1451
0
LINE
8
BLACK
6
CONTINUOUS
10
177.217
20
-85.1451
11
176.606
21
-84.6469
0
LINE
8
BLACK
6
CONTINUOUS
10
176.606
20
-84.6469
11
175.91
21
-84.2769
0
LINE
8
BLACK
6
CONTINUOUS
10
175.91
20
-84.2769
11
175.155
21
-84.049
0
LINE
8
BLACK
6
CONTINUOUS
10
175.155
20
-84.049
11
174.37
21
-83.972
0
LINE
8
BLACK
6
CONTINUOUS
10
174.37
20
-83.972
11
121.032
21
-83.972
0
LINE
8
BLACK
6
CONTINUOUS
10
121.032
20
-83.972
11
120.325
21
-84.0344
0
LINE
8
BLACK
6
CONTINUOUS
10
120.325
20
-84.0344
11
119.565
21
-84.2474
0
LINE
8
BLACK
6
CONTINUOUS
10
119.565
20
-84.2474
11
118.862
21
-84.6037
0
LINE
8
BLACK
6
CONTINUOUS
10
118.862
20
-84.6037
11
118.242
21
-85.0898
0
LINE
8
BLACK
6
CONTINUOUS
10
118.242
20
-85.0898
11
117.728
21
-85.6872
0
LINE
8
BLACK
6
CONTINUOUS
10
117.728
20
-85.6872
11
117.339
21
-86.3731
0
LINE
8
BLACK
6
CONTINUOUS
10
117.339
20
-86.3731
11
117.091
21
-87.1216
0
LINE
8
BLACK
6
CONTINUOUS
10
117.091
20
-87.1216
11
112.526
21
-118.954
0
LINE
8
BLACK
6
CONTINUOUS
10
112.526
20
-118.954
11
112.526
21
-118.954
0
LINE
8
BLACK
6
CONTINUOUS
10
112.526
20
-118.954
11
112.411
21
-119.462
0
LINE
8
BLACK
6
CONTINUOUS
10
112.411
20
-119.462
11
112.411
21
-119.462
0
LINE
8
BLACK
6
CONTINUOUS
10
112.411
20
-119.462
11
112.41
21
-119.465
0
LINE
8
BLACK
6
CONTINUOUS
10
112.41
20
-119.465
11
112.41
21
-119.467
0
LINE
8
BLACK
6
CONTINUOUS
10
112.41
20
-119.467
11
112.199
21
-119.942
0
LINE
8
BLACK
6
CONTINUOUS
10
112.199
20
-119.942
11
112.198
21
-119.943
0
LINE
8
BLACK
6
CONTINUOUS
10
112.198
20
-119.943
11
112.197
21
-119.945
0
LINE
8
BLACK
6
CONTINUOUS
10
112.197
20
-119.945
11
112.196
21
-119.947
0
LINE
8
BLACK
6
CONTINUOUS
10
112.196
20
-119.947
11
111.897
21
-120.372
0
LINE
8
BLACK
6
CONTINUOUS
10
111.897
20
-120.372
11
111.897
21
-120.372
0
LINE
8
BLACK
6
CONTINUOUS
10
111.897
20
-120.372
11
111.897
21
-120.372
0
LINE
8
BLACK
6
CONTINUOUS
10
111.897
20
-120.372
11
111.896
21
-120.373
0
LINE
8
BLACK
6
CONTINUOUS
10
111.896
20
-120.373
11
111.895
21
-120.374
0
LINE
8
BLACK
6
CONTINUOUS
10
111.895
20
-120.374
11
111.893
21
-120.376
0
LINE
8
BLACK
6
CONTINUOUS
10
111.893
20
-120.376
11
111.517
21
-120.736
0
LINE
8
BLACK
6
CONTINUOUS
10
111.517
20
-120.736
11
111.517
21
-120.736
0
LINE
8
BLACK
6
CONTINUOUS
10
111.517
20
-120.736
11
111.515
21
-120.737
0
LINE
8
BLACK
6
CONTINUOUS
10
111.515
20
-120.737
11
111.513
21
-120.739
0
LINE
8
BLACK
6
CONTINUOUS
10
111.513
20
-120.739
11
111.074
21
-121.018
0
LINE
8
BLACK
6
CONTINUOUS
10
111.074
20
-121.018
11
111.074
21
-121.018
0
LINE
8
BLACK
6
CONTINUOUS
10
111.074
20
-121.018
11
111.074
21
-121.018
0
LINE
8
BLACK
6
CONTINUOUS
10
111.074
20
-121.018
11
111.074
21
-121.018
0
LINE
8
BLACK
6
CONTINUOUS
10
111.074
20
-121.018
11
111.072
21
-121.019
0
LINE
8
BLACK
6
CONTINUOUS
10
111.072
20
-121.019
11
111.07
21
-121.02
0
LINE
8
BLACK
6
CONTINUOUS
10
111.07
20
-121.02
11
110.585
21
-121.209
0
LINE
8
BLACK
6
CONTINUOUS
10
110.585
20
-121.209
11
110.584
21
-121.209
0
LINE
8
BLACK
6
CONTINUOUS
10
110.584
20
-121.209
11
110.582
21
-121.21
0
LINE
8
BLACK
6
CONTINUOUS
10
110.582
20
-121.21
11
110.58
21
-121.21
0
LINE
8
BLACK
6
CONTINUOUS
10
110.58
20
-121.21
11
110.067
21
-121.301
0
LINE
8
BLACK
6
CONTINUOUS
10
110.067
20
-121.301
11
110.067
21
-121.302
0
LINE
8
BLACK
6
CONTINUOUS
10
110.067
20
-121.302
11
110.066
21
-121.302
0
LINE
8
BLACK
6
CONTINUOUS
10
110.066
20
-121.302
11
110.064
21
-121.302
0
LINE
8
BLACK
6
CONTINUOUS
10
110.064
20
-121.302
11
109.857
21
-121.31
0
LINE
8
BLACK
6
CONTINUOUS
10
109.857
20
-121.31
11
109.856
21
-121.31
0
LINE
8
BLACK
6
CONTINUOUS
10
109.856
20
-121.31
11
109.853
21
-121.31
0
LINE
8
BLACK
6
CONTINUOUS
10
109.853
20
-121.31
11
58.3385
21
-114.05
0
LINE
8
BLACK
6
CONTINUOUS
10
58.3385
20
-114.05
11
58.3376
21
-114.05
0
LINE
8
BLACK
6
CONTINUOUS
10
58.3376
20
-114.05
11
57.83
21
-113.935
0
LINE
8
BLACK
6
CONTINUOUS
10
57.83
20
-113.935
11
57.8296
21
-113.935
0
LINE
8
BLACK
6
CONTINUOUS
10
57.8296
20
-113.935
11
57.8275
21
-113.934
0
LINE
8
BLACK
6
CONTINUOUS
10
57.8275
20
-113.934
11
57.8253
21
-113.934
0
LINE
8
BLACK
6
CONTINUOUS
10
57.8253
20
-113.934
11
57.3496
21
-113.723
0
LINE
8
BLACK
6
CONTINUOUS
10
57.3496
20
-113.723
11
57.3492
21
-113.722
0
LINE
8
BLACK
6
CONTINUOUS
10
57.3492
20
-113.722
11
57.3473
21
-113.721
0
LINE
8
BLACK
6
CONTINUOUS
10
57.3473
20
-113.721
11
57.3453
21
-113.72
0
LINE
8
BLACK
6
CONTINUOUS
10
57.3453
20
-113.72
11
56.9196
21
-113.421
0
LINE
8
BLACK
6
CONTINUOUS
10
56.9196
20
-113.421
11
56.9196
21
-113.421
0
LINE
8
BLACK
6
CONTINUOUS
10
56.9196
20
-113.421
11
56.9196
21
-113.421
0
LINE
8
BLACK
6
CONTINUOUS
10
56.9196
20
-113.421
11
56.9193
21
-113.42
0
LINE
8
BLACK
6
CONTINUOUS
10
56.9193
20
-113.42
11
56.9176
21
-113.419
0
LINE
8
BLACK
6
CONTINUOUS
10
56.9176
20
-113.419
11
56.9159
21
-113.417
0
LINE
8
BLACK
6
CONTINUOUS
10
56.9159
20
-113.417
11
56.5564
21
-113.041
0
LINE
8
BLACK
6
CONTINUOUS
10
56.5564
20
-113.041
11
56.5562
21
-113.041
0
LINE
8
BLACK
6
CONTINUOUS
10
56.5562
20
-113.041
11
56.5548
21
-113.039
0
LINE
8
BLACK
6
CONTINUOUS
10
56.5548
20
-113.039
11
56.5534
21
-113.037
0
LINE
8
BLACK
6
CONTINUOUS
10
56.5534
20
-113.037
11
56.274
21
-112.598
0
LINE
8
BLACK
6
CONTINUOUS
10
56.274
20
-112.598
11
56.274
21
-112.598
0
LINE
8
BLACK
6
CONTINUOUS
10
56.274
20
-112.598
11
56.274
21
-112.598
0
LINE
8
BLACK
6
CONTINUOUS
10
56.274
20
-112.598
11
56.2738
21
-112.598
0
LINE
8
BLACK
6
CONTINUOUS
10
56.2738
20
-112.598
11
56.2728
21
-112.596
0
LINE
8
BLACK
6
CONTINUOUS
10
56.2728
20
-112.596
11
56.2718
21
-112.594
0
LINE
8
BLACK
6
CONTINUOUS
10
56.2718
20
-112.594
11
56.0829
21
-112.109
0
LINE
8
BLACK
6
CONTINUOUS
10
56.0829
20
-112.109
11
56.0828
21
-112.108
0
LINE
8
BLACK
6
CONTINUOUS
10
56.0828
20
-112.108
11
56.0822
21
-112.106
0
LINE
8
BLACK
6
CONTINUOUS
10
56.0822
20
-112.106
11
56.0816
21
-112.104
0
LINE
8
BLACK
6
CONTINUOUS
10
56.0816
20
-112.104
11
55.9905
21
-111.591
0
LINE
8
BLACK
6
CONTINUOUS
10
55.9905
20
-111.591
11
55.9905
21
-111.591
0
LINE
8
BLACK
6
CONTINUOUS
10
55.9905
20
-111.591
11
55.9904
21
-111.59
0
LINE
8
BLACK
6
CONTINUOUS
10
55.9904
20
-111.59
11
55.9901
21
-111.588
0
LINE
8
BLACK
6
CONTINUOUS
10
55.9901
20
-111.588
11
55.9821
21
-111.381
0
LINE
8
BLACK
6
CONTINUOUS
10
55.9821
20
-111.381
11
55.9819
21
-111.381
0
LINE
8
BLACK
6
CONTINUOUS
10
55.9819
20
-111.381
11
55.9821
21
-111.377
0
LINE
8
BLACK
6
CONTINUOUS
10
55.9821
20
-111.377
11
57.8869
21
-97.1538
0
LINE
8
BLACK
6
CONTINUOUS
10
57.8869
20
-97.1538
11
57.879
21
-96.9496
0
LINE
8
BLACK
6
CONTINUOUS
10
57.879
20
-96.9496
11
57.7886
21
-96.4412
0
LINE
8
BLACK
6
CONTINUOUS
10
57.7886
20
-96.4412
11
57.6015
21
-95.9608
0
LINE
8
BLACK
6
CONTINUOUS
10
57.6015
20
-95.9608
11
57.3247
21
-95.5258
0
LINE
8
BLACK
6
CONTINUOUS
10
57.3247
20
-95.5258
11
56.9686
21
-95.1529
0
LINE
8
BLACK
6
CONTINUOUS
10
56.9686
20
-95.1529
11
56.5469
21
-94.8562
0
LINE
8
BLACK
6
CONTINUOUS
10
56.5469
20
-94.8562
11
56.0756
21
-94.6471
0
LINE
8
BLACK
6
CONTINUOUS
10
56.0756
20
-94.6471
11
55.5712
21
-94.5332
0
LINE
8
BLACK
6
CONTINUOUS
10
55.5712
20
-94.5332
11
39.6214
21
-92.2269
0
LINE
8
BLACK
6
CONTINUOUS
10
39.6214
20
-92.2269
11
23.8877
21
-91.1926
0
LINE
8
BLACK
6
CONTINUOUS
10
23.8877
20
-91.1926
11
23.884
21
-91.192
0
LINE
8
BLACK
6
CONTINUOUS
10
23.884
20
-91.192
11
23.8836
21
-91.1918
0
LINE
8
BLACK
6
CONTINUOUS
10
23.8836
20
-91.1918
11
23.1808
21
-91.0513
0
LINE
8
BLACK
6
CONTINUOUS
10
23.1808
20
-91.0513
11
23.1808
21
-91.0513
0
LINE
8
BLACK
6
CONTINUOUS
10
23.1808
20
-91.0513
11
23.1808
21
-91.0513
0
LINE
8
BLACK
6
CONTINUOUS
10
23.1808
20
-91.0513
11
23.1804
21
-91.0512
0
LINE
8
BLACK
6
CONTINUOUS
10
23.1804
20
-91.0512
11
23.1783
21
-91.0505
0
LINE
8
BLACK
6
CONTINUOUS
10
23.1783
20
-91.0505
11
23.1761
21
-91.0498
0
LINE
8
BLACK
6
CONTINUOUS
10
23.1761
20
-91.0498
11
22.5121
21
-90.7746
0
LINE
8
BLACK
6
CONTINUOUS
10
22.5121
20
-90.7746
11
22.5118
21
-90.7745
0
LINE
8
BLACK
6
CONTINUOUS
10
22.5118
20
-90.7745
11
22.5097
21
-90.7734
0
LINE
8
BLACK
6
CONTINUOUS
10
22.5097
20
-90.7734
11
22.5078
21
-90.7723
0
LINE
8
BLACK
6
CONTINUOUS
10
22.5078
20
-90.7723
11
21.9099
21
-90.3734
0
LINE
8
BLACK
6
CONTINUOUS
10
21.9099
20
-90.3734
11
21.9096
21
-90.3732
0
LINE
8
BLACK
6
CONTINUOUS
10
21.9096
20
-90.3732
11
21.9078
21
-90.3717
0
LINE
8
BLACK
6
CONTINUOUS
10
21.9078
20
-90.3717
11
21.9061
21
-90.3703
0
LINE
8
BLACK
6
CONTINUOUS
10
21.9061
20
-90.3703
11
21.397
21
-89.8629
0
LINE
8
BLACK
6
CONTINUOUS
10
21.397
20
-89.8629
11
21.397
21
-89.8629
0
LINE
8
BLACK
6
CONTINUOUS
10
21.397
20
-89.8629
11
21.397
21
-89.8629
0
LINE
8
BLACK
6
CONTINUOUS
10
21.397
20
-89.8629
11
21.3968
21
-89.8626
0
LINE
8
BLACK
6
CONTINUOUS
10
21.3968
20
-89.8626
11
21.3954
21
-89.8608
0
LINE
8
BLACK
6
CONTINUOUS
10
21.3954
20
-89.8608
11
21.3939
21
-89.8591
0
LINE
8
BLACK
6
CONTINUOUS
10
21.3939
20
-89.8591
11
20.9931
21
-89.2624
0
LINE
8
BLACK
6
CONTINUOUS
10
20.9931
20
-89.2624
11
20.9929
21
-89.2621
0
LINE
8
BLACK
6
CONTINUOUS
10
20.9929
20
-89.2621
11
20.9919
21
-89.2601
0
LINE
8
BLACK
6
CONTINUOUS
10
20.9919
20
-89.2601
11
20.9908
21
-89.2581
0
LINE
8
BLACK
6
CONTINUOUS
10
20.9908
20
-89.2581
11
20.7135
21
-88.5949
0
LINE
8
BLACK
6
CONTINUOUS
10
20.7135
20
-88.5949
11
20.7134
21
-88.5946
0
LINE
8
BLACK
6
CONTINUOUS
10
20.7134
20
-88.5946
11
20.7128
21
-88.5924
0
LINE
8
BLACK
6
CONTINUOUS
10
20.7128
20
-88.5924
11
20.7121
21
-88.5903
0
LINE
8
BLACK
6
CONTINUOUS
10
20.7121
20
-88.5903
11
20.5689
21
-87.8859
0
LINE
8
BLACK
6
CONTINUOUS
10
20.5689
20
-87.8859
11
20.5689
21
-87.8855
0
LINE
8
BLACK
6
CONTINUOUS
10
20.5689
20
-87.8855
11
20.5687
21
-87.8839
0
LINE
8
BLACK
6
CONTINUOUS
10
20.5687
20
-87.8839
11
20.5685
21
-87.8822
0
LINE
8
BLACK
6
CONTINUOUS
10
20.5685
20
-87.8822
11
20.5491
21
-87.5064
0
LINE
8
BLACK
6
CONTINUOUS
10
20.5491
20
-87.5064
11
20.5491
21
-87.5061
0
LINE
8
BLACK
6
CONTINUOUS
10
20.5491
20
-87.5061
11
20.549
21
-87.5024
0
LINE
8
BLACK
6
CONTINUOUS
10
20.549
20
-87.5024
11
24.1234
21
-37.3495
0
LINE
8
BLACK
6
CONTINUOUS
10
24.1234
20
-37.3495
11
24.1241
21
-37.3459
0
LINE
8
BLACK
6
CONTINUOUS
10
24.1241
20
-37.3459
11
24.1242
21
-37.3456
0
LINE
8
BLACK
6
CONTINUOUS
10
24.1242
20
-37.3456
11
24.2647
21
-36.6428
0
LINE
8
BLACK
6
CONTINUOUS
10
24.2647
20
-36.6428
11
24.2648
21
-36.6424
0
LINE
8
BLACK
6
CONTINUOUS
10
24.2648
20
-36.6424
11
24.2655
21
-36.6403
0
LINE
8
BLACK
6
CONTINUOUS
10
24.2655
20
-36.6403
11
24.2662
21
-36.6381
0
LINE
8
BLACK
6
CONTINUOUS
10
24.2662
20
-36.6381
11
24.5414
21
-35.9741
0
LINE
8
BLACK
6
CONTINUOUS
10
24.5414
20
-35.9741
11
24.5415
21
-35.9738
0
LINE
8
BLACK
6
CONTINUOUS
10
24.5415
20
-35.9738
11
24.5426
21
-35.9717
0
LINE
8
BLACK
6
CONTINUOUS
10
24.5426
20
-35.9717
11
24.5437
21
-35.9698
0
LINE
8
BLACK
6
CONTINUOUS
10
24.5437
20
-35.9698
11
24.9426
21
-35.3719
0
LINE
8
BLACK
6
CONTINUOUS
10
24.9426
20
-35.3719
11
24.9428
21
-35.3716
0
LINE
8
BLACK
6
CONTINUOUS
10
24.9428
20
-35.3716
11
24.9443
21
-35.3698
0
LINE
8
BLACK
6
CONTINUOUS
10
24.9443
20
-35.3698
11
24.9457
21
-35.3681
0
LINE
8
BLACK
6
CONTINUOUS
10
24.9457
20
-35.3681
11
25.4531
21
-34.859
0
LINE
8
BLACK
6
CONTINUOUS
10
25.4531
20
-34.859
11
25.4534
21
-34.8588
0
LINE
8
BLACK
6
CONTINUOUS
10
25.4534
20
-34.8588
11
25.4552
21
-34.8573
0
LINE
8
BLACK
6
CONTINUOUS
10
25.4552
20
-34.8573
11
25.4569
21
-34.8559
0
LINE
8
BLACK
6
CONTINUOUS
10
25.4569
20
-34.8559
11
26.0536
21
-34.4551
0
LINE
8
BLACK
6
CONTINUOUS
10
26.0536
20
-34.4551
11
26.0536
21
-34.4551
0
LINE
8
BLACK
6
CONTINUOUS
10
26.0536
20
-34.4551
11
26.0536
21
-34.4551
0
LINE
8
BLACK
6
CONTINUOUS
10
26.0536
20
-34.4551
11
26.0539
21
-34.4549
0
LINE
8
BLACK
6
CONTINUOUS
10
26.0539
20
-34.4549
11
26.0559
21
-34.4539
0
LINE
8
BLACK
6
CONTINUOUS
10
26.0559
20
-34.4539
11
26.0579
21
-34.4528
0
LINE
8
BLACK
6
CONTINUOUS
10
26.0579
20
-34.4528
11
26.7211
21
-34.1756
0
LINE
8
BLACK
6
CONTINUOUS
10
26.7211
20
-34.1756
11
26.7211
21
-34.1755
0
LINE
8
BLACK
6
CONTINUOUS
10
26.7211
20
-34.1755
11
26.7211
21
-34.1755
0
LINE
8
BLACK
6
CONTINUOUS
10
26.7211
20
-34.1755
11
26.7214
21
-34.1754
0
LINE
8
BLACK
6
CONTINUOUS
10
26.7214
20
-34.1754
11
26.7236
21
-34.1748
0
LINE
8
BLACK
6
CONTINUOUS
10
26.7236
20
-34.1748
11
26.7257
21
-34.1741
0
LINE
8
BLACK
6
CONTINUOUS
10
26.7257
20
-34.1741
11
27.4301
21
-34.0309
0
LINE
8
BLACK
6
CONTINUOUS
10
27.4301
20
-34.0309
11
27.4305
21
-34.0309
0
LINE
8
BLACK
6
CONTINUOUS
10
27.4305
20
-34.0309
11
27.4321
21
-34.0307
0
LINE
8
BLACK
6
CONTINUOUS
10
27.4321
20
-34.0307
11
27.4338
21
-34.0305
0
LINE
8
BLACK
6
CONTINUOUS
10
27.4338
20
-34.0305
11
27.8096
21
-34.0111
0
LINE
8
BLACK
6
CONTINUOUS
10
27.8096
20
-34.0111
11
27.8099
21
-34.0111
0
LINE
8
BLACK
6
CONTINUOUS
10
27.8099
20
-34.0111
11
27.812
21
-34.011
0
LINE
8
BLACK
6
CONTINUOUS
10
27.812
20
-34.011
11
27.8121
21
-34.011
0
LINE
8
BLACK
6
CONTINUOUS
10
27.8121
20
-34.011
11
27.8121
21
-34.011
0
LINE
8
BLACK
6
CONTINUOUS
10
27.8121
20
-34.011
11
27.8136
21
-34.011
0
LINE
8
BLACK
6
CONTINUOUS
10
27.8136
20
-34.011
11
45.4675
21
-35.281
0
LINE
8
BLACK
6
CONTINUOUS
10
27.4382
20
-34.0803
11
26.7381
21
-34.2226
0
LINE
8
BLACK
6
CONTINUOUS
10
26.7381
20
-34.2226
11
26.0794
21
-34.498
0
LINE
8
BLACK
6
CONTINUOUS
10
26.0794
20
-34.498
11
25.4868
21
-34.8961
0
LINE
8
BLACK
6
CONTINUOUS
10
25.4868
20
-34.8961
11
24.9828
21
-35.4016
0
LINE
8
BLACK
6
CONTINUOUS
10
24.9828
20
-35.4016
11
24.5866
21
-35.9955
0
LINE
8
BLACK
6
CONTINUOUS
10
24.5866
20
-35.9955
11
24.3133
21
-36.655
0
LINE
8
BLACK
6
CONTINUOUS
10
24.3133
20
-36.655
11
24.1731
21
-37.3559
0
LINE
8
BLACK
6
CONTINUOUS
10
24.1731
20
-37.3559
11
20.599
21
-87.5032
0
LINE
8
BLACK
6
CONTINUOUS
10
20.599
20
-87.5032
11
20.6183
21
-87.8778
0
LINE
8
BLACK
6
CONTINUOUS
10
20.6183
20
-87.8778
11
20.7606
21
-88.5779
0
LINE
8
BLACK
6
CONTINUOUS
10
20.7606
20
-88.5779
11
21.036
21
-89.2366
0
LINE
8
BLACK
6
CONTINUOUS
10
21.036
20
-89.2366
11
21.4341
21
-89.8292
0
LINE
8
BLACK
6
CONTINUOUS
10
21.4341
20
-89.8292
11
21.9396
21
-90.3332
0
LINE
8
BLACK
6
CONTINUOUS
10
21.9396
20
-90.3332
11
22.5335
21
-90.7294
0
LINE
8
BLACK
6
CONTINUOUS
10
22.5335
20
-90.7294
11
23.193
21
-91.0027
0
LINE
8
BLACK
6
CONTINUOUS
10
23.193
20
-91.0027
11
23.8938
21
-91.1429
0
LINE
8
BLACK
6
CONTINUOUS
10
23.8938
20
-91.1429
11
39.6255
21
-92.177
0
LINE
8
BLACK
6
CONTINUOUS
10
39.6255
20
-92.177
11
39.6264
21
-92.1771
0
LINE
8
BLACK
6
CONTINUOUS
10
39.6264
20
-92.1771
11
39.6266
21
-92.1771
0
LINE
8
BLACK
6
CONTINUOUS
10
39.6266
20
-92.1771
11
39.6269
21
-92.1771
0
LINE
8
BLACK
6
CONTINUOUS
10
39.6269
20
-92.1771
11
39.6279
21
-92.1773
0
LINE
8
BLACK
6
CONTINUOUS
10
39.6279
20
-92.1773
11
55.5806
21
-94.484
0
LINE
8
BLACK
6
CONTINUOUS
10
55.5806
20
-94.484
11
55.5815
21
-94.4843
0
LINE
8
BLACK
6
CONTINUOUS
10
55.5815
20
-94.4843
11
56.089
21
-94.5989
0
LINE
8
BLACK
6
CONTINUOUS
10
56.089
20
-94.5989
11
56.089
21
-94.5989
0
LINE
8
BLACK
6
CONTINUOUS
10
56.089
20
-94.5989
11
56.089
21
-94.5989
0
LINE
8
BLACK
6
CONTINUOUS
10
56.089
20
-94.5989
11
56.0894
21
-94.5989
0
LINE
8
BLACK
6
CONTINUOUS
10
56.0894
20
-94.5989
11
56.0915
21
-94.5997
0
LINE
8
BLACK
6
CONTINUOUS
10
56.0915
20
-94.5997
11
56.0937
21
-94.6004
0
LINE
8
BLACK
6
CONTINUOUS
10
56.0937
20
-94.6004
11
56.5694
21
-94.8115
0
LINE
8
BLACK
6
CONTINUOUS
10
56.5694
20
-94.8115
11
56.5698
21
-94.8116
0
LINE
8
BLACK
6
CONTINUOUS
10
56.5698
20
-94.8116
11
56.5717
21
-94.8128
0
LINE
8
BLACK
6
CONTINUOUS
10
56.5717
20
-94.8128
11
56.5737
21
-94.8139
0
LINE
8
BLACK
6
CONTINUOUS
10
56.5737
20
-94.8139
11
56.9994
21
-95.1134
0
LINE
8
BLACK
6
CONTINUOUS
10
56.9994
20
-95.1134
11
56.9994
21
-95.1134
0
LINE
8
BLACK
6
CONTINUOUS
10
56.9994
20
-95.1134
11
56.9994
21
-95.1134
0
LINE
8
BLACK
6
CONTINUOUS
10
56.9994
20
-95.1134
11
56.9997
21
-95.1136
0
LINE
8
BLACK
6
CONTINUOUS
10
56.9997
20
-95.1136
11
57.0014
21
-95.1151
0
LINE
8
BLACK
6
CONTINUOUS
10
57.0014
20
-95.1151
11
57.0031
21
-95.1166
0
LINE
8
BLACK
6
CONTINUOUS
10
57.0031
20
-95.1166
11
57.3626
21
-95.493
0
LINE
8
BLACK
6
CONTINUOUS
10
57.3626
20
-95.493
11
57.3628
21
-95.4933
0
LINE
8
BLACK
6
CONTINUOUS
10
57.3628
20
-95.4933
11
57.3642
21
-95.4951
0
LINE
8
BLACK
6
CONTINUOUS
10
57.3642
20
-95.4951
11
57.3656
21
-95.4969
0
LINE
8
BLACK
6
CONTINUOUS
10
57.3656
20
-95.4969
11
57.645
21
-95.936
0
LINE
8
BLACK
6
CONTINUOUS
10
57.645
20
-95.936
11
57.6452
21
-95.9363
0
LINE
8
BLACK
6
CONTINUOUS
10
57.6452
20
-95.9363
11
57.6462
21
-95.9383
0
LINE
8
BLACK
6
CONTINUOUS
10
57.6462
20
-95.9383
11
57.6472
21
-95.9403
0
LINE
8
BLACK
6
CONTINUOUS
10
57.6472
20
-95.9403
11
57.8361
21
-96.4254
0
LINE
8
BLACK
6
CONTINUOUS
10
57.8361
20
-96.4254
11
57.8362
21
-96.4257
0
LINE
8
BLACK
6
CONTINUOUS
10
57.8362
20
-96.4257
11
57.8368
21
-96.4279
0
LINE
8
BLACK
6
CONTINUOUS
10
57.8368
20
-96.4279
11
57.8374
21
-96.4301
0
LINE
8
BLACK
6
CONTINUOUS
10
57.8374
20
-96.4301
11
57.9285
21
-96.9425
0
LINE
8
BLACK
6
CONTINUOUS
10
57.9285
20
-96.9425
11
57.9285
21
-96.9429
0
LINE
8
BLACK
6
CONTINUOUS
10
57.9285
20
-96.9429
11
57.9286
21
-96.9444
0
LINE
8
BLACK
6
CONTINUOUS
10
57.9286
20
-96.9444
11
57.9289
21
-96.9459
0
LINE
8
BLACK
6
CONTINUOUS
10
57.9289
20
-96.9459
11
57.9369
21
-97.1525
0
LINE
8
BLACK
6
CONTINUOUS
10
57.9369
20
-97.1525
11
57.9371
21
-97.1534
0
LINE
8
BLACK
6
CONTINUOUS
10
57.9371
20
-97.1534
11
57.9369
21
-97.1571
0
LINE
8
BLACK
6
CONTINUOUS
10
57.9369
20
-97.1571
11
56.0321
21
-111.38
0
LINE
8
BLACK
6
CONTINUOUS
10
56.0321
20
-111.38
11
56.04
21
-111.584
0
LINE
8
BLACK
6
CONTINUOUS
10
56.04
20
-111.584
11
56.1304
21
-112.093
0
LINE
8
BLACK
6
CONTINUOUS
10
56.1304
20
-112.093
11
56.3175
21
-112.573
0
LINE
8
BLACK
6
CONTINUOUS
10
56.3175
20
-112.573
11
56.5943
21
-113.008
0
LINE
8
BLACK
6
CONTINUOUS
10
56.5943
20
-113.008
11
56.9504
21
-113.381
0
LINE
8
BLACK
6
CONTINUOUS
10
56.9504
20
-113.381
11
57.3721
21
-113.678
0
LINE
8
BLACK
6
CONTINUOUS
10
57.3721
20
-113.678
11
57.8434
21
-113.887
0
LINE
8
BLACK
6
CONTINUOUS
10
57.8434
20
-113.887
11
58.3477
21
-114.001
0
LINE
8
BLACK
6
CONTINUOUS
10
58.3477
20
-114.001
11
109.856
21
-121.26
0
LINE
8
BLACK
6
CONTINUOUS
10
109.856
20
-121.26
11
110.06
21
-121.252
0
LINE
8
BLACK
6
CONTINUOUS
10
110.06
20
-121.252
11
110.569
21
-121.162
0
LINE
8
BLACK
6
CONTINUOUS
10
110.569
20
-121.162
11
111.049
21
-120.975
0
LINE
8
BLACK
6
CONTINUOUS
10
111.049
20
-120.975
11
111.484
21
-120.698
0
LINE
8
BLACK
6
CONTINUOUS
10
111.484
20
-120.698
11
111.857
21
-120.342
0
LINE
8
BLACK
6
CONTINUOUS
10
111.857
20
-120.342
11
112.154
21
-119.92
0
LINE
8
BLACK
6
CONTINUOUS
10
112.154
20
-119.92
11
112.363
21
-119.449
0
LINE
8
BLACK
6
CONTINUOUS
10
112.363
20
-119.449
11
112.477
21
-118.944
0
LINE
8
BLACK
6
CONTINUOUS
10
112.477
20
-118.944
11
117.042
21
-87.1111
0
LINE
8
BLACK
6
CONTINUOUS
10
117.042
20
-87.1111
11
117.043
21
-87.1075
0
LINE
8
BLACK
6
CONTINUOUS
10
117.043
20
-87.1075
11
117.044
21
-87.1066
0
LINE
8
BLACK
6
CONTINUOUS
10
117.044
20
-87.1066
11
117.292
21
-86.3551
0
LINE
8
BLACK
6
CONTINUOUS
10
117.292
20
-86.3551
11
117.293
21
-86.3547
0
LINE
8
BLACK
6
CONTINUOUS
10
117.293
20
-86.3547
11
117.294
21
-86.3527
0
LINE
8
BLACK
6
CONTINUOUS
10
117.294
20
-86.3527
11
117.294
21
-86.3506
0
LINE
8
BLACK
6
CONTINUOUS
10
117.294
20
-86.3506
11
117.685
21
-85.6604
0
LINE
8
BLACK
6
CONTINUOUS
10
117.685
20
-85.6604
11
117.685
21
-85.6601
0
LINE
8
BLACK
6
CONTINUOUS
10
117.685
20
-85.6601
11
117.687
21
-85.6583
0
LINE
8
BLACK
6
CONTINUOUS
10
117.687
20
-85.6583
11
117.688
21
-85.6565
0
LINE
8
BLACK
6
CONTINUOUS
10
117.688
20
-85.6565
11
118.206
21
-85.0554
0
LINE
8
BLACK
6
CONTINUOUS
10
118.206
20
-85.0554
11
118.206
21
-85.0554
0
LINE
8
BLACK
6
CONTINUOUS
10
118.206
20
-85.0554
11
118.206
21
-85.0554
0
LINE
8
BLACK
6
CONTINUOUS
10
118.206
20
-85.0554
11
118.206
21
-85.0551
0
LINE
8
BLACK
6
CONTINUOUS
10
118.206
20
-85.0551
11
118.207
21
-85.0536
0
LINE
8
BLACK
6
CONTINUOUS
10
118.207
20
-85.0536
11
118.209
21
-85.052
0
LINE
8
BLACK
6
CONTINUOUS
10
118.209
20
-85.052
11
118.833
21
-84.5628
0
LINE
8
BLACK
6
CONTINUOUS
10
118.833
20
-84.5628
11
118.834
21
-84.5626
0
LINE
8
BLACK
6
CONTINUOUS
10
118.834
20
-84.5626
11
118.836
21
-84.5614
0
LINE
8
BLACK
6
CONTINUOUS
10
118.836
20
-84.5614
11
118.838
21
-84.5602
0
LINE
8
BLACK
6
CONTINUOUS
10
118.838
20
-84.5602
11
119.545
21
-84.2017
0
LINE
8
BLACK
6
CONTINUOUS
10
119.545
20
-84.2017
11
119.545
21
-84.2017
0
LINE
8
BLACK
6
CONTINUOUS
10
119.545
20
-84.2017
11
119.545
21
-84.2017
0
LINE
8
BLACK
6
CONTINUOUS
10
119.545
20
-84.2017
11
119.545
21
-84.2015
0
LINE
8
BLACK
6
CONTINUOUS
10
119.545
20
-84.2015
11
119.548
21
-84.2007
0
LINE
8
BLACK
6
CONTINUOUS
10
119.548
20
-84.2007
11
119.55
21
-84.1999
0
LINE
8
BLACK
6
CONTINUOUS
10
119.55
20
-84.1999
11
120.313
21
-83.9856
0
LINE
8
BLACK
6
CONTINUOUS
10
120.313
20
-83.9856
11
120.314
21
-83.9855
0
LINE
8
BLACK
6
CONTINUOUS
10
120.314
20
-83.9855
11
120.316
21
-83.9852
0
LINE
8
BLACK
6
CONTINUOUS
10
120.316
20
-83.9852
11
120.318
21
-83.9848
0
LINE
8
BLACK
6
CONTINUOUS
10
120.318
20
-83.9848
11
121.029
21
-83.9221
0
LINE
8
BLACK
6
CONTINUOUS
10
121.029
20
-83.9221
11
121.03
21
-83.922
0
LINE
8
BLACK
6
CONTINUOUS
10
121.03
20
-83.922
11
174.372
21
-83.922
0
LINE
8
BLACK
6
CONTINUOUS
10
174.372
20
-83.922
11
174.373
21
-83.9221
0
LINE
8
BLACK
6
CONTINUOUS
10
174.373
20
-83.9221
11
174.373
21
-83.9221
0
LINE
8
BLACK
6
CONTINUOUS
10
174.373
20
-83.9221
11
175.163
21
-83.9995
0
LINE
8
BLACK
6
CONTINUOUS
10
175.163
20
-83.9995
11
175.163
21
-83.9996
0
LINE
8
BLACK
6
CONTINUOUS
10
175.163
20
-83.9996
11
175.165
21
-84
0
LINE
8
BLACK
6
CONTINUOUS
10
175.165
20
-84
11
175.168
21
-84.0005
0
LINE
8
BLACK
6
CONTINUOUS
10
175.168
20
-84.0005
11
175.927
21
-84.2297
0
LINE
8
BLACK
6
CONTINUOUS
10
175.927
20
-84.2297
11
175.927
21
-84.2298
0
LINE
8
BLACK
6
CONTINUOUS
10
175.927
20
-84.2298
11
175.929
21
-84.2307
0
LINE
8
BLACK
6
CONTINUOUS
10
175.929
20
-84.2307
11
175.931
21
-84.2316
0
LINE
8
BLACK
6
CONTINUOUS
10
175.931
20
-84.2316
11
176.632
21
-84.6039
0
LINE
8
BLACK
6
CONTINUOUS
10
176.632
20
-84.6039
11
176.632
21
-84.6039
0
LINE
8
BLACK
6
CONTINUOUS
10
176.632
20
-84.6039
11
176.632
21
-84.6039
0
LINE
8
BLACK
6
CONTINUOUS
10
176.632
20
-84.6039
11
176.632
21
-84.6041
0
LINE
8
BLACK
6
CONTINUOUS
10
176.632
20
-84.6041
11
176.634
21
-84.6054
0
LINE
8
BLACK
6
CONTINUOUS
10
176.634
20
-84.6054
11
176.636
21
-84.6066
0
LINE
8
BLACK
6
CONTINUOUS
10
176.636
20
-84.6066
11
177.25
21
-85.1079
0
LINE
8
BLACK
6
CONTINUOUS
10
177.25
20
-85.1079
11
177.251
21
-85.1082
0
LINE
8
BLACK
6
CONTINUOUS
10
177.251
20
-85.1082
11
177.252
21
-85.1098
0
LINE
8
BLACK
6
CONTINUOUS
10
177.252
20
-85.1098
11
177.254
21
-85.1114
0
LINE
8
BLACK
6
CONTINUOUS
10
177.254
20
-85.1114
11
177.759
21
-85.7225
0
LINE
8
BLACK
6
CONTINUOUS
10
177.759
20
-85.7225
11
177.76
21
-85.7228
0
LINE
8
BLACK
6
CONTINUOUS
10
177.76
20
-85.7228
11
177.761
21
-85.7247
0
LINE
8
BLACK
6
CONTINUOUS
10
177.761
20
-85.7247
11
177.762
21
-85.7265
0
LINE
8
BLACK
6
CONTINUOUS
10
177.762
20
-85.7265
11
178.139
21
-86.4242
0
LINE
8
BLACK
6
CONTINUOUS
10
178.139
20
-86.4242
11
178.14
21
-86.4246
0
LINE
8
BLACK
6
CONTINUOUS
10
178.14
20
-86.4246
11
178.14
21
-86.4265
0
LINE
8
BLACK
6
CONTINUOUS
10
178.14
20
-86.4265
11
178.141
21
-86.4285
0
LINE
8
BLACK
6
CONTINUOUS
10
178.141
20
-86.4285
11
178.359
21
-87.1068
0
LINE
8
BLACK
6
CONTINUOUS
10
178.359
20
-87.1068
11
178.359
21
-87.1076
0
LINE
8
BLACK
6
CONTINUOUS
10
178.359
20
-87.1076
11
178.36
21
-87.1112
0
LINE
8
BLACK
6
CONTINUOUS
10
178.36
20
-87.1112
11
182.798
21
-118.945
0
LINE
8
BLACK
6
CONTINUOUS
10
182.798
20
-118.945
11
182.832
21
-119.149
0
LINE
8
BLACK
6
CONTINUOUS
10
182.832
20
-119.149
11
182.985
21
-119.642
0
LINE
8
BLACK
6
CONTINUOUS
10
182.985
20
-119.642
11
183.23
21
-120.095
0
LINE
8
BLACK
6
CONTINUOUS
10
183.23
20
-120.095
11
183.558
21
-120.493
0
LINE
8
BLACK
6
CONTINUOUS
10
183.558
20
-120.493
11
183.958
21
-120.818
0
LINE
8
BLACK
6
CONTINUOUS
10
183.958
20
-120.818
11
184.413
21
-121.061
0
LINE
8
BLACK
6
CONTINUOUS
10
184.413
20
-121.061
11
184.907
21
-121.21
0
LINE
8
BLACK
6
CONTINUOUS
10
184.907
20
-121.21
11
185.42
21
-121.26
0
LINE
8
BLACK
6
CONTINUOUS
10
185.42
20
-121.26
11
237.182
21
-114.128
0
LINE
8
BLACK
6
CONTINUOUS
10
237.182
20
-114.128
11
237.386
21
-114.094
0
LINE
8
BLACK
6
CONTINUOUS
10
237.386
20
-114.094
11
237.879
21
-113.941
0
LINE
8
BLACK
6
CONTINUOUS
10
237.879
20
-113.941
11
238.332
21
-113.696
0
LINE
8
BLACK
6
CONTINUOUS
10
238.332
20
-113.696
11
238.73
21
-113.368
0
LINE
8
BLACK
6
CONTINUOUS
10
238.73
20
-113.368
11
239.055
21
-112.968
0
LINE
8
BLACK
6
CONTINUOUS
10
239.055
20
-112.968
11
239.298
21
-112.513
0
LINE
8
BLACK
6
CONTINUOUS
10
239.298
20
-112.513
11
239.447
21
-112.019
0
LINE
8
BLACK
6
CONTINUOUS
10
239.447
20
-112.019
11
239.497
21
-111.506
0
LINE
8
BLACK
6
CONTINUOUS
10
239.497
20
-111.506
11
237.592
21
-97.1571
0
LINE
8
BLACK
6
CONTINUOUS
10
237.592
20
-97.1571
11
237.592
21
-97.1534
0
LINE
8
BLACK
6
CONTINUOUS
10
237.592
20
-97.1534
11
237.592
21
-97.1518
0
LINE
8
BLACK
6
CONTINUOUS
10
237.592
20
-97.1518
11
237.643
21
-96.6345
0
LINE
8
BLACK
6
CONTINUOUS
10
237.643
20
-96.6345
11
237.643
21
-96.6342
0
LINE
8
BLACK
6
CONTINUOUS
10
237.643
20
-96.6342
11
237.643
21
-96.6319
0
LINE
8
BLACK
6
CONTINUOUS
10
237.643
20
-96.6319
11
237.644
21
-96.6298
0
LINE
8
BLACK
6
CONTINUOUS
10
237.644
20
-96.6298
11
237.794
21
-96.1315
0
LINE
8
BLACK
6
CONTINUOUS
10
237.794
20
-96.1315
11
237.794
21
-96.1311
0
LINE
8
BLACK
6
CONTINUOUS
10
237.794
20
-96.1311
11
237.795
21
-96.129
0
LINE
8
BLACK
6
CONTINUOUS
10
237.795
20
-96.129
11
237.796
21
-96.1269
0
LINE
8
BLACK
6
CONTINUOUS
10
237.796
20
-96.1269
11
238.041
21
-95.6674
0
LINE
8
BLACK
6
CONTINUOUS
10
238.041
20
-95.6674
11
238.041
21
-95.6674
0
LINE
8
BLACK
6
CONTINUOUS
10
238.041
20
-95.6674
11
238.041
21
-95.6674
0
LINE
8
BLACK
6
CONTINUOUS
10
238.041
20
-95.6674
11
238.041
21
-95.6671
0
LINE
8
BLACK
6
CONTINUOUS
10
238.041
20
-95.6671
11
238.042
21
-95.6652
0
LINE
8
BLACK
6
CONTINUOUS
10
238.042
20
-95.6652
11
238.043
21
-95.6633
0
LINE
8
BLACK
6
CONTINUOUS
10
238.043
20
-95.6633
11
238.372
21
-95.2599
0
LINE
8
BLACK
6
CONTINUOUS
10
238.372
20
-95.2599
11
238.372
21
-95.2597
0
LINE
8
BLACK
6
CONTINUOUS
10
238.372
20
-95.2597
11
238.374
21
-95.2581
0
LINE
8
BLACK
6
CONTINUOUS
10
238.374
20
-95.2581
11
238.376
21
-95.2565
0
LINE
8
BLACK
6
CONTINUOUS
10
238.376
20
-95.2565
11
238.777
21
-94.9247
0
LINE
8
BLACK
6
CONTINUOUS
10
238.777
20
-94.9247
11
238.777
21
-94.9247
0
LINE
8
BLACK
6
CONTINUOUS
10
238.777
20
-94.9247
11
238.777
21
-94.9247
0
LINE
8
BLACK
6
CONTINUOUS
10
238.777
20
-94.9247
11
238.777
21
-94.9245
0
LINE
8
BLACK
6
CONTINUOUS
10
238.777
20
-94.9245
11
238.779
21
-94.9232
0
LINE
8
BLACK
6
CONTINUOUS
10
238.779
20
-94.9232
11
238.781
21
-94.922
0
LINE
8
BLACK
6
CONTINUOUS
10
238.781
20
-94.922
11
239.239
21
-94.6744
0
LINE
8
BLACK
6
CONTINUOUS
10
239.239
20
-94.6744
11
239.239
21
-94.6742
0
LINE
8
BLACK
6
CONTINUOUS
10
239.239
20
-94.6742
11
239.241
21
-94.6734
0
LINE
8
BLACK
6
CONTINUOUS
10
239.241
20
-94.6734
11
239.243
21
-94.6725
0
LINE
8
BLACK
6
CONTINUOUS
10
239.243
20
-94.6725
11
239.74
21
-94.5186
0
LINE
8
BLACK
6
CONTINUOUS
10
239.74
20
-94.5186
11
239.741
21
-94.5185
0
LINE
8
BLACK
6
CONTINUOUS
10
239.741
20
-94.5185
11
239.742
21
-94.5182
0
LINE
8
BLACK
6
CONTINUOUS
10
239.742
20
-94.5182
11
239.744
21
-94.5178
0
LINE
8
BLACK
6
CONTINUOUS
10
239.744
20
-94.5178
11
239.948
21
-94.4841
0
LINE
8
BLACK
6
CONTINUOUS
10
239.948
20
-94.4841
11
239.948
21
-94.484
0
LINE
8
BLACK
6
CONTINUOUS
10
239.948
20
-94.484
11
239.949
21
-94.4839
0
LINE
8
BLACK
6
CONTINUOUS
10
239.949
20
-94.4839
11
239.949
21
-94.4839
0
LINE
8
BLACK
6
CONTINUOUS
10
239.949
20
-94.4839
11
239.949
21
-94.4839
0
LINE
8
BLACK
6
CONTINUOUS
10
239.949
20
-94.4839
11
255.901
21
-92.1773
0
LINE
8
BLACK
6
CONTINUOUS
10
255.901
20
-92.1773
11
255.902
21
-92.1771
0
LINE
8
BLACK
6
CONTINUOUS
10
255.902
20
-92.1771
11
255.902
21
-92.1771
0
LINE
8
BLACK
6
CONTINUOUS
10
255.902
20
-92.1771
11
255.903
21
-92.1771
0
LINE
8
BLACK
6
CONTINUOUS
10
255.903
20
-92.1771
11
255.904
21
-92.177
0
LINE
8
BLACK
6
CONTINUOUS
10
255.904
20
-92.177
11
271.382
21
-91.1428
0
LINE
8
BLACK
6
CONTINUOUS
10
271.382
20
-91.1428
11
271.753
21
-91.0863
0
LINE
8
BLACK
6
CONTINUOUS
10
271.753
20
-91.0863
11
272.435
21
-90.8751
0
LINE
8
BLACK
6
CONTINUOUS
10
272.435
20
-90.8751
11
273.063
21
-90.5355
0
LINE
8
BLACK
6
CONTINUOUS
10
273.063
20
-90.5355
11
273.614
21
-90.0805
0
LINE
8
BLACK
6
CONTINUOUS
10
273.614
20
-90.0805
11
274.065
21
-89.5272
0
LINE
8
BLACK
6
CONTINUOUS
10
274.065
20
-89.5272
11
274.4
21
-88.8969
0
LINE
8
BLACK
6
CONTINUOUS
10
274.4
20
-88.8969
11
274.606
21
-88.2135
0
LINE
8
BLACK
6
CONTINUOUS
10
274.606
20
-88.2135
11
274.676
21
-87.5027
0
LINE
8
BLACK
6
CONTINUOUS
10
274.676
20
-87.5027
11
271.102
21
-37.4823
0
LINE
8
BLACK
6
CONTINUOUS
10
271.102
20
-37.4823
11
271.045
21
-37.111
0
LINE
8
BLACK
6
CONTINUOUS
10
271.045
20
-37.111
11
270.834
21
-36.4285
0
LINE
8
BLACK
6
CONTINUOUS
10
270.834
20
-36.4285
11
270.495
21
-35.8005
0
LINE
8
BLACK
6
CONTINUOUS
10
270.495
20
-35.8005
11
270.039
21
-35.2505
0
LINE
8
BLACK
6
CONTINUOUS
10
270.039
20
-35.2505
11
269.486
21
-34.7993
0
LINE
8
BLACK
6
CONTINUOUS
10
269.486
20
-34.7993
11
268.856
21
-34.4641
0
LINE
8
BLACK
6
CONTINUOUS
10
268.856
20
-34.4641
11
268.172
21
-34.2578
0
LINE
8
BLACK
6
CONTINUOUS
10
268.172
20
-34.2578
11
267.462
21
-34.1881
0
LINE
8
BLACK
6
CONTINUOUS
10
267.462
20
-34.1881
11
250.193
21
-35.3309
0
LINE
8
BLACK
6
CONTINUOUS
10
250.193
20
-35.3309
11
172.725
21
-46.2525
0
LINE
8
BLACK
6
CONTINUOUS
10
172.725
20
-46.2525
11
172.725
21
-46.2526
0
LINE
8
BLACK
6
CONTINUOUS
10
172.725
20
-46.2526
11
172.723
21
-46.2528
0
LINE
8
BLACK
6
CONTINUOUS
10
172.723
20
-46.2528
11
172.722
21
-46.2529
0
LINE
8
BLACK
6
CONTINUOUS
10
172.722
20
-46.2529
11
172.722
21
-46.2529
0
LINE
8
BLACK
6
CONTINUOUS
10
172.722
20
-46.2529
11
172.721
21
-46.253
0
LINE
8
BLACK
6
CONTINUOUS
10
172.721
20
-46.253
11
172.72
21
-46.253
0
LINE
8
BLACK
6
CONTINUOUS
10
172.72
20
-46.253
11
172.719
21
-46.2531
0
LINE
8
BLACK
6
CONTINUOUS
10
172.719
20
-46.2531
11
172.718
21
-46.253
0
LINE
8
BLACK
6
CONTINUOUS
10
172.718
20
-46.253
11
122.684
21
-46.253
0
LINE
8
BLACK
6
CONTINUOUS
10
122.684
20
-46.253
11
122.683
21
-46.2531
0
LINE
8
BLACK
6
CONTINUOUS
10
122.683
20
-46.2531
11
122.682
21
-46.253
0
LINE
8
BLACK
6
CONTINUOUS
10
122.682
20
-46.253
11
122.681
21
-46.253
0
LINE
8
BLACK
6
CONTINUOUS
10
122.681
20
-46.253
11
122.68
21
-46.2529
0
LINE
8
BLACK
6
CONTINUOUS
10
122.68
20
-46.2529
11
122.68
21
-46.2529
0
LINE
8
BLACK
6
CONTINUOUS
10
122.68
20
-46.2529
11
122.679
21
-46.2528
0
LINE
8
BLACK
6
CONTINUOUS
10
122.679
20
-46.2528
11
122.677
21
-46.2526
0
LINE
8
BLACK
6
CONTINUOUS
10
122.677
20
-46.2526
11
122.677
21
-46.2525
0
LINE
8
BLACK
6
CONTINUOUS
10
122.677
20
-46.2525
11
45.4633
21
-35.3309
0
LINE
8
BLACK
6
CONTINUOUS
10
45.4633
20
-35.3309
11
27.8127
21
-34.061
0
LINE
8
BLACK
6
CONTINUOUS
10
27.8127
20
-34.061
11
27.4382
21
-34.0803
  0
ENDSEC
  0
EOF
