  0
SECTION
  2
HEADER
  9
$ANGBASE
  50
0.0
  9
$ANGDIR
  70
1
  9
$MEASUREMENT
  70
1
  0
ENDSEC
  0
SECTION
  2
TABLES
  0
TABLE
  2
LTYPE
  70
4
  0
LTYPE
  5
40F
  2
CONTINUOUS
  70
0
  3
Solid line
  72
65
  73
0
  40
0.0
  0
LTYPE
  5
410
  2
DASHDOT
 70
0
  3
Dash Dot ____ _ ____ _
 72
65
 73
4
 40
2.0
 49
1.25
 49
-0.25
 49
0.25
 49
-0.25
  0
LTYPE
  5
411
  2
DASHED
 70
0
  3
Dashed __ __ __ __ __
 72
65
 73
2
 40
0.75
 49
0.5
 49
-0.25
  0
LTYPE
  5
43B
  2
DOTTED
 70
0
  3
Dotted .  .  .  .
 72
65
 73
2
 40
0.2
 49
0.0
 49
-0.2
  0
ENDTAB
  0
TABLE
  2
STYLE
  70
4
  0
STYLE
  2
KICAD
  70
0
  40
0
  41
1
  42
1
  50
0
  71
0
  3
isocp.shx
  0
STYLE
  2
KICADB
  70
0
  40
0
  41
1
  42
1
  50
0
  71
0
  3
isocp.shx
  0
STYLE
  2
KICADI
  70
0
  40
0
  41
1
  42
1
  50
15
  71
0
  3
isocp.shx
  0
STYLE
  2
KICADBI
  70
0
  40
0
  41
1
  42
1
  50
15
  71
0
  3
isocp.shx
  0
ENDTAB
  0
TABLE
  2
LAYER
  70
1
  0
LAYER
  2
BLACK
  70
0
  62
7
  6
CONTINUOUS
  0
ENDTAB
  0
ENDSEC
  0
SECTION
  2
ENTITIES
0
LINE
8
BLACK
6
CONTINUOUS
10
134.56
20
-55.19
11
134.56
21
-54.94
0
LINE
8
BLACK
6
CONTINUOUS
10
134.56
20
-54.94
11
134.31
21
-54.94
0
LINE
8
BLACK
6
CONTINUOUS
10
127.06
20
-55.19
11
127.06
21
-54.94
0
LINE
8
BLACK
6
CONTINUOUS
10
127.06
20
-54.94
11
127.31
21
-54.94
0
LINE
8
BLACK
6
CONTINUOUS
10
127.31
20
-64.44
11
127.06
21
-64.44
0
LINE
8
BLACK
6
CONTINUOUS
10
127.06
20
-64.44
11
127.06
21
-64.19
0
LINE
8
BLACK
6
CONTINUOUS
10
134.31
20
-64.44
11
134.56
21
-64.44
0
LINE
8
BLACK
6
CONTINUOUS
10
134.56
20
-64.44
11
134.56
21
-64.19
0
LINE
8
BLACK
6
CONTINUOUS
10
127.06
20
-64.19
11
127.06
21
-55.19
0
LINE
8
BLACK
6
CONTINUOUS
10
134.31
20
-64.44
11
127.31
21
-64.44
0
LINE
8
BLACK
6
CONTINUOUS
10
134.56
20
-55.19
11
134.56
21
-64.19
0
LINE
8
BLACK
6
CONTINUOUS
10
127.31
20
-54.94
11
134.31
21
-54.94
0
LINE
8
BLACK
6
CONTINUOUS
10
166.9
20
-49
11
160.75
21
-49
0
LINE
8
BLACK
6
CONTINUOUS
10
160.75
20
-49
11
160.75
21
-52.6
0
LINE
8
BLACK
6
CONTINUOUS
10
160.75
20
-52.6
11
166.9
21
-52.6
0
LINE
8
BLACK
6
CONTINUOUS
10
166.9
20
-52.6
11
166.9
21
-49
0
LINE
8
BLACK
6
CONTINUOUS
10
170.41
20
-74.7
11
163.41
21
-74.7
0
LINE
8
BLACK
6
CONTINUOUS
10
163.41
20
-74.7
11
163.41
21
-79.7
0
LINE
8
BLACK
6
CONTINUOUS
10
163.41
20
-79.7
11
170.41
21
-79.7
0
LINE
8
BLACK
6
CONTINUOUS
10
170.41
20
-79.7
11
170.41
21
-74.7
0
LINE
8
BLACK
6
CONTINUOUS
10
100.299
20
-83.5448
11
115.153
21
-85.6324
0
LINE
8
BLACK
6
CONTINUOUS
10
115.153
20
-85.6324
11
113.065
21
-100.486
0
LINE
8
BLACK
6
CONTINUOUS
10
113.065
20
-100.486
11
98.2109
21
-98.3988
0
LINE
8
BLACK
6
CONTINUOUS
10
98.2109
20
-98.3988
11
100.299
21
-83.5448
0
LINE
8
BLACK
6
CONTINUOUS
10
201.707
20
-101.803
11
216.561
21
-99.7156
0
LINE
8
BLACK
6
CONTINUOUS
10
216.561
20
-99.7156
11
218.648
21
-114.57
0
LINE
8
BLACK
6
CONTINUOUS
10
218.648
20
-114.57
11
203.794
21
-116.657
0
LINE
8
BLACK
6
CONTINUOUS
10
203.794
20
-116.657
11
201.707
21
-101.803
0
CIRCLE
8
BLACK
10
253.9
20
-73.4
40
2.45
0
CIRCLE
8
BLACK
10
41.5
20
-73.4
40
2.45
0
LINE
8
BLACK
6
CONTINUOUS
10
254.052
20
-37.1626
11
269.015
21
-36.1162
0
LINE
8
BLACK
6
CONTINUOUS
10
269.015
20
-36.1162
11
270.062
21
-51.0797
0
LINE
8
BLACK
6
CONTINUOUS
10
270.062
20
-51.0797
11
255.098
21
-52.126
0
LINE
8
BLACK
6
CONTINUOUS
10
255.098
20
-52.126
11
254.052
21
-37.1626
0
CIRCLE
8
BLACK
10
194.056
20
-62.484
40
2.45
0
CIRCLE
8
BLACK
10
101.346
20
-62.484
40
2.45
0
LINE
8
BLACK
6
CONTINUOUS
10
220.522
20
-99.1589
11
235.376
21
-97.0713
0
LINE
8
BLACK
6
CONTINUOUS
10
235.376
20
-97.0713
11
237.464
21
-111.925
0
LINE
8
BLACK
6
CONTINUOUS
10
237.464
20
-111.925
11
222.61
21
-114.013
0
LINE
8
BLACK
6
CONTINUOUS
10
222.61
20
-114.013
11
220.522
21
-99.1589
0
LINE
8
BLACK
6
CONTINUOUS
10
182.892
20
-104.447
11
197.746
21
-102.36
0
LINE
8
BLACK
6
CONTINUOUS
10
197.746
20
-102.36
11
199.833
21
-117.214
0
LINE
8
BLACK
6
CONTINUOUS
10
199.833
20
-117.214
11
184.979
21
-119.301
0
LINE
8
BLACK
6
CONTINUOUS
10
184.979
20
-119.301
11
182.892
21
-104.447
0
LINE
8
BLACK
6
CONTINUOUS
10
97.6542
20
-102.36
11
112.508
21
-104.447
0
LINE
8
BLACK
6
CONTINUOUS
10
112.508
20
-104.447
11
110.421
21
-119.301
0
LINE
8
BLACK
6
CONTINUOUS
10
110.421
20
-119.301
11
95.5666
21
-117.214
0
LINE
8
BLACK
6
CONTINUOUS
10
95.5666
20
-117.214
11
97.6542
21
-102.36
0
LINE
8
BLACK
6
CONTINUOUS
10
78.8391
20
-99.7156
11
93.6932
21
-101.803
0
LINE
8
BLACK
6
CONTINUOUS
10
93.6932
20
-101.803
11
91.6056
21
-116.657
0
LINE
8
BLACK
6
CONTINUOUS
10
91.6056
20
-116.657
11
76.7515
21
-114.57
0
LINE
8
BLACK
6
CONTINUOUS
10
76.7515
20
-114.57
11
78.8391
21
-99.7156
0
LINE
8
BLACK
6
CONTINUOUS
10
60.024
20
-97.0713
11
74.8781
21
-99.1589
0
LINE
8
BLACK
6
CONTINUOUS
10
74.8781
20
-99.1589
11
72.7905
21
-114.013
0
LINE
8
BLACK
6
CONTINUOUS
10
72.7905
20
-114.013
11
57.9364
21
-111.925
0
LINE
8
BLACK
6
CONTINUOUS
10
57.9364
20
-111.925
11
60.024
21
-97.0713
0
LINE
8
BLACK
6
CONTINUOUS
10
256.703
20
-75.07
11
271.666
21
-74.0237
0
LINE
8
BLACK
6
CONTINUOUS
10
271.666
20
-74.0237
11
272.712
21
-88.9871
0
LINE
8
BLACK
6
CONTINUOUS
10
272.712
20
-88.9871
11
257.749
21
-90.0335
0
LINE
8
BLACK
6
CONTINUOUS
10
257.749
20
-90.0335
11
256.703
21
-75.07
0
LINE
8
BLACK
6
CONTINUOUS
10
236.703
20
-77.6908
11
251.557
21
-75.6032
0
LINE
8
BLACK
6
CONTINUOUS
10
251.557
20
-75.6032
11
253.644
21
-90.4572
0
LINE
8
BLACK
6
CONTINUOUS
10
253.644
20
-90.4572
11
238.79
21
-92.5448
0
LINE
8
BLACK
6
CONTINUOUS
10
238.79
20
-92.5448
11
236.703
21
-77.6908
0
LINE
8
BLACK
6
CONTINUOUS
10
217.878
20
-80.3438
11
232.732
21
-78.2562
0
LINE
8
BLACK
6
CONTINUOUS
10
232.732
20
-78.2562
11
234.819
21
-93.1102
0
LINE
8
BLACK
6
CONTINUOUS
10
234.819
20
-93.1102
11
219.965
21
-95.1978
0
LINE
8
BLACK
6
CONTINUOUS
10
219.965
20
-95.1978
11
217.878
21
-80.3438
0
LINE
8
BLACK
6
CONTINUOUS
10
199.063
20
-82.9881
11
213.917
21
-80.9005
0
LINE
8
BLACK
6
CONTINUOUS
10
213.917
20
-80.9005
11
216.004
21
-95.7545
0
LINE
8
BLACK
6
CONTINUOUS
10
216.004
20
-95.7545
11
201.15
21
-97.8421
0
LINE
8
BLACK
6
CONTINUOUS
10
201.15
20
-97.8421
11
199.063
21
-82.9881
0
LINE
8
BLACK
6
CONTINUOUS
10
180.247
20
-85.6324
11
195.101
21
-83.5448
0
LINE
8
BLACK
6
CONTINUOUS
10
195.101
20
-83.5448
11
197.189
21
-98.3988
0
LINE
8
BLACK
6
CONTINUOUS
10
197.189
20
-98.3988
11
182.335
21
-100.486
0
LINE
8
BLACK
6
CONTINUOUS
10
182.335
20
-100.486
11
180.247
21
-85.6324
0
LINE
8
BLACK
6
CONTINUOUS
10
81.4834
20
-80.9005
11
96.3374
21
-82.9881
0
LINE
8
BLACK
6
CONTINUOUS
10
96.3374
20
-82.9881
11
94.2498
21
-97.8421
0
LINE
8
BLACK
6
CONTINUOUS
10
94.2498
20
-97.8421
11
79.3958
21
-95.7545
0
LINE
8
BLACK
6
CONTINUOUS
10
79.3958
20
-95.7545
11
81.4834
21
-80.9005
0
LINE
8
BLACK
6
CONTINUOUS
10
62.6683
20
-78.2562
11
77.5224
21
-80.3438
0
LINE
8
BLACK
6
CONTINUOUS
10
77.5224
20
-80.3438
11
75.4348
21
-95.1978
0
LINE
8
BLACK
6
CONTINUOUS
10
75.4348
20
-95.1978
11
60.5807
21
-93.1102
0
LINE
8
BLACK
6
CONTINUOUS
10
60.5807
20
-93.1102
11
62.6683
21
-78.2562
0
LINE
8
BLACK
6
CONTINUOUS
10
43.8532
20
-75.6119
11
58.7073
21
-77.6995
0
LINE
8
BLACK
6
CONTINUOUS
10
58.7073
20
-77.6995
11
56.6197
21
-92.5535
0
LINE
8
BLACK
6
CONTINUOUS
10
56.6197
20
-92.5535
11
41.7656
21
-90.4659
0
LINE
8
BLACK
6
CONTINUOUS
10
41.7656
20
-90.4659
11
43.8532
21
-75.6119
0
LINE
8
BLACK
6
CONTINUOUS
10
23.734
20
-74.0237
11
38.6975
21
-75.07
0
LINE
8
BLACK
6
CONTINUOUS
10
38.6975
20
-75.07
11
37.6511
21
-90.0335
0
LINE
8
BLACK
6
CONTINUOUS
10
37.6511
20
-90.0335
11
22.6877
21
-88.9871
0
LINE
8
BLACK
6
CONTINUOUS
10
22.6877
20
-88.9871
11
23.734
21
-74.0237
0
LINE
8
BLACK
6
CONTINUOUS
10
255.377
20
-56.1163
11
270.341
21
-55.07
0
LINE
8
BLACK
6
CONTINUOUS
10
270.341
20
-55.07
11
271.387
21
-70.0334
0
LINE
8
BLACK
6
CONTINUOUS
10
271.387
20
-70.0334
11
256.423
21
-71.0798
0
LINE
8
BLACK
6
CONTINUOUS
10
256.423
20
-71.0798
11
255.377
21
-56.1163
0
LINE
8
BLACK
6
CONTINUOUS
10
234.048
20
-58.8844
11
248.902
21
-56.7968
0
LINE
8
BLACK
6
CONTINUOUS
10
248.902
20
-56.7968
11
250.99
21
-71.6508
0
LINE
8
BLACK
6
CONTINUOUS
10
250.99
20
-71.6508
11
236.136
21
-73.7384
0
LINE
8
BLACK
6
CONTINUOUS
10
236.136
20
-73.7384
11
234.048
21
-58.8844
0
LINE
8
BLACK
6
CONTINUOUS
10
215.233
20
-61.5287
11
230.087
21
-59.4411
0
LINE
8
BLACK
6
CONTINUOUS
10
230.087
20
-59.4411
11
232.175
21
-74.2951
0
LINE
8
BLACK
6
CONTINUOUS
10
232.175
20
-74.2951
11
217.321
21
-76.3827
0
LINE
8
BLACK
6
CONTINUOUS
10
217.321
20
-76.3827
11
215.233
21
-61.5287
0
LINE
8
BLACK
6
CONTINUOUS
10
196.418
20
-64.173
11
211.272
21
-62.0854
0
LINE
8
BLACK
6
CONTINUOUS
10
211.272
20
-62.0854
11
213.36
21
-76.9394
0
LINE
8
BLACK
6
CONTINUOUS
10
213.36
20
-76.9394
11
198.506
21
-79.027
0
LINE
8
BLACK
6
CONTINUOUS
10
198.506
20
-79.027
11
196.418
21
-64.173
0
LINE
8
BLACK
6
CONTINUOUS
10
177.603
20
-66.8173
11
192.457
21
-64.7297
0
LINE
8
BLACK
6
CONTINUOUS
10
192.457
20
-64.7297
11
194.545
21
-79.5837
0
LINE
8
BLACK
6
CONTINUOUS
10
194.545
20
-79.5837
11
179.691
21
-81.6713
0
LINE
8
BLACK
6
CONTINUOUS
10
179.691
20
-81.6713
11
177.603
21
-66.8173
0
LINE
8
BLACK
6
CONTINUOUS
10
102.943
20
-64.7297
11
117.797
21
-66.8173
0
LINE
8
BLACK
6
CONTINUOUS
10
117.797
20
-66.8173
11
115.709
21
-81.6713
0
LINE
8
BLACK
6
CONTINUOUS
10
115.709
20
-81.6713
11
100.855
21
-79.5837
0
LINE
8
BLACK
6
CONTINUOUS
10
100.855
20
-79.5837
11
102.943
21
-64.7297
0
LINE
8
BLACK
6
CONTINUOUS
10
84.1277
20
-62.0854
11
98.9817
21
-64.173
0
LINE
8
BLACK
6
CONTINUOUS
10
98.9817
20
-64.173
11
96.8941
21
-79.027
0
LINE
8
BLACK
6
CONTINUOUS
10
96.8941
20
-79.027
11
82.0401
21
-76.9394
0
LINE
8
BLACK
6
CONTINUOUS
10
82.0401
20
-76.9394
11
84.1277
21
-62.0854
0
LINE
8
BLACK
6
CONTINUOUS
10
65.3126
20
-59.4411
11
80.1666
21
-61.5287
0
LINE
8
BLACK
6
CONTINUOUS
10
80.1666
20
-61.5287
11
78.079
21
-76.3827
0
LINE
8
BLACK
6
CONTINUOUS
10
78.079
20
-76.3827
11
63.225
21
-74.2951
0
LINE
8
BLACK
6
CONTINUOUS
10
63.225
20
-74.2951
11
65.3126
21
-59.4411
0
LINE
8
BLACK
6
CONTINUOUS
10
46.4975
20
-56.7968
11
61.3515
21
-58.8844
0
LINE
8
BLACK
6
CONTINUOUS
10
61.3515
20
-58.8844
11
59.264
21
-73.7384
0
LINE
8
BLACK
6
CONTINUOUS
10
59.264
20
-73.7384
11
44.4099
21
-71.6508
0
LINE
8
BLACK
6
CONTINUOUS
10
44.4099
20
-71.6508
11
46.4975
21
-56.7968
0
LINE
8
BLACK
6
CONTINUOUS
10
25.0594
20
-55.07
11
40.0229
21
-56.1163
0
LINE
8
BLACK
6
CONTINUOUS
10
40.0229
20
-56.1163
11
38.9765
21
-71.0798
0
LINE
8
BLACK
6
CONTINUOUS
10
38.9765
20
-71.0798
11
24.0131
21
-70.0334
0
LINE
8
BLACK
6
CONTINUOUS
10
24.0131
20
-70.0334
11
25.0594
21
-55.07
0
LINE
8
BLACK
6
CONTINUOUS
10
231.404
20
-40.0693
11
246.258
21
-37.9817
0
LINE
8
BLACK
6
CONTINUOUS
10
246.258
20
-37.9817
11
248.346
21
-52.8357
0
LINE
8
BLACK
6
CONTINUOUS
10
248.346
20
-52.8357
11
233.492
21
-54.9233
0
LINE
8
BLACK
6
CONTINUOUS
10
233.492
20
-54.9233
11
231.404
21
-40.0693
0
LINE
8
BLACK
6
CONTINUOUS
10
212.589
20
-42.7136
11
227.443
21
-40.626
0
LINE
8
BLACK
6
CONTINUOUS
10
227.443
20
-40.626
11
229.531
21
-55.48
0
LINE
8
BLACK
6
CONTINUOUS
10
229.531
20
-55.48
11
214.677
21
-57.5676
0
LINE
8
BLACK
6
CONTINUOUS
10
214.677
20
-57.5676
11
212.589
21
-42.7136
0
LINE
8
BLACK
6
CONTINUOUS
10
193.774
20
-45.3579
11
208.628
21
-43.2703
0
LINE
8
BLACK
6
CONTINUOUS
10
208.628
20
-43.2703
11
210.716
21
-58.1243
0
LINE
8
BLACK
6
CONTINUOUS
10
210.716
20
-58.1243
11
195.862
21
-60.2119
0
LINE
8
BLACK
6
CONTINUOUS
10
195.862
20
-60.2119
11
193.774
21
-45.3579
0
LINE
8
BLACK
6
CONTINUOUS
10
174.959
20
-48.0022
11
189.813
21
-45.9146
0
LINE
8
BLACK
6
CONTINUOUS
10
189.813
20
-45.9146
11
191.9
21
-60.7686
0
LINE
8
BLACK
6
CONTINUOUS
10
191.9
20
-60.7686
11
177.046
21
-62.8562
0
LINE
8
BLACK
6
CONTINUOUS
10
177.046
20
-62.8562
11
174.959
21
-48.0022
0
LINE
8
BLACK
6
CONTINUOUS
10
105.587
20
-45.9146
11
120.441
21
-48.0022
0
LINE
8
BLACK
6
CONTINUOUS
10
120.441
20
-48.0022
11
118.354
21
-62.8562
0
LINE
8
BLACK
6
CONTINUOUS
10
118.354
20
-62.8562
11
103.499
21
-60.7686
0
LINE
8
BLACK
6
CONTINUOUS
10
103.499
20
-60.7686
11
105.587
21
-45.9146
0
LINE
8
BLACK
6
CONTINUOUS
10
86.772
20
-43.2703
11
101.626
21
-45.3579
0
LINE
8
BLACK
6
CONTINUOUS
10
101.626
20
-45.3579
11
99.5384
21
-60.2119
0
LINE
8
BLACK
6
CONTINUOUS
10
99.5384
20
-60.2119
11
84.6844
21
-58.1243
0
LINE
8
BLACK
6
CONTINUOUS
10
84.6844
20
-58.1243
11
86.772
21
-43.2703
0
LINE
8
BLACK
6
CONTINUOUS
10
67.9569
20
-40.626
11
82.8109
21
-42.7136
0
LINE
8
BLACK
6
CONTINUOUS
10
82.8109
20
-42.7136
11
80.7233
21
-57.5676
0
LINE
8
BLACK
6
CONTINUOUS
10
80.7233
20
-57.5676
11
65.8693
21
-55.48
0
LINE
8
BLACK
6
CONTINUOUS
10
65.8693
20
-55.48
11
67.9569
21
-40.626
0
LINE
8
BLACK
6
CONTINUOUS
10
49.1418
20
-37.9817
11
63.9958
21
-40.0693
0
LINE
8
BLACK
6
CONTINUOUS
10
63.9958
20
-40.0693
11
61.9082
21
-54.9233
0
LINE
8
BLACK
6
CONTINUOUS
10
61.9082
20
-54.9233
11
47.0542
21
-52.8357
0
LINE
8
BLACK
6
CONTINUOUS
10
47.0542
20
-52.8357
11
49.1418
21
-37.9817
0
LINE
8
BLACK
6
CONTINUOUS
10
26.3848
20
-36.1162
11
41.3482
21
-37.1626
0
LINE
8
BLACK
6
CONTINUOUS
10
41.3482
20
-37.1626
11
40.3019
21
-52.126
0
LINE
8
BLACK
6
CONTINUOUS
10
40.3019
20
-52.126
11
25.3384
21
-51.0797
0
LINE
8
BLACK
6
CONTINUOUS
10
25.3384
20
-51.0797
11
26.3848
21
-36.1162
0
CIRCLE
8
BLACK
10
250.7
20
-41.9
40
2.45
0
CIRCLE
8
BLACK
10
77.2
20
-97.5
40
2.45
0
CIRCLE
8
BLACK
10
218.2
20
-97.4
40
2.45
0
CIRCLE
8
BLACK
10
44.8
20
-41.9
40
2.45
  0
ENDSEC
  0
EOF
